<mxfile host="app.diagrams.net" modified="2024-01-15T23:25:58.088Z" agent="Mozilla/5.0 (Macintosh; Intel Mac OS X 10_15_7) AppleWebKit/537.36 (KHTML, like Gecko) Chrome/120.0.0.0 Safari/537.36" etag="f4IS190qNAjeTlts968S" version="22.1.18" type="device">
  <diagram name="Page-1" id="S5MA45jfrJYuebvmPvV7">
    <mxGraphModel dx="2234" dy="1220" grid="0" gridSize="10" guides="1" tooltips="1" connect="1" arrows="1" fold="1" page="0" pageScale="1" pageWidth="850" pageHeight="1100" math="0" shadow="0">
      <root>
        <mxCell id="0" />
        <mxCell id="1" parent="0" />
        <mxCell id="yxJsiBhAxNLMxBTyAHPI-50" value="" style="rounded=0;whiteSpace=wrap;html=1;strokeWidth=1;fontStyle=1;fontColor=default;strokeColor=default;" parent="1" vertex="1">
          <mxGeometry x="-487" y="-358" width="1094" height="584" as="geometry" />
        </mxCell>
        <mxCell id="yxJsiBhAxNLMxBTyAHPI-33" style="edgeStyle=orthogonalEdgeStyle;rounded=0;orthogonalLoop=1;jettySize=auto;html=1;entryX=0;entryY=0.5;entryDx=0;entryDy=0;dashed=1;fontStyle=1" parent="1" target="JKClMGUKZ1o02f39TSCT-5" edge="1">
          <mxGeometry relative="1" as="geometry">
            <Array as="points">
              <mxPoint x="145" y="45" />
              <mxPoint x="145" y="124" />
            </Array>
            <mxPoint x="68" y="45" as="sourcePoint" />
            <mxPoint x="196" y="123.5" as="targetPoint" />
          </mxGeometry>
        </mxCell>
        <mxCell id="yxJsiBhAxNLMxBTyAHPI-24" style="edgeStyle=orthogonalEdgeStyle;rounded=0;orthogonalLoop=1;jettySize=auto;html=1;entryX=0;entryY=0.25;entryDx=0;entryDy=0;dashed=1;fontStyle=1;exitX=1;exitY=0.75;exitDx=0;exitDy=0;" parent="1" source="JKClMGUKZ1o02f39TSCT-4" edge="1">
          <mxGeometry relative="1" as="geometry">
            <Array as="points">
              <mxPoint x="-161" y="-145" />
              <mxPoint x="-46" y="-145" />
              <mxPoint x="-46" y="8" />
            </Array>
            <mxPoint x="-152" y="-145" as="sourcePoint" />
            <mxPoint x="-7" y="7.75" as="targetPoint" />
          </mxGeometry>
        </mxCell>
        <mxCell id="yxJsiBhAxNLMxBTyAHPI-11" style="edgeStyle=orthogonalEdgeStyle;rounded=0;orthogonalLoop=1;jettySize=auto;html=1;dashed=1;fontStyle=1" parent="1" source="JKClMGUKZ1o02f39TSCT-1" target="yxJsiBhAxNLMxBTyAHPI-10" edge="1">
          <mxGeometry relative="1" as="geometry">
            <mxPoint x="-346" y="202.5" as="sourcePoint" />
          </mxGeometry>
        </mxCell>
        <mxCell id="yxJsiBhAxNLMxBTyAHPI-12" value="Download" style="edgeLabel;html=1;align=center;verticalAlign=middle;resizable=0;points=[];fontStyle=1" parent="yxJsiBhAxNLMxBTyAHPI-11" vertex="1" connectable="0">
          <mxGeometry x="-0.125" y="1" relative="1" as="geometry">
            <mxPoint x="2" y="16" as="offset" />
          </mxGeometry>
        </mxCell>
        <mxCell id="JKClMGUKZ1o02f39TSCT-2" value="API Call" style="edgeLabel;html=1;align=center;verticalAlign=middle;resizable=0;points=[];fontStyle=1" vertex="1" connectable="0" parent="yxJsiBhAxNLMxBTyAHPI-11">
          <mxGeometry x="-0.1064" relative="1" as="geometry">
            <mxPoint x="-1" y="-14" as="offset" />
          </mxGeometry>
        </mxCell>
        <mxCell id="bgkwsYtyd7LlQrMof8sF-1" style="edgeStyle=orthogonalEdgeStyle;rounded=0;orthogonalLoop=1;jettySize=auto;html=1;entryX=0;entryY=0.75;entryDx=0;entryDy=0;dashed=1;exitX=1;exitY=0.5;exitDx=0;exitDy=0;fontStyle=1" parent="1" source="yxJsiBhAxNLMxBTyAHPI-10" edge="1">
          <mxGeometry relative="1" as="geometry">
            <mxPoint x="-7" y="45.25" as="targetPoint" />
          </mxGeometry>
        </mxCell>
        <mxCell id="bgkwsYtyd7LlQrMof8sF-2" value="From Documents" style="edgeLabel;html=1;align=left;verticalAlign=middle;resizable=0;points=[];fontStyle=1" parent="bgkwsYtyd7LlQrMof8sF-1" vertex="1" connectable="0">
          <mxGeometry x="0.1434" y="-24" relative="1" as="geometry">
            <mxPoint x="-42" y="-3" as="offset" />
          </mxGeometry>
        </mxCell>
        <mxCell id="yxJsiBhAxNLMxBTyAHPI-10" value="Incidents Table Data&#xa;as CSV File" style="shape=image;verticalLabelPosition=bottom;labelBackgroundColor=default;verticalAlign=top;aspect=fixed;imageAspect=0;image=data:image/png,iVBORw0KGgoAAAANSUhEUgAAAIAAAACACAYAAADDPmHLAAAKsWlDQ1BJQ0MgUHJvZmlsZQAASImVlwdUU+kSgP9700NCgASkE3oTpBNASuihSwdRCUmAUEIIhGZXFldwRRGRJq7oqoCCq1JkrViwoqCIBV2QRURdFwtYUHkXOAR333nvnTc5c/4vc+efmf+ef86ZCwCZxhYKU2AZAFIFmaJgL1d6ZFQ0HTcCCAACZGAHIDYnQ8gMCvIDiMytf5eJe4gvIndMpmP9+/P/KrJcXgYHACgI4ThuBicV4ROIjnGEokwAUPsRu3Z2pnCaryBMEyEFItw/zQmzPDbNcTOMRs/4hAa7IawIAJ7EZosSACDpIHZ6FicBiUNyR9hMwOULEEb+A6fU1DQuwkheYID4CBGejs+I+y5Owt9ixklistkJEp49y4zg3fkZwhR27v/5Ov63pKaI53LoIUpKFHkHIytSF3Q/Oc1XwoK4gMA55nNn/Gc4UewdNsecDLfoOeay3X0le1MC/OY4nu/JksTJZIXOMS/DI2SORWnBklzxIjfmHLNF83nFyWESeyKPJYmflxgaMcdZ/PCAOc5IDvGd93GT2EXiYEn9PIGX63xeT8nZUzO+Oy+fJdmbmRjqLTk7e75+noA5HzMjUlIbl+fuMe8TJvEXZrpKcglTgiT+vBQviT0jK0SyNxO5kPN7gyTvMIntEzTHwB14AD/kRwdhwAJYIWoOvIFHJi9n+o4CtzRhroifkJhJZyJdxqOzBBzThXQLMwtLAKZ7dvZKvAue6UVI4cy8LQ3pIcYE0ifb521xpQC0FiCpH87bdGoAoOQD0NLBEYuyZm3T7QQwgAgogAaUgDrQBgbABKnNBjgAF6RiHxAIQkEUWA44IBGkAhHIBqvAelAAisA2sBNUgj1gHzgEjoBjoBWcAufBZXAd3Aa94BEYAMPgJRgDE2ASgiAcRIaokBKkAelCxpAFxICcIA/IDwqGoqBYKAESQGJoFbQRKoJKoEpoL1QH/QqdhM5DV6Fu6AE0CI1Cb6HPMAomwTRYDdaDF8EMmAn7wqHwMjgBTofz4Hx4K1wO18KH4Rb4PHwd7oUH4JfwOAqgpFAKKE2UCYqBckMFoqJR8SgRag2qEFWGqkU1otpRnag7qAHUK9QnNBZNRdPRJmgHtDc6DM1Bp6PXoLegK9GH0C3oi+g76EH0GPobhoxRxRhj7DEsTCQmAZONKcCUYQ5gmjGXML2YYcwEFotVwOpjbbHe2ChsEnYldgt2N7YJew7bjR3CjuNwOCWcMc4RF4hj4zJxBbgK3GHcWVwPbhj3ES+F18Bb4D3x0XgBfgO+DF+PP4PvwY/gJwkyBF2CPSGQwCXkEooJ+wnthFuEYcIkUZaoT3QkhhKTiOuJ5cRG4iViP/GdlJSUlpSd1BIpvtQ6qXKpo1JXpAalPpHkSEYkN1IMSUzaSjpIOkd6QHpHJpP1yC7kaHImeSu5jnyB/IT8UZoqbSrNkuZKr5Wukm6R7pF+TSFQdClMynJKHqWMcpxyi/JKhiCjJ+Mmw5ZZI1Mlc1KmT2ZcliprLhsomyq7RbZe9qrsczmcnJ6chxxXLl9un9wFuSEqiqpNdaNyqBup+6mXqMM0LE2fxqIl0YpoR2hdtDF5OXkr+XD5HPkq+dPyAwooBT0FlkKKQrHCMYV7Cp8XqC1gLuAt2LygcUHPgg+KKoouijzFQsUmxV7Fz0p0JQ+lZKXtSq1Kj5XRykbKS5SzlWuULym/UqGpOKhwVApVjqk8VIVVjVSDVVeq7lO9oTqupq7mpSZUq1C7oPZKXUHdRT1JvVT9jPqoBlXDSYOvUapxVuMFXZ7OpKfQy+kX6WOaqpremmLNvZpdmpNa+lphWhu0mrQeaxO1Gdrx2qXaHdpjOho6/jqrdBp0HuoSdBm6ibq7dDt1P+jp60XobdJr1Xuur6jP0s/Tb9DvNyAbOBukG9Qa3DXEGjIMkw13G942go2sjRKNqoxuGcPGNsZ8493G3QsxC+0WChbWLuwzIZkwTbJMGkwGTRVM/Uw3mLaavl6ksyh60fZFnYu+mVmbpZjtN3tkLmfuY77BvN38rYWRBceiyuKuJdnS03KtZZvlGytjK55VjdV9a6q1v/Um6w7rrza2NiKbRptRWx3bWNtq2z4GjRHE2MK4Yoexc7Vba3fK7pO9jX2m/TH7vxxMHJId6h2eL9ZfzFu8f/GQo5Yj23Gv44AT3SnW6WenAWdNZ7ZzrfNTF20XrssBlxGmITOJeZj52tXMVeTa7PrBzd5ttds5d5S7l3uhe5eHnEeYR6XHE08tzwTPBs8xL2uvlV7nvDHevt7bvftYaiwOq4415mPrs9rnoi/JN8S30vepn5GfyK/dH/b38d/h3x+gGyAIaA0EgazAHYGPg/SD0oN+W4JdErSkasmzYPPgVcGdIdSQFSH1IROhrqHFoY/CDMLEYR3hlPCY8LrwDxHuESURA5GLIldHXo9SjuJHtUXjosOjD0SPL/VYunPpcIx1TEHMvWX6y3KWXV2uvDxl+ekVlBXsFcdjMbERsfWxX9iB7Fr2eBwrrjpujOPG2cV5yXXhlnJHeY68Et5IvGN8SfzzBMeEHQmjic6JZYmv+G78Sv6bJO+kPUkfkgOTDyZPpUSkNKXiU2NTTwrkBMmCi2nqaTlp3UJjYYFwIN0+fWf6mMhXdCADyliW0ZZJQ4ajG2ID8Q/iwSynrKqsj9nh2cdzZHMEOTdyjXI3547keeb9shK9krOyY5XmqvWrBlczV+9dA62JW9OxVntt/trhdV7rDq0nrk9ef3OD2YaSDe83Rmxsz1fLX5c/9IPXDw0F0gWigr5NDpv2/Ij+kf9j12bLzRWbvxVyC68VmRWVFX3Zwtly7Sfzn8p/mtoav7Wr2Ka4Zht2m2Dbve3O2w+VyJbklQzt8N/RUkovLSx9v3PFzqtlVmV7dhF3iXcNlPuVt1XoVGyr+FKZWNlb5VrVVK1avbn6w27u7p4al5rGPWp7ivZ8/pn/8/29XntbavVqy/Zh92Xte7Y/fH/nL4xf6g4oHyg68PWg4ODAoeBDF+ts6+rqVeuLG+AGccPo4ZjDt4+4H2lrNGnc26TQVHQUHBUfffFr7K/3jvke6zjOON54QvdEdTO1ubAFasltGWtNbB1oi2rrPulzsqPdob35N9PfDp7SPFV1Wv508RnimfwzU2fzzo6fE557dT7h/FDHio5HFyIv3L245GLXJd9LVy57Xr7Qyew8e8Xxyqmr9ldPXmNca71uc73lhvWN5pvWN5u7bLpabtnearttd7u9e3H3mR7nnvN33O9cvsu6e703oLf7Xti9+30xfQP3ufefP0h58OZh1sPJR+v6Mf2Fj2Uelz1RfVL7u+HvTQM2A6cH3QdvPA15+miIM/Tyj4w/vgznPyM/KxvRGKl7bvH81Kjn6O0XS18MvxS+nHxV8Kfsn9WvDV6f+MvlrxtjkWPDb0Rvpt5ueaf07uB7q/cd40HjTyZSJyY/FH5U+njoE+NT5+eIzyOT2V9wX8q/Gn5t/+b7rX8qdWpKyBaxZ0YBFKJwfDwAbw8CQI4CgHobAOLS2Zl6RqDZ74AZAv+JZ+fuGbEBYF8fAKErAfC7CUBFJTLSIvEpMQAEURC7A4AtLSU6N//OzOrTInMY+SJ5am1pG9Ffkw/+KbNz/Hd1/3MF01GtwD/XfwGWfAjpcHSG9AAAADhlWElmTU0AKgAAAAgAAYdpAAQAAAABAAAAGgAAAAAAAqACAAQAAAABAAAAgKADAAQAAAABAAAAgAAAAABrRiZNAAAGa0lEQVR4Ae2dy24cRRSGq8rjFZEQK4h5goBYRXgiZQNSotjGZukLspACkWHFM+QVEBsih4sUJ7YjEBIKHi+AbTxmEyTIG3Bbhw3xuIuqcRp3t8d4+py+1el/JGu6231q6vz/55r29KkapfCAAlAACkABKAAFoAAUgAJQAApAASgABdqigC4sUav09PbMmrbmPaXtq67d5wpru4KGIqV+N1p/1F/a+bqCl2vMSxQCwOXNq1MDO7GhjH6zMZkROmKtGhilVvdWetuE8CBDXL7Mx82b5qnu3A3dfK+C1qoTKXu3uz2zylQlmHA2ANMX9tdcI28Ek/EZHdVaT9hIf3Fpc3bpjFNF/LrDzUJH6rpKvpFo/Z067Lzff+fbv7htVxHf3Zq12dcZjgRWbTgIlPS3A/YIYJV9JSlgpNWNUMxP9ju7ffR2MIRA9EjABsAJdS4p3k+LO38m90Pb9heCcZ/bAAEbgFgsKc/u3WzlJARyLwwBQIbc/krvq5MQ+AtD9aXE/w4AQAYAv9smCADACADaBAEAOAWAtkAAAP4HgDZAAADOAEA6BK0HwEb2SZKB7r23X0zux9v+wtCJtZr+FzH8j41bD4Ay9nFssn+25mD94p1r55PH4m3/sfBJCPwNpHA/MWTfC4jFCfXZWH3PatWN++8+A1joTJoFd48gPpR69jcOkrc+/C/jewfd7blBaPUErR8BXnhe31IqepRymbDjIbBR9DEhtNaQ1gPQm+v9Y8zkvKti+rFWJ2p68dYD4HV/uPjgt/7i7hX3V7ymrHroLvT+zuuHLylT2nyYN67u81t/DfCfAVrZPdVbd/v+pzUPjACtsXp0ogBgtC6tOQoAWmP16ERxDTBal7GPTm/NzbuyuFvuL2lq7CB3YlPmIWAEyOPaqHNt9Gle830zPsZ9DL1Vd/UxABhlao5jroz85Rynp049qjmst9wMAKQsqX6n7nkIuAYo2PP+ci97qyD1CqfPQxiOBJP9pd2NVEDJOxgBShZ43OaPRoLqC08BwLgOlXRe3fUFAKAkY8dt9mQJerUTVAHAuE6VdF7dJegAoCRj8zRbJwQAII9TJZ5bFwQAoERT8zZdBwQAIK9LJZ9fNQQAoGRDKc1XCQEAoDjEiMmWm9U9DwEAMMwkhero12ScNge3X78/91LyWLxdxTwE3AuI1a7oOTsPwc0zmDeR/YMyD2F6c+bp/sruN5yuYwTgqEeIHc5DsPpnQmgqxN9Kdgc+SR0k7AAAgmickOE8hAnzVlPmIQAAjpvE2CbNQ8A1ANFEdlhD5iFgBGA7GXYDACBs/9i9BwBsCcNuANcAgfkXz0Pw3dZKf7C/vPOAkwJGAI56dcQ+m4fgjJtSbpvbBQDAVbDi+OQ8hOQ2tRsAgKqckDgAIMRIahoAgKqckDgAIMRIahoAgKqckDgAIMRIahoAgKqckDgAIMRIahoAgKqckDgAIMRIahoAgKqckDgAIMRIahoAgKqckDgAIMRIahoAgKqckDgAIMRIahoAgKqckDgAIMRIahoAgKqckDgAIMRIahoAgKqckDgAIMRIahoAgKqckDgAIMRIahoAgKqckDgAIMRIahoAgKqckDgAIMRIahoAgKqckDgAIMRIahoAgKqckDgAIMRIahoAgKqckDg2AO7rT58ktTht9evkOVK2L29eTX1fcFaLEPJkA6CMfZxM1JqD9Yt3rp1PHpO47XMcaHM7mZtbsiW1Enjyd03dZq8Sll392n0N2kJn0iyctvp1U4Uool8OgM+KaKfKNtgjwHD1axU9qrLTjXytSH+/t7TTPgCGq1+byfmmrH5dBxxu1PthcHj4rlu4zy3/H9aD/Rbg0/WrX7vUr1y6P3vDRuq6U+E1t579ubCkyNdbf8Hnhvxf3M/nw7/8AM33GRcCwFC6ila/zn779lnf1p3PVuLZy8S4BoSxrwEakAO6wFAAADDEkxAKACS4yMgBADDEkxAKACS4yMgBADDEkxAKACS4yMgBADDEkxAKACS4yMgBADDEkxAKACS4yMgBADDEkxAKACS4yMgBADDEkxAKACS4yMghOACylbeoQma470KDAwBVyMeGF1GFXFxF0HG/St1CFfKxvEVUIQc3AqAK+RkABVUhBwcAqpD9t4YXV4Xs2gr0YZVGFXKg3qHbUAAKQAEoAAWgABSAAlAACkABKAAFoEAtCvwLqwwMsw0bYoQAAAAASUVORK5CYII=;fontStyle=1;align=left;" parent="1" vertex="1">
          <mxGeometry x="-241" y="8" width="75" height="75" as="geometry" />
        </mxCell>
        <mxCell id="yxJsiBhAxNLMxBTyAHPI-21" style="edgeStyle=orthogonalEdgeStyle;rounded=0;orthogonalLoop=1;jettySize=auto;html=1;dashed=1;fontStyle=1" parent="1" source="JKClMGUKZ1o02f39TSCT-7" target="JKClMGUKZ1o02f39TSCT-4" edge="1">
          <mxGeometry relative="1" as="geometry">
            <Array as="points">
              <mxPoint x="31" y="-182" />
            </Array>
            <mxPoint x="30.5" y="-11" as="sourcePoint" />
            <mxPoint x="-152" y="-182.25" as="targetPoint" />
          </mxGeometry>
        </mxCell>
        <mxCell id="yxJsiBhAxNLMxBTyAHPI-31" style="edgeStyle=orthogonalEdgeStyle;rounded=0;orthogonalLoop=1;jettySize=auto;html=1;entryX=1;entryY=0.25;entryDx=0;entryDy=0;dashed=1;fontStyle=1" parent="1" source="yxJsiBhAxNLMxBTyAHPI-17" target="yxJsiBhAxNLMxBTyAHPI-30" edge="1">
          <mxGeometry relative="1" as="geometry">
            <Array as="points">
              <mxPoint x="322" y="11" />
              <mxPoint x="322" y="-38" />
            </Array>
          </mxGeometry>
        </mxCell>
        <mxCell id="yxJsiBhAxNLMxBTyAHPI-37" value="Question&lt;br style=&quot;border-color: var(--border-color);&quot;&gt;" style="edgeLabel;html=1;align=left;verticalAlign=middle;resizable=0;points=[];fontStyle=1" parent="yxJsiBhAxNLMxBTyAHPI-31" vertex="1" connectable="0">
          <mxGeometry x="0.534" relative="1" as="geometry">
            <mxPoint x="-24" y="-24" as="offset" />
          </mxGeometry>
        </mxCell>
        <mxCell id="JKClMGUKZ1o02f39TSCT-6" style="edgeStyle=orthogonalEdgeStyle;rounded=0;orthogonalLoop=1;jettySize=auto;html=1;entryX=0.5;entryY=0;entryDx=0;entryDy=0;dashed=1;" edge="1" parent="1" source="yxJsiBhAxNLMxBTyAHPI-17" target="JKClMGUKZ1o02f39TSCT-1">
          <mxGeometry relative="1" as="geometry">
            <Array as="points">
              <mxPoint x="410" y="-320" />
              <mxPoint x="-391" y="-320" />
            </Array>
          </mxGeometry>
        </mxCell>
        <mxCell id="yxJsiBhAxNLMxBTyAHPI-17" value="Flask App" style="shape=image;verticalLabelPosition=bottom;labelBackgroundColor=default;verticalAlign=top;aspect=fixed;imageAspect=0;image=data:image/png,iVBORw0KGgoAAAANSUhEUgAAAIAAAACACAYAAADDPmHLAAAKsWlDQ1BJQ0MgUHJvZmlsZQAASImVlwdUU+kSgP9700NCgASkE3oTpBNASuihSwdRCUmAUEIIhGZXFldwRRGRJq7oqoCCq1JkrViwoqCIBV2QRURdFwtYUHkXOAR333nvnTc5c/4vc+efmf+ef86ZCwCZxhYKU2AZAFIFmaJgL1d6ZFQ0HTcCCAACZGAHIDYnQ8gMCvIDiMytf5eJe4gvIndMpmP9+/P/KrJcXgYHACgI4ThuBicV4ROIjnGEokwAUPsRu3Z2pnCaryBMEyEFItw/zQmzPDbNcTOMRs/4hAa7IawIAJ7EZosSACDpIHZ6FicBiUNyR9hMwOULEEb+A6fU1DQuwkheYID4CBGejs+I+y5Owt9ixklistkJEp49y4zg3fkZwhR27v/5Ov63pKaI53LoIUpKFHkHIytSF3Q/Oc1XwoK4gMA55nNn/Gc4UewdNsecDLfoOeay3X0le1MC/OY4nu/JksTJZIXOMS/DI2SORWnBklzxIjfmHLNF83nFyWESeyKPJYmflxgaMcdZ/PCAOc5IDvGd93GT2EXiYEn9PIGX63xeT8nZUzO+Oy+fJdmbmRjqLTk7e75+noA5HzMjUlIbl+fuMe8TJvEXZrpKcglTgiT+vBQviT0jK0SyNxO5kPN7gyTvMIntEzTHwB14AD/kRwdhwAJYIWoOvIFHJi9n+o4CtzRhroifkJhJZyJdxqOzBBzThXQLMwtLAKZ7dvZKvAue6UVI4cy8LQ3pIcYE0ifb521xpQC0FiCpH87bdGoAoOQD0NLBEYuyZm3T7QQwgAgogAaUgDrQBgbABKnNBjgAF6RiHxAIQkEUWA44IBGkAhHIBqvAelAAisA2sBNUgj1gHzgEjoBjoBWcAufBZXAd3Aa94BEYAMPgJRgDE2ASgiAcRIaokBKkAelCxpAFxICcIA/IDwqGoqBYKAESQGJoFbQRKoJKoEpoL1QH/QqdhM5DV6Fu6AE0CI1Cb6HPMAomwTRYDdaDF8EMmAn7wqHwMjgBTofz4Hx4K1wO18KH4Rb4PHwd7oUH4JfwOAqgpFAKKE2UCYqBckMFoqJR8SgRag2qEFWGqkU1otpRnag7qAHUK9QnNBZNRdPRJmgHtDc6DM1Bp6PXoLegK9GH0C3oi+g76EH0GPobhoxRxRhj7DEsTCQmAZONKcCUYQ5gmjGXML2YYcwEFotVwOpjbbHe2ChsEnYldgt2N7YJew7bjR3CjuNwOCWcMc4RF4hj4zJxBbgK3GHcWVwPbhj3ES+F18Bb4D3x0XgBfgO+DF+PP4PvwY/gJwkyBF2CPSGQwCXkEooJ+wnthFuEYcIkUZaoT3QkhhKTiOuJ5cRG4iViP/GdlJSUlpSd1BIpvtQ6qXKpo1JXpAalPpHkSEYkN1IMSUzaSjpIOkd6QHpHJpP1yC7kaHImeSu5jnyB/IT8UZoqbSrNkuZKr5Wukm6R7pF+TSFQdClMynJKHqWMcpxyi/JKhiCjJ+Mmw5ZZI1Mlc1KmT2ZcliprLhsomyq7RbZe9qrsczmcnJ6chxxXLl9un9wFuSEqiqpNdaNyqBup+6mXqMM0LE2fxqIl0YpoR2hdtDF5OXkr+XD5HPkq+dPyAwooBT0FlkKKQrHCMYV7Cp8XqC1gLuAt2LygcUHPgg+KKoouijzFQsUmxV7Fz0p0JQ+lZKXtSq1Kj5XRykbKS5SzlWuULym/UqGpOKhwVApVjqk8VIVVjVSDVVeq7lO9oTqupq7mpSZUq1C7oPZKXUHdRT1JvVT9jPqoBlXDSYOvUapxVuMFXZ7OpKfQy+kX6WOaqpremmLNvZpdmpNa+lphWhu0mrQeaxO1Gdrx2qXaHdpjOho6/jqrdBp0HuoSdBm6ibq7dDt1P+jp60XobdJr1Xuur6jP0s/Tb9DvNyAbOBukG9Qa3DXEGjIMkw13G942go2sjRKNqoxuGcPGNsZ8493G3QsxC+0WChbWLuwzIZkwTbJMGkwGTRVM/Uw3mLaavl6ksyh60fZFnYu+mVmbpZjtN3tkLmfuY77BvN38rYWRBceiyuKuJdnS03KtZZvlGytjK55VjdV9a6q1v/Um6w7rrza2NiKbRptRWx3bWNtq2z4GjRHE2MK4Yoexc7Vba3fK7pO9jX2m/TH7vxxMHJId6h2eL9ZfzFu8f/GQo5Yj23Gv44AT3SnW6WenAWdNZ7ZzrfNTF20XrssBlxGmITOJeZj52tXMVeTa7PrBzd5ttds5d5S7l3uhe5eHnEeYR6XHE08tzwTPBs8xL2uvlV7nvDHevt7bvftYaiwOq4415mPrs9rnoi/JN8S30vepn5GfyK/dH/b38d/h3x+gGyAIaA0EgazAHYGPg/SD0oN+W4JdErSkasmzYPPgVcGdIdSQFSH1IROhrqHFoY/CDMLEYR3hlPCY8LrwDxHuESURA5GLIldHXo9SjuJHtUXjosOjD0SPL/VYunPpcIx1TEHMvWX6y3KWXV2uvDxl+ekVlBXsFcdjMbERsfWxX9iB7Fr2eBwrrjpujOPG2cV5yXXhlnJHeY68Et5IvGN8SfzzBMeEHQmjic6JZYmv+G78Sv6bJO+kPUkfkgOTDyZPpUSkNKXiU2NTTwrkBMmCi2nqaTlp3UJjYYFwIN0+fWf6mMhXdCADyliW0ZZJQ4ajG2ID8Q/iwSynrKqsj9nh2cdzZHMEOTdyjXI3547keeb9shK9krOyY5XmqvWrBlczV+9dA62JW9OxVntt/trhdV7rDq0nrk9ef3OD2YaSDe83Rmxsz1fLX5c/9IPXDw0F0gWigr5NDpv2/Ij+kf9j12bLzRWbvxVyC68VmRWVFX3Zwtly7Sfzn8p/mtoav7Wr2Ka4Zht2m2Dbve3O2w+VyJbklQzt8N/RUkovLSx9v3PFzqtlVmV7dhF3iXcNlPuVt1XoVGyr+FKZWNlb5VrVVK1avbn6w27u7p4al5rGPWp7ivZ8/pn/8/29XntbavVqy/Zh92Xte7Y/fH/nL4xf6g4oHyg68PWg4ODAoeBDF+ts6+rqVeuLG+AGccPo4ZjDt4+4H2lrNGnc26TQVHQUHBUfffFr7K/3jvke6zjOON54QvdEdTO1ubAFasltGWtNbB1oi2rrPulzsqPdob35N9PfDp7SPFV1Wv508RnimfwzU2fzzo6fE557dT7h/FDHio5HFyIv3L245GLXJd9LVy57Xr7Qyew8e8Xxyqmr9ldPXmNca71uc73lhvWN5pvWN5u7bLpabtnearttd7u9e3H3mR7nnvN33O9cvsu6e703oLf7Xti9+30xfQP3ufefP0h58OZh1sPJR+v6Mf2Fj2Uelz1RfVL7u+HvTQM2A6cH3QdvPA15+miIM/Tyj4w/vgznPyM/KxvRGKl7bvH81Kjn6O0XS18MvxS+nHxV8Kfsn9WvDV6f+MvlrxtjkWPDb0Rvpt5ueaf07uB7q/cd40HjTyZSJyY/FH5U+njoE+NT5+eIzyOT2V9wX8q/Gn5t/+b7rX8qdWpKyBaxZ0YBFKJwfDwAbw8CQI4CgHobAOLS2Zl6RqDZ74AZAv+JZ+fuGbEBYF8fAKErAfC7CUBFJTLSIvEpMQAEURC7A4AtLSU6N//OzOrTInMY+SJ5am1pG9Ffkw/+KbNz/Hd1/3MF01GtwD/XfwGWfAjpcHSG9AAAADhlWElmTU0AKgAAAAgAAYdpAAQAAAABAAAAGgAAAAAAAqACAAQAAAABAAAAgKADAAQAAAABAAAAgAAAAABrRiZNAAAKV0lEQVR4Ae1dbYxcVRl+zuxHuzu73V0KbVkwUCqW8EOsJmoMUZYKNZIYY0KDW2oU40c0JJpQKIkm+8NA7Ybwo4rBRAnS2mZJFKOCgVKK4kdqWip+pNZurWg/aNnu985+zRyfd6eTnbn3zufOYc9O3zc7mXvPec9z3vu8zz3n3HM3GUBNGVAGlAFlQBlQBpQBZUAZUAaUAWVAGVAGlAFlQBlQBpQBZUAZUAZqmQHj8uL6ttk1KSCerEO7y35qFbsuiaEYML6515xzdY1VE8Dz99tlF5fjjpjBRgvcyoDX89PqKvDLDHcUFscQw2tIYX/HJF7+5C4zVQ0OFiyAZ7bbd5sUvslg7iHYFdUISjEKM8Ab7KKx2FsHPH5Pr+kv7F24tmIB7H3QdiYtvguDzxKEsai90wxQCEkKYU+qAdu3PmLOVtJ/RQLY/aD9qjFMvsWKSjrVNlVmwGCEudi2Zaf5YbnIZQngJw/YeF0dnmJnd5fbkfq7Z4AL7n0TzfjiV3rMRKm9lSyAPdtth53Fr0wMHykVXP3eeQasxaFYCnd1P2beLqX3kgTQ95Btm7E4SMD3lQKqPovLAEeC100Ct927y4wUi4SPmYXtyS/bhtkUnqOXJr8wVd7UMqkbTBOek9wVC6qoAFrb8ag1uK0YkNZ7x0BXaxu+UyyqglPAT7fb21PceKBTQb9inWj94jDAx0Qbs+jq7jWv5osg7wjQ12MbU0l8X5Ofjzr/yyV3NoYnCk0FeQUwPYH7+Kx/k/+XqREWZMDi5ngHPp/PJ3Jof6XH1p+ZwHE2WpuvYaHyWD3fAK0GmlYCExf4NuMtjkVcmpZjhnuLLYJxJTEGiMHXITZZDgLlT3nHVxGDn8lBYnCvLDVbHkZNeFuc7IxjfVePCV09UxW2cwlsYmnZya9rZKM7gas/mCY/gyykn/4DcOoAkxgKIeOV/jaM6PrbgWu52yDHGZPkn/0z8O8Xuf85nSmN/pbEX/tR4LqPAbGsdbBgnP8LcOJ5YkxGt63JUoMbTidwB6/theD1ZVE8X5Wy2Dp/VtrR8g7gvV8Alke8DpIR4V1MyEpOKG/8GJgei8ZsaAFuuQ9o5h0bNBkROj8MdLwH+CsxJoeCHunzuuXEYBwt14TrBWP1+4H2dcR4miPL+bBPrZZwg+hzvLaQAHiv5Frf3baOzp/ILS18xrUC1n8mOvnZLSWxN346uyT3+MZPRSc/26uJAruJG9HSZ5Stuys6+dm+y9ouYVAQl4vxaWCT5DZ4vSEBzKzFB0guKSrdVnOLqG1t2H9mPFwmo8BK+U+BgEn5lTcHCnk6h8HnmWxbcR2w6pbskvRx2/XAmg3h8pkJTj0BjJarOaJ8KOxbsyUGHcm1CLETEgAJKHvHr+2GXNpkiJdFV0Ocwyx3pGcTufUyBAetPYAhbaStYCQ43AenjVIwZK0gC9CGZrYfAaaIk23BPrPravGYN0Eot2EBVPDo1xqYbxNMnKwJxJq5ipcVfLYF/aUuWCZtpK1YE7EEM9uC/lIXnPfHzqSfRqROhv3JYTmatyiM+doaPIrIbUgAVMmaxbj0wAjNN865FjzPrb10VsQpz7IhEqoWC/kQFMptSAAkqez/4xvlnZZt8vyfuJguGb/AuzDQ7cj/sr3Tx3K3ZlsL22TuesHKjAYZn9FSMDrnR58p3v0yCmTb6Onss9o/5gowlNuQAHjrLSuXiuH+3BaN7EZW67KAi18F1Dfl1g+dzD2Xs6ETuWXSRjaBZAEnU0BjS279YKDPOYwAruxLiPgEo3EFBdBeHCPXo7bOOLoHMsF9kmpc4rmjwGAggYIrC7igDRzjfzT+M1gKDLDswt/D5bKAC76KEgGdfyPsO3wKOHc4XC4YwcdGGbXOHgr7Xm4lVRGATNj/+gWH7IHC9MnGy/Gf5/c58cv0qj2/BxdynA6O/4weeeb7fm51FBvap/hEcOzZ8reWC8W1VOuqIwBevTz2HfkecOaPYWKTM8B/fwscfuLSc30etmbGiPED4M1Xw3v2soV85k/EYB/5dgEFVrZ4jz7Jbef9PGa/2SZbwTJCHN5FsXJtosbpuZokCOEnfg30/yY9984tBnnXj/NT6ssgSfSpl4D/HCDGKi7+uIaQ/YC5F0pMYCkmfb15MC06aS87kCLQMT5aFnsXUQp+LflUVQAZYuROG+MKWz6V2hzGWWLwU6mJEEQ48lGLZqBqU0A0vJb6zoAKwPcMOY5PBeCYYN/hVQC+Z8hxfCoAxwT7Dq8C8D1DjuNTATgm2Hd4FYDvGXIcnwrAMcG+w6sAfM+Q4/hUAI4J9h1eBeB7hhzHpwJwTLDv8CoA3zPkOD4VgGOCfYdXAfieIcfxqQAcE+w7vArA9ww5jk8F4Jhg3+FVAL5nyHF8KgDHBPsOrwLwPUOO41MBOCbYd3gVgO8ZchyfCsAxwb7DqwB8z5Dj+FQAjgn2HV4F4HuGHMenAnBMsO/wKgDfM+Q4PhWAY4J9h1cB+J4hx/GpABwT7Du8CsD3DDmOTwXgmGDf4VUAvmfIcXwqAMcE+w6vAvA9Q47jUwE4Jth3eBWA7xlyHJ8KwDHBvsOrAHzPkOP4VACOCfYdXgXge4Ycx6cCcEyw7/AqAN8z5Dg+FYBjgn2HVwH4niHH8akAHBPsO7wKwPcMOY5PBeCYYN/hVQC+Z8hxfCoAxwT7Dq8C8D1DjuMLC8BgynGfCr9IDPDncxPBrkMC4C+yjgad9Lw2GOCPR/O3WXMtJAD+fPwCfqoxF1zPvGOAP5mdayEBsDrit71zG+nZ0mSAN3cotyEB2BheX5qXp1EXY8DWhXMbEkBjP44QaKgYmNYvMQYsBhv6cTQYdUgAm581Sf7mMn//W63GGHhBchu8ppAAxCFm8UzQUc+XNgOc/yNzGimAzjhehMXJpX3JGn2GAY7o/fWn8FLmPPs7UgBdPWbWxLAz21GPly4DTPKjUcO/XFGkAKSivglPweAfcqy2dBng0P+3zmY8ne8K8gpgc4+ZThl8nTuD/FNbkgxYpJIWX5MRPV/8eQUgDbbuMAe5IOzN11jL/WaAd+7Orb3md4WiLCgAaTg6jG/x65VCIFrnJQMvXxPHt4tFximiuO2+366wTThItWwo7q0eHjBwxCbQde8uM1IslqIjgAAIUCyGjTz8fTFArV9cBvjG7xC3ezaVknyJtCQBiOOWHWZwrBl38plyn5yr+ccAc7NnPI6u7sfM26VGV9IUEATb/ZD9ElLo5T8YtAXr9HxRGJB3Nw9s2Wl+VG7vFQlAOunbZtfMWuzgo+IWCqG+3I7Vf+EMcLifNdy2N414uPsR81YliBULINPZvm12HZ81v8HXyN0EuyJTrt8OGbAY4O7MXt52j3NqXtCW/YIFkLnMvh7bOJ3ARiry41TmrSxfr1NEhp2FfZPPYa7WjnFP5jUmfn99HAdko25hqOnWVRNAVDB9D9urZixaWdcRVa9lRRkYNDMYKWdRVxRRHZQBZUAZUAaUAWVAGVAGlAFlQBlQBpQBZUAZUAaUAWVAGVAGlAFl4LJi4P+gV1bkBaa2xgAAAABJRU5ErkJggg==;labelPosition=center;align=center;fontStyle=1" parent="1" vertex="1">
          <mxGeometry x="372" y="-11" width="75" height="75" as="geometry" />
        </mxCell>
        <mxCell id="yxJsiBhAxNLMxBTyAHPI-35" style="edgeStyle=orthogonalEdgeStyle;rounded=0;orthogonalLoop=1;jettySize=auto;html=1;entryX=0;entryY=0.75;entryDx=0;entryDy=0;dashed=1;fontStyle=1" parent="1" source="JKClMGUKZ1o02f39TSCT-5" target="yxJsiBhAxNLMxBTyAHPI-17" edge="1">
          <mxGeometry relative="1" as="geometry">
            <mxPoint x="288" y="124" as="sourcePoint" />
          </mxGeometry>
        </mxCell>
        <mxCell id="yxJsiBhAxNLMxBTyAHPI-39" value="AI &lt;br&gt;Response" style="edgeLabel;html=1;align=left;verticalAlign=middle;resizable=0;points=[];fontStyle=1" parent="yxJsiBhAxNLMxBTyAHPI-35" vertex="1" connectable="0">
          <mxGeometry x="0.25" y="-2" relative="1" as="geometry">
            <mxPoint x="-20" y="87" as="offset" />
          </mxGeometry>
        </mxCell>
        <mxCell id="yxJsiBhAxNLMxBTyAHPI-32" style="edgeStyle=orthogonalEdgeStyle;rounded=0;orthogonalLoop=1;jettySize=auto;html=1;exitX=0;exitY=0.25;exitDx=0;exitDy=0;entryX=1;entryY=0.25;entryDx=0;entryDy=0;dashed=1;fontStyle=1" parent="1" source="yxJsiBhAxNLMxBTyAHPI-30" edge="1">
          <mxGeometry relative="1" as="geometry">
            <Array as="points">
              <mxPoint x="146" y="-38" />
              <mxPoint x="146" y="8" />
            </Array>
            <mxPoint x="68" y="7.75" as="targetPoint" />
          </mxGeometry>
        </mxCell>
        <mxCell id="yxJsiBhAxNLMxBTyAHPI-30" value="" style="shape=image;verticalLabelPosition=bottom;labelBackgroundColor=default;verticalAlign=top;aspect=fixed;imageAspect=0;image=data:image/png,iVBORw0KGgoAAAANSUhEUgAAAIAAAACACAYAAADDPmHLAAAKsWlDQ1BJQ0MgUHJvZmlsZQAASImVlwdUU+kSgP9700NCgASkE3oTpBNASuihSwdRCUmAUEIIhGZXFldwRRGRJq7oqoCCq1JkrViwoqCIBV2QRURdFwtYUHkXOAR333nvnTc5c/4vc+efmf+ef86ZCwCZxhYKU2AZAFIFmaJgL1d6ZFQ0HTcCCAACZGAHIDYnQ8gMCvIDiMytf5eJe4gvIndMpmP9+/P/KrJcXgYHACgI4ThuBicV4ROIjnGEokwAUPsRu3Z2pnCaryBMEyEFItw/zQmzPDbNcTOMRs/4hAa7IawIAJ7EZosSACDpIHZ6FicBiUNyR9hMwOULEEb+A6fU1DQuwkheYID4CBGejs+I+y5Owt9ixklistkJEp49y4zg3fkZwhR27v/5Ov63pKaI53LoIUpKFHkHIytSF3Q/Oc1XwoK4gMA55nNn/Gc4UewdNsecDLfoOeay3X0le1MC/OY4nu/JksTJZIXOMS/DI2SORWnBklzxIjfmHLNF83nFyWESeyKPJYmflxgaMcdZ/PCAOc5IDvGd93GT2EXiYEn9PIGX63xeT8nZUzO+Oy+fJdmbmRjqLTk7e75+noA5HzMjUlIbl+fuMe8TJvEXZrpKcglTgiT+vBQviT0jK0SyNxO5kPN7gyTvMIntEzTHwB14AD/kRwdhwAJYIWoOvIFHJi9n+o4CtzRhroifkJhJZyJdxqOzBBzThXQLMwtLAKZ7dvZKvAue6UVI4cy8LQ3pIcYE0ifb521xpQC0FiCpH87bdGoAoOQD0NLBEYuyZm3T7QQwgAgogAaUgDrQBgbABKnNBjgAF6RiHxAIQkEUWA44IBGkAhHIBqvAelAAisA2sBNUgj1gHzgEjoBjoBWcAufBZXAd3Aa94BEYAMPgJRgDE2ASgiAcRIaokBKkAelCxpAFxICcIA/IDwqGoqBYKAESQGJoFbQRKoJKoEpoL1QH/QqdhM5DV6Fu6AE0CI1Cb6HPMAomwTRYDdaDF8EMmAn7wqHwMjgBTofz4Hx4K1wO18KH4Rb4PHwd7oUH4JfwOAqgpFAKKE2UCYqBckMFoqJR8SgRag2qEFWGqkU1otpRnag7qAHUK9QnNBZNRdPRJmgHtDc6DM1Bp6PXoLegK9GH0C3oi+g76EH0GPobhoxRxRhj7DEsTCQmAZONKcCUYQ5gmjGXML2YYcwEFotVwOpjbbHe2ChsEnYldgt2N7YJew7bjR3CjuNwOCWcMc4RF4hj4zJxBbgK3GHcWVwPbhj3ES+F18Bb4D3x0XgBfgO+DF+PP4PvwY/gJwkyBF2CPSGQwCXkEooJ+wnthFuEYcIkUZaoT3QkhhKTiOuJ5cRG4iViP/GdlJSUlpSd1BIpvtQ6qXKpo1JXpAalPpHkSEYkN1IMSUzaSjpIOkd6QHpHJpP1yC7kaHImeSu5jnyB/IT8UZoqbSrNkuZKr5Wukm6R7pF+TSFQdClMynJKHqWMcpxyi/JKhiCjJ+Mmw5ZZI1Mlc1KmT2ZcliprLhsomyq7RbZe9qrsczmcnJ6chxxXLl9un9wFuSEqiqpNdaNyqBup+6mXqMM0LE2fxqIl0YpoR2hdtDF5OXkr+XD5HPkq+dPyAwooBT0FlkKKQrHCMYV7Cp8XqC1gLuAt2LygcUHPgg+KKoouijzFQsUmxV7Fz0p0JQ+lZKXtSq1Kj5XRykbKS5SzlWuULym/UqGpOKhwVApVjqk8VIVVjVSDVVeq7lO9oTqupq7mpSZUq1C7oPZKXUHdRT1JvVT9jPqoBlXDSYOvUapxVuMFXZ7OpKfQy+kX6WOaqpremmLNvZpdmpNa+lphWhu0mrQeaxO1Gdrx2qXaHdpjOho6/jqrdBp0HuoSdBm6ibq7dDt1P+jp60XobdJr1Xuur6jP0s/Tb9DvNyAbOBukG9Qa3DXEGjIMkw13G942go2sjRKNqoxuGcPGNsZ8493G3QsxC+0WChbWLuwzIZkwTbJMGkwGTRVM/Uw3mLaavl6ksyh60fZFnYu+mVmbpZjtN3tkLmfuY77BvN38rYWRBceiyuKuJdnS03KtZZvlGytjK55VjdV9a6q1v/Um6w7rrza2NiKbRptRWx3bWNtq2z4GjRHE2MK4Yoexc7Vba3fK7pO9jX2m/TH7vxxMHJId6h2eL9ZfzFu8f/GQo5Yj23Gv44AT3SnW6WenAWdNZ7ZzrfNTF20XrssBlxGmITOJeZj52tXMVeTa7PrBzd5ttds5d5S7l3uhe5eHnEeYR6XHE08tzwTPBs8xL2uvlV7nvDHevt7bvftYaiwOq4415mPrs9rnoi/JN8S30vepn5GfyK/dH/b38d/h3x+gGyAIaA0EgazAHYGPg/SD0oN+W4JdErSkasmzYPPgVcGdIdSQFSH1IROhrqHFoY/CDMLEYR3hlPCY8LrwDxHuESURA5GLIldHXo9SjuJHtUXjosOjD0SPL/VYunPpcIx1TEHMvWX6y3KWXV2uvDxl+ekVlBXsFcdjMbERsfWxX9iB7Fr2eBwrrjpujOPG2cV5yXXhlnJHeY68Et5IvGN8SfzzBMeEHQmjic6JZYmv+G78Sv6bJO+kPUkfkgOTDyZPpUSkNKXiU2NTTwrkBMmCi2nqaTlp3UJjYYFwIN0+fWf6mMhXdCADyliW0ZZJQ4ajG2ID8Q/iwSynrKqsj9nh2cdzZHMEOTdyjXI3547keeb9shK9krOyY5XmqvWrBlczV+9dA62JW9OxVntt/trhdV7rDq0nrk9ef3OD2YaSDe83Rmxsz1fLX5c/9IPXDw0F0gWigr5NDpv2/Ij+kf9j12bLzRWbvxVyC68VmRWVFX3Zwtly7Sfzn8p/mtoav7Wr2Ka4Zht2m2Dbve3O2w+VyJbklQzt8N/RUkovLSx9v3PFzqtlVmV7dhF3iXcNlPuVt1XoVGyr+FKZWNlb5VrVVK1avbn6w27u7p4al5rGPWp7ivZ8/pn/8/29XntbavVqy/Zh92Xte7Y/fH/nL4xf6g4oHyg68PWg4ODAoeBDF+ts6+rqVeuLG+AGccPo4ZjDt4+4H2lrNGnc26TQVHQUHBUfffFr7K/3jvke6zjOON54QvdEdTO1ubAFasltGWtNbB1oi2rrPulzsqPdob35N9PfDp7SPFV1Wv508RnimfwzU2fzzo6fE557dT7h/FDHio5HFyIv3L245GLXJd9LVy57Xr7Qyew8e8Xxyqmr9ldPXmNca71uc73lhvWN5pvWN5u7bLpabtnearttd7u9e3H3mR7nnvN33O9cvsu6e703oLf7Xti9+30xfQP3ufefP0h58OZh1sPJR+v6Mf2Fj2Uelz1RfVL7u+HvTQM2A6cH3QdvPA15+miIM/Tyj4w/vgznPyM/KxvRGKl7bvH81Kjn6O0XS18MvxS+nHxV8Kfsn9WvDV6f+MvlrxtjkWPDb0Rvpt5ueaf07uB7q/cd40HjTyZSJyY/FH5U+njoE+NT5+eIzyOT2V9wX8q/Gn5t/+b7rX8qdWpKyBaxZ0YBFKJwfDwAbw8CQI4CgHobAOLS2Zl6RqDZ74AZAv+JZ+fuGbEBYF8fAKErAfC7CUBFJTLSIvEpMQAEURC7A4AtLSU6N//OzOrTInMY+SJ5am1pG9Ffkw/+KbNz/Hd1/3MF01GtwD/XfwGWfAjpcHSG9AAAADhlWElmTU0AKgAAAAgAAYdpAAQAAAABAAAAGgAAAAAAAqACAAQAAAABAAAAgKADAAQAAAABAAAAgAAAAABrRiZNAAASTUlEQVR4Ae1dDWwcx3V+s/fPP0mUaEWSLZHUjylRskQ5Rd2mhSWlSOzWkZM2tdPKTRy5UZMGMdAiqQMXaJzETuC0QNHCSFvYgVPYTmQrcZzEbdLEtpykdotClkQrFEVLFGnqJ/r/oXi8/51+7xxC1O7s6Y7andu72wcQx52d3Xnz3rczb968mRHUIPTm0EiPlHI1SWOFFNQjpLnMlKKdhGgmMpsFiTmSZJJIJMmUE8IQ55E+RmQMkaC3hEmDTZH8nuXLl2fqSWSiniozvS779h26IR82boNCNwqSG/H7run3Z/S/lCkhjNfw7E5pmC+tu7H7/2b0Hh89VFcAeP3IkUQimbsDX/lH8YXfjq875KWsIbwxtCbfLhQKT9zcu+yQl2V59e66AMCugeHFYSP0WUnmVjTlaNL1EroWKYR4SRJ9pW9l16t6S7+20moaAPsOji3N5QoPCkH3oCLRaxOFS0+b8jUREg+v7en6sUtv9PQ1NQmAYlM/kX9ASPkAmvl4JRKayAs6nQnRmYxB53OCcqZBGZMoXRAUNSRFDKIYflvCJs2LmdQRk9QeKaCYSkpBXiFfxiOfXtvTPVThk1qzV1otrcypCtuzf/T3YZ0/hia3S3XfmnY2G6JDl0I0PBmmkYkQTeSh4QqJQXFDU56WNheouzlPS/B/WYCA0YiivhqRqUd7e3uzFRarJXvNAODgwYOxZD78NXS3n4HyS/Kdwte872KEdl+I0ttJ9+3AppCk1bNy1Dc7R50ARBn0RigcunvN8sXDZeTVmqWkILVyUqKw3fsPLzEEbUe7ekuJbGjaDfrZ6RjtvRChAsxzHbS4qUAbOjLU05aDu6AESRrH3W3rVnU9WyKX9lsledbOjaLA3YMjtxpCvkBSzFbcLiadheL/61ScfomvXsIUrwYtSBToffMBhNZc6eKF+PK6ns6/K51J311fA6D/wOHN0sSXL0RCJRL+yv/3bJR+cjJOWRhyfiAGwOaFaZoTLcGQaX7z/KmxT2zcuLGs/sPLevkWAP37R+/DuP7foHxlJ34sFaJnjzQVm30vBTSTd0cg1T9YkKLfnFvK7jO/FzHTH6m2cehLAPTvH/mISfIZ2HpKk52Nu+8dS1C+xEc2E8W5/Uwv7IIP35CiOIaVajK3Y5i4BfWsWk18B4D+A6ObTFP+J+z8mFVo3OR/52iiaORZ75V9DSMhbxYI7lv85kiamAJCPwPAUTgUpqZYMxod98QyN1qgrV2T1O7QJYCdf+lb1fWXZfPvckb3auoCY3sGRtbBlP455N9qfR338d8aa6ahS2Hrratem1B4JpuhTC5DuXwWCnf6IonC4Qi1t7ZjwOGeaFrCkj7elaSF8YKaV0mfx+jgUfVNb1Pdq+U18jkwMNCSFU27IPcbra/KYFz/jZFmOoJ+v1xiFWezaUplJimXg9LLfRD55rTNpQiA4CbF4Tv4eGeSeNhoJQDSNGTofWt7l7xsvef1tbKP9bpQ1ftzRuJfVcrnZv/psaaylc+KTmdSdO7iabo4cYGyFSpfxZsbaexqfnK0mX6lADHbOqZhPjMwMHLtU9YVMusLAOwdHNmGNneLlXduqbfD0j80UV6zn8/n6ML4WRpPXiz28db3lXPNX34EtoAXxCD497eb6ELOLnY0xfAi0Dd5YtGLsp3eqbUwFRP79h2eX4jQAZWj56cnY/QKHDzlUDI1QfxXCRlGiEIGK0OQETIobESoKd7kqhGo4mcRnEafXJqksLB3TJhXvqevp/MZ1XNepFUdAHsHDz+t+voPJ8P0BPr9EvZaUR5s4I0nx9HUXz1Si638aDRG0XAMxl6YDPUo0ws52975nnkZumNB2pYOSJykNPX09XVdsN30IMHeFnlQiNMr9x4Y3QgF/6n1fhIzdtvR75ej/AuXzpdUPgJEKB5LUPusufibRy2JVopGolVVPtf3tTMx2j9uNzS5KxBx8SWrTLy6rioAELb1CAwgWyv0oxMxuoR5+1KUL+TpHPp7/nWiRKyJ2mfPo7bmWRjj24Xt9Jyu9BfgzGK7wE7yk/CHdNnT3U+pGgB27x/+PUnit6xVGkXTv/t86eAebvb5yzdNtQONm/o5be3U2tyGPr78oaOVF6+vGeQONk4EzrDPeV0+v79qADBI/K21gtzk/+B4vOSYnZ047yjfPp7m98Vi8V+P40uDyFp2ta5fOxOh02mlGrbuHTqyyGu+lCV7XeieoeHfgKm9wVrOwKUI/Spd+ou9hCGeU7OfgBt3VvNsz614K9/Xcm3CRtmJGAYroWOMkczfb013+7oqADCkuFdVEQ7mKEXs1UvDu6ei5qYWNPk2D7Iqq+/S9l6MEoeu2ciU9zwnpeKGLeeME7QDAC7fKByfd1k5PoS+/+ikc125v5+YvGR9rHidwNi9Od6ivFcLidz1/eKMossSYuGKAyPv9bIO2gGQM5rvQMTsPGul3jinEMC0TBOT48pJnGg4Sq1NbdNy1ua//QhjU05vS+PPvKyRdgAgovcPrRXKmIIGx53drzm4eFVNPzty2lodI8Wsxfj6moeDg7CB7CQ379y501k49gcqStEPACk3WDkcQCwfg8CJJtNYs6mgFvT51fTmKVi6piQOZrWRoLb2+Z3vtqW7lKAVALxCl4RhG9q8VWKOv4AxP0/rWimCpj8eVYYKWrPWzPWhCYdoZiE2eVUJrQCAsbPRWhGeDmG/vxOl0ymlX6AFVn+9EQe9HJ20q0QKs04AQPJmq9JOIaTbye3L4EhneXHNlcRuXW4B6pGGk4pugMgmN7fqboebW29WvAfDP1u0zzEs2XIint/nLsBK8Xh9Nf3T63cspVAJ1kT0Hzp03fR8bv2vKM2tV9vfg40abADg1TxOxPF7NoKLLBEpL0bA9mwNJPDCVSVl7B+PMl+Fic7Sr/BFV8v+5ptvz4HXs8OarxQAOJzLShytI4pBHNY79XF9NiOUy9qwiLnHixpqA0AuLpXxbucU4VFTFVX5/Ou175+qM88NKEPGBM2fyuPmrzYAGLKgNNtTDvP+iNbHdK+9/4/4cF7fTYXwu9L2aiNVeDLRoREAIWUFsg4OoEJeKQUKhRz6SLe1UMX3qZxiWLuilN+1sqkNAFh5o6wA786hIl6royKjjvv/qfqqooQQ2qaU39QzM/3VBoCKGeQpMgU5LBdU5AySypGANgAgAkg5lxurgAMOH1SEEJZTz5rKw6uIrASbSCk/a75KrysQf6WvvjK/KQrKCvDGTCriBRrWiZ5YpHTAiOo9tZjGm1RZCROfSvlZ81V6rREAIeWqjQQWTqqIm/pZLbOLizX5q49H49SCIM9GoLjSzvWmBXD2w7os6UhanDAjdmXPjZjK9XJcfATx++2RuS5z4u/XhbBaaDZkYiXsIHDCmubGtbYW4KablpzH0P60lWneiy+gyxJoj0piENhIkif7DWoDAFcI6wBslegIAHCFrjtiav8HxUyb7K54cIYXWgGARdC2SlyPTRcDuiyBRQlFiyjkhbXLlp26nMu9/7QCAO7MXVbWuQVodTAErXkb4XpZS05VzTdUiW6kaQUApoN3WpnmSMClLUErwHLh4Z+qBRDSeMUqN7eutQKguHGyNI9ZmV/eGgCAZdKND0FpAJryZavM3LrWCoB3mA7ZWoHVbdki+t2qVK2+Z/1se/wDLOfxc6dG66ML+LVinrcqKAoYrsLmy41M7P7tUbWEhvi+lzuKam8BIjL5H9gO5oxV2Tdj5+1GpnX4AMIKbUjTfMpLuSiK9LI4It4aFcPB56ylsCGo2kLNmq8er+Hppt/pUDX/8vjBlV2eGYAsS+0A4EILJJ/kXyvdim3XG5H60PfzjqI2MsRTdwmhuGHLOeOEqgBgfc/SXYj3shmDK7G37gKn3TRnXEV/P8hWP583YCWEQyBWJvTP1nS3r6sCAK6EoPAj1sqwT+DOhSncaxx6z7wsziWye/+EkE+s71l83GtJVA0AxW1RJb1ureASnMtzc3tjGISzMOu36Tr71w+Z5DBv8g9W2XhxXTUAcGUQD/og9vyR1ordPj9d9+5hbuX4YAlV8Ack8nWcPzhqlYsX11UFwPqVXT/DIo+nrRVrwpFtf7J4EuFf1jv1c/3bczO0CjaPneSJQsz8gj3dm5SqAoCrFMqZn0O8Gw5qvpK6cBqXQ/N4ZcYavLoeO4bfvkDZ9MP+EX/97qVLL+qqVtUBsGZN90lDGso98d7bkaY1deYh5H7/HrRuKp8/do3/0dqVXd/WpXwup+oAYCbWrur8BryDtq6Au4C7ceTK8jqZLeTzBu/DmQEMAjvJE1FpbLWne5viCwBwFeEi/hSZ8oC1uvylbMEXU+teQvb1fwzK74grlC9lAUGwW3p7uzyJ+7PKdPq1bwAAF/EEVn3dzbNf0xnk/2P85XRN0I2qyRJrZh9ec8DLtm71aSFFdoXxwNqeTk9dvk5i8Z2dvWdwZANA8GM0/7ZFAHx6yPNH48UjYZ0q5Lf06+Dk4S/f6dAoOHy+jjiJT1eLb98BgAWxZ//IBxE99B2MA5UR8nxs3As4PQzeEl/Tagzz/uh6HBuHFkxN1T82zjddwHQB4Ri1F8gwtmFnSOVECAdOfGrZBPHX5Ufi+IYPLUrRliWTjsoH58/j4MiPYdFLVSvhyxZgSqn9g4c/AK/Ys2gJlJsCcZfAR8fy0TKqJdVT79H5y0fH3rkorVzcMY2PJ8+fGN3mZaDHtLJK/utrADDn/QOHfxfbo3wfDpI5TjU5lzUAgjj1V/HwaD4T8P3vStOKEoYqu70NIb6Isf4XneqiO933AGCB7BoYXhw2xLOYQ7yllIB4x+2dp6Laj4/fdN07ii8pTIxupCH/vK+ne0epOui+V5Jn3cyUKo/3y52zoPNhHPX6N+g3S/Kdwr67+9AasLE4lgxhUOEutWGN45pZWepDGBufAHY1ElLsEmFx900rlhy+Wl7d90sKUjcz5ZTXf2DkNuwc/xggsLSc/Nw9DOPcQf7jHUmdNqUs9S6O1etM5Ith2xy6dgOUXhqCU2+Tk1IYX4kWkn9f7VPCpziy/tYcALgCfOZATjT9FVYbPgRNVLRpIJ9IdgqgOIP9CS9mBYxHg3iLVm41eK8C/uNNK/i8X16nx4tX58B1W57CL4sX8/kvGoLuh4Nn5HKq//6rSQBMiZFP1oJd9Xk08feiIr7YOxa8/BzD14f7VnX/dIpPP//WNACmBNt/8OD1Zi78WXym98GBpNyObiqvF79s3ePE15/A2nhkbW/3L7wow6t31gUApoTz+pEjiUQydwdJ46OCzNswavB0Awz4KIYwgb89HA49tWb54uEpPmrpt64AMF3wuw+MLTSo8H7EnW1C8NkmtA4Lp9+fyf8IXElKU/w37IFXsOnVS5jG3j2T9/jpmboFgFXIeweHVyD+aDUMxxXoo/8CgOjkPDlsSGnAWuNDpHFYI/bpRTC2ECewH+ERTE+PwXPzFrINCUMORvKpvX615rkuM6GGAcB04ewZHN0BW+HDnPbLoben3yr+jy/8ri13bvCVw8bGpEsJGPAE1MgSCADQyNpH3QMABABocAk0ePUbygjcvHlrq4yF729tabo1EosWHUaZnH1xRiaTPZrLZL774o4nMANZ39QwANiw4aFwc8fR/8FEYiWHMD744nOPf7WeIdAwNkBrx/FbKlQ+nHzyM/WsfK5bwwAAk34LKlUmZvQqfqbSMqqdv2EAUG1B+7X8AAB+1YwmvgIAaBK0X4sJAOBXzWjiKwCAJkH7tZgAAH7VjCa+AgBoErRfiwkA4FfNaOIrAIAmQfu1mAAAftWMJr4CAGgStF+LCQDgV81o4isAgCZB+7WYAAB+1YwmvgIAaBK0X4sJAOBXzWjiKwCAJkH7tZgAAH7VjCa+AgBoErRfiwkA4FfNaOIrAIAmQfu1mAAAftWMJr4CAGgStF+LCQDgV81o4isAgCZB+7WYAAB+1YwmvgIAaBK0X4sJAOBXzWjiKwCAJkH7tZgAAH7VjCa+AgBoErRfiwkA4FfNaOKrYQCAfUCzlcoUO39X/EylZVQ7f8MAABtHH5+BsI/N4JmaeqRhAHDp5KI92Oz5bCXawQ5aL1WSvxbzNgwAXn31obwg47FylYTmvyAK9E/l5q/VfA0DAFZQQjY/ipMddpWjLJwc86UffvfxgXLy1nKehgLAjh3/mDLCxu04kHynk9KKX76kL/xwx+NfdspTT+kNs1GkRWniA3d94o+lNO+VZKzHhoB8KOUx7vO52W+EL39KHv8P7t9vuuXL7UIAAAAASUVORK5CYII=;fontStyle=1" parent="1" vertex="1">
          <mxGeometry x="196" y="-57" width="75" height="75" as="geometry" />
        </mxCell>
        <mxCell id="yxJsiBhAxNLMxBTyAHPI-41" style="edgeStyle=orthogonalEdgeStyle;rounded=0;orthogonalLoop=1;jettySize=auto;html=1;entryX=1;entryY=0.5;entryDx=0;entryDy=0;startArrow=classic;startFill=1;fontStyle=1" parent="1" source="yxJsiBhAxNLMxBTyAHPI-40" target="yxJsiBhAxNLMxBTyAHPI-17" edge="1">
          <mxGeometry relative="1" as="geometry" />
        </mxCell>
        <mxCell id="yxJsiBhAxNLMxBTyAHPI-48" value="Question" style="edgeLabel;html=1;align=center;verticalAlign=middle;resizable=0;points=[];fontStyle=1" parent="yxJsiBhAxNLMxBTyAHPI-41" vertex="1" connectable="0">
          <mxGeometry x="-0.3043" relative="1" as="geometry">
            <mxPoint x="-10" y="-19" as="offset" />
          </mxGeometry>
        </mxCell>
        <mxCell id="yxJsiBhAxNLMxBTyAHPI-49" value="Answer" style="edgeLabel;html=1;align=center;verticalAlign=middle;resizable=0;points=[];fontStyle=1" parent="yxJsiBhAxNLMxBTyAHPI-41" vertex="1" connectable="0">
          <mxGeometry x="0.1014" y="1" relative="1" as="geometry">
            <mxPoint x="4" y="13" as="offset" />
          </mxGeometry>
        </mxCell>
        <mxCell id="yxJsiBhAxNLMxBTyAHPI-40" value="Users" style="shape=image;verticalLabelPosition=bottom;labelBackgroundColor=default;verticalAlign=top;aspect=fixed;imageAspect=0;image=data:image/png,iVBORw0KGgoAAAANSUhEUgAAAIAAAACACAYAAADDPmHLAAAKsWlDQ1BJQ0MgUHJvZmlsZQAASImVlwdUU+kSgP9700NCgASkE3oTpBNASuihSwdRCUmAUEIIhGZXFldwRRGRJq7oqoCCq1JkrViwoqCIBV2QRURdFwtYUHkXOAR333nvnTc5c/4vc+efmf+ef86ZCwCZxhYKU2AZAFIFmaJgL1d6ZFQ0HTcCCAACZGAHIDYnQ8gMCvIDiMytf5eJe4gvIndMpmP9+/P/KrJcXgYHACgI4ThuBicV4ROIjnGEokwAUPsRu3Z2pnCaryBMEyEFItw/zQmzPDbNcTOMRs/4hAa7IawIAJ7EZosSACDpIHZ6FicBiUNyR9hMwOULEEb+A6fU1DQuwkheYID4CBGejs+I+y5Owt9ixklistkJEp49y4zg3fkZwhR27v/5Ov63pKaI53LoIUpKFHkHIytSF3Q/Oc1XwoK4gMA55nNn/Gc4UewdNsecDLfoOeay3X0le1MC/OY4nu/JksTJZIXOMS/DI2SORWnBklzxIjfmHLNF83nFyWESeyKPJYmflxgaMcdZ/PCAOc5IDvGd93GT2EXiYEn9PIGX63xeT8nZUzO+Oy+fJdmbmRjqLTk7e75+noA5HzMjUlIbl+fuMe8TJvEXZrpKcglTgiT+vBQviT0jK0SyNxO5kPN7gyTvMIntEzTHwB14AD/kRwdhwAJYIWoOvIFHJi9n+o4CtzRhroifkJhJZyJdxqOzBBzThXQLMwtLAKZ7dvZKvAue6UVI4cy8LQ3pIcYE0ifb521xpQC0FiCpH87bdGoAoOQD0NLBEYuyZm3T7QQwgAgogAaUgDrQBgbABKnNBjgAF6RiHxAIQkEUWA44IBGkAhHIBqvAelAAisA2sBNUgj1gHzgEjoBjoBWcAufBZXAd3Aa94BEYAMPgJRgDE2ASgiAcRIaokBKkAelCxpAFxICcIA/IDwqGoqBYKAESQGJoFbQRKoJKoEpoL1QH/QqdhM5DV6Fu6AE0CI1Cb6HPMAomwTRYDdaDF8EMmAn7wqHwMjgBTofz4Hx4K1wO18KH4Rb4PHwd7oUH4JfwOAqgpFAKKE2UCYqBckMFoqJR8SgRag2qEFWGqkU1otpRnag7qAHUK9QnNBZNRdPRJmgHtDc6DM1Bp6PXoLegK9GH0C3oi+g76EH0GPobhoxRxRhj7DEsTCQmAZONKcCUYQ5gmjGXML2YYcwEFotVwOpjbbHe2ChsEnYldgt2N7YJew7bjR3CjuNwOCWcMc4RF4hj4zJxBbgK3GHcWVwPbhj3ES+F18Bb4D3x0XgBfgO+DF+PP4PvwY/gJwkyBF2CPSGQwCXkEooJ+wnthFuEYcIkUZaoT3QkhhKTiOuJ5cRG4iViP/GdlJSUlpSd1BIpvtQ6qXKpo1JXpAalPpHkSEYkN1IMSUzaSjpIOkd6QHpHJpP1yC7kaHImeSu5jnyB/IT8UZoqbSrNkuZKr5Wukm6R7pF+TSFQdClMynJKHqWMcpxyi/JKhiCjJ+Mmw5ZZI1Mlc1KmT2ZcliprLhsomyq7RbZe9qrsczmcnJ6chxxXLl9un9wFuSEqiqpNdaNyqBup+6mXqMM0LE2fxqIl0YpoR2hdtDF5OXkr+XD5HPkq+dPyAwooBT0FlkKKQrHCMYV7Cp8XqC1gLuAt2LygcUHPgg+KKoouijzFQsUmxV7Fz0p0JQ+lZKXtSq1Kj5XRykbKS5SzlWuULym/UqGpOKhwVApVjqk8VIVVjVSDVVeq7lO9oTqupq7mpSZUq1C7oPZKXUHdRT1JvVT9jPqoBlXDSYOvUapxVuMFXZ7OpKfQy+kX6WOaqpremmLNvZpdmpNa+lphWhu0mrQeaxO1Gdrx2qXaHdpjOho6/jqrdBp0HuoSdBm6ibq7dDt1P+jp60XobdJr1Xuur6jP0s/Tb9DvNyAbOBukG9Qa3DXEGjIMkw13G942go2sjRKNqoxuGcPGNsZ8493G3QsxC+0WChbWLuwzIZkwTbJMGkwGTRVM/Uw3mLaavl6ksyh60fZFnYu+mVmbpZjtN3tkLmfuY77BvN38rYWRBceiyuKuJdnS03KtZZvlGytjK55VjdV9a6q1v/Um6w7rrza2NiKbRptRWx3bWNtq2z4GjRHE2MK4Yoexc7Vba3fK7pO9jX2m/TH7vxxMHJId6h2eL9ZfzFu8f/GQo5Yj23Gv44AT3SnW6WenAWdNZ7ZzrfNTF20XrssBlxGmITOJeZj52tXMVeTa7PrBzd5ttds5d5S7l3uhe5eHnEeYR6XHE08tzwTPBs8xL2uvlV7nvDHevt7bvftYaiwOq4415mPrs9rnoi/JN8S30vepn5GfyK/dH/b38d/h3x+gGyAIaA0EgazAHYGPg/SD0oN+W4JdErSkasmzYPPgVcGdIdSQFSH1IROhrqHFoY/CDMLEYR3hlPCY8LrwDxHuESURA5GLIldHXo9SjuJHtUXjosOjD0SPL/VYunPpcIx1TEHMvWX6y3KWXV2uvDxl+ekVlBXsFcdjMbERsfWxX9iB7Fr2eBwrrjpujOPG2cV5yXXhlnJHeY68Et5IvGN8SfzzBMeEHQmjic6JZYmv+G78Sv6bJO+kPUkfkgOTDyZPpUSkNKXiU2NTTwrkBMmCi2nqaTlp3UJjYYFwIN0+fWf6mMhXdCADyliW0ZZJQ4ajG2ID8Q/iwSynrKqsj9nh2cdzZHMEOTdyjXI3547keeb9shK9krOyY5XmqvWrBlczV+9dA62JW9OxVntt/trhdV7rDq0nrk9ef3OD2YaSDe83Rmxsz1fLX5c/9IPXDw0F0gWigr5NDpv2/Ij+kf9j12bLzRWbvxVyC68VmRWVFX3Zwtly7Sfzn8p/mtoav7Wr2Ka4Zht2m2Dbve3O2w+VyJbklQzt8N/RUkovLSx9v3PFzqtlVmV7dhF3iXcNlPuVt1XoVGyr+FKZWNlb5VrVVK1avbn6w27u7p4al5rGPWp7ivZ8/pn/8/29XntbavVqy/Zh92Xte7Y/fH/nL4xf6g4oHyg68PWg4ODAoeBDF+ts6+rqVeuLG+AGccPo4ZjDt4+4H2lrNGnc26TQVHQUHBUfffFr7K/3jvke6zjOON54QvdEdTO1ubAFasltGWtNbB1oi2rrPulzsqPdob35N9PfDp7SPFV1Wv508RnimfwzU2fzzo6fE557dT7h/FDHio5HFyIv3L245GLXJd9LVy57Xr7Qyew8e8Xxyqmr9ldPXmNca71uc73lhvWN5pvWN5u7bLpabtnearttd7u9e3H3mR7nnvN33O9cvsu6e703oLf7Xti9+30xfQP3ufefP0h58OZh1sPJR+v6Mf2Fj2Uelz1RfVL7u+HvTQM2A6cH3QdvPA15+miIM/Tyj4w/vgznPyM/KxvRGKl7bvH81Kjn6O0XS18MvxS+nHxV8Kfsn9WvDV6f+MvlrxtjkWPDb0Rvpt5ueaf07uB7q/cd40HjTyZSJyY/FH5U+njoE+NT5+eIzyOT2V9wX8q/Gn5t/+b7rX8qdWpKyBaxZ0YBFKJwfDwAbw8CQI4CgHobAOLS2Zl6RqDZ74AZAv+JZ+fuGbEBYF8fAKErAfC7CUBFJTLSIvEpMQAEURC7A4AtLSU6N//OzOrTInMY+SJ5am1pG9Ffkw/+KbNz/Hd1/3MF01GtwD/XfwGWfAjpcHSG9AAAADhlWElmTU0AKgAAAAgAAYdpAAQAAAABAAAAGgAAAAAAAqACAAQAAAABAAAAgKADAAQAAAABAAAAgAAAAABrRiZNAAAUx0lEQVR4Ae2dCZhVxZWAz32vmwYEuiUTjRFwQccFnSQjCSJxcHfMYsxM0DgIQi8gGEwmJpHoN4ZMvixm5nNUEoFeAFHDKGaiDiSjMWrcE7OMGULQRNQAJkEFmkWa7n7vzl/PRl9333vfqbu87oZ7+fj6vqpT55w6darq1KlTdUXSJ5VAKoFUAqkEUgmkEkglkEoglUAqgVQCqQRSCaQSSCWQSiCVQCqBVAKpBFIJpBJIJZBKIJVAKoFUAqkEUgmkEkglkEoglUAqgf1HAs5Aq8qsWe5fSYeMcR0Z6WbkIMO/k5fdjitbpVL+2NjovF6OOsHHYfm8fMBxJJPJyRsdIltdeFi2zHmtHPTjotGvFQAhVyLkSTTuma7IGfw9SWj4oMoD9wYwazMij7o5eeTwI+TJBQuczqAyNnlXTHcP76iUW8H/ccr1kh9KsEVc+Rk5z0hGHh81qkA/b0OjnLC9KlBO4n60Zs1wT85lpY4Gv5QedogfnCrdlb84GVmZc6WlpcVZqyrjA2QaP18pT6Nko31AeiUj4I20/grKLIf+H3oB9HFCv1KA2bXuRIR1Lb3no8glbt5cNy+r6blfb1zm/CyM3Ovq3Psof2GYspRx+bcm48o1S5Y560LiiL1Y3EIOxeDcGe57Oirk3xHQ1FAI7ArRGeUObIgvNjc7f9EWra1135t1ZBPwUWWWA8dSJytfwV75k5Z+UnAodN8+9fXupe0ZWV+mxjeVNQ04jellfUOte7G29pWO/E1XWW0RP7gsGQ1up6xlRDF2RJ8+UbU5NPPz5rlVe3fLLfTEWaGRxFCQ4WBR6w753KpVTnsQutl17t8zPf0oCCZEnovReGOmQr7MaMBCovxPn4wADKfD97wpa/q68Y246QFzaobJ6rlz3WFB4nez8hyNFbc172DkXs1q5YFp09zCkjaIhyTyyq4AM2a4NYyBjyD4s5OoUCicGTm3vU0eZtlZ7VfezNc01v1++RHTzxxcIav7QgnKqgD/PMUdUplFiI6cElFgsRencT+Iz+E+FHSwH3KWkleiuBv98iOlZ+QMowQo4dBIeCwLl1EBXGfHCLkd/k635LFs4BiGkwdlZbkfwaVLnVc7XTkVBf5BAtOB4Dg6g+lgsR/9JNLLZgQ21LmfpQI3RazEbso/SW818/HLML/d4MOQqyHtSIT3fuyKSbxH6kXg+AxLxO8G8WqWrjir3g/tkQnQr4X+siD6ceWVRQFw8Lwv78jPYXpQCMaNpfwAjDZu3ylrSlnrZnXRtls+Ap3Z9NTzQ9AT6O1FCcaH8RzGQR+ed2fy8qFyOIzKoACuU18rT9ArT7NtDHrW01lXrlqy1PmFbVkD39Dgmnl9IfPchBDlH29qkcmsE2Aj3BOdvvN34SjrSyVuAzTUyuW2jU8PNJs380eNlg+HbXwjgqYm59nRo+U06H+Dn7YNeXpDnVxm8IR9otIvh6Mo0RFgyhQ3WzMcL58jx2iFSOO/iTE0hTnwh9oyGjjj9UMDltnYB8C/iBIeH8duYij6eCtHjZGT46DvJ6NER4DqarnUsvH3opGfiLvxTeWbljp343+/BAVTO3PgZeymTTLFT3g26aHoO3J8XPT9eE1UARh05/oR9kqnd85FUA955cWRxpC8GhrX2uAi2ORKG/gg2FD0czIzCGfUvMSmAAygv6avPa9m0JG7m5qdS9TwEQAtt3VdRo5j8QS+GIFkt6KW9HM4oMYYH0Q3JDH9SG4EyMunLXjcSdDG5yzgI4FmMvJFpgLt5ouT75RYFdOSfpZt6H+KVOGAwokpAAaU2tfPsLy4nHvjDMUvYJs0B8ilWxb8ndMtIeIPW/qMpCZAJpEnEQUo+LNd3drbGGUdOVmYSO0CkKKgN1gYhBPNPkYAOussK/oZOWXBAkJgE3gSQZrLyUn0mioNv7hZHiOSNpkNlgAG8PK9Ao9PBoAUZw1+c7iMK06I+m5JfzirgeOi0vQqn4gCgFTPbEYe9GKsTGlq2qwd9XXSM6+mzzTwQT1aPWQiCsDQeqyWBXzuoQI0tfgD4VxCt5UPRqq6TkqUxjeppg/OUWq8FoCJKABIA2P3i/ljuvh98e9yvjsV8oKWHnO2uk5anDb0ma58g1W09LzgElGAvCuB4VXFjFRWcpCjj549eyxouzI8bjat6OcHkAJgr6oMQCPQbdtkb9yC1eIbO1ZPGxvAN1JIS68n3JAh0t4zze83I1DsCmhoJTIC4F7c5VeRnunvGfTW+b6e6eX4/fLL+pEKQe2Mm6eODqnR4sQbuUMLawOXlAKomd0zRA63YThOWKYfNW0MW3WdtDziETxUC4vBmMih16QUQH3iBgGcoBZCzIA0qpo2RtifYyZvht8PaHFC/zUtrA1cIgrA2affaZmgERKPevHjxcmZiB/dw7SmrpMOo5h96VMtYM2xtNifRBQgmxX14UcE+zEWxIntSvpLzHXyGUNb9xDTqK6TBqMJlsEL+kkNrIGpaE/GX5KIAjQ2ygbmLNU0QMuPnV1X/lDx+nqZTOWP1DQAo9SfmpvlZQ2sFmbkCDmXYf0wJfwri1c4m5WwVmCJKEAhkNLRu3gZCr9kxXUMwAR6zFejcU1dwgeHetGhztd6pXulcaxdu2fhVTwwLSEFKJy5+59Ayt0zP8op4bO6JyX3C1rnsh18vppCNt5DobPqXLO9qz8gk5XVal4tARNTAMnKvQydrVp+6JFLzLlBLXxYOKJxRnJJw2KL8tuHt8Z3JnDOHPdg7IkllvTvtYC3Ak1MAQjweJNe9j01N0QOcwb/bva9K9RlLAGN4UWRO/CqHa0tysB/53+scvZo4YPgDP32dlkOTr3/QWRlXPS9eEtMAQyxbF6+wx9WhcqHU7obN8rNyawKXKd6ROGQyAVKbgxYjpVC4BExLS4T0FFTLUsQuM0VMy4nhNSRS1peiuESX35xJnAFBKcVEy31znTwX3s6Zfrttzu7S8Fq8s3Z/452WcHKRL3sMngxvm5rXubM0NAIgjHRRLuHMfJk5B+C4HrluXIPUdKxhKX3wt2VkOgIYGgQ0boAW8Bqw8cIavAgeZL5+iQ/xrXpGHwndLRhRVs2PvjbKuBdS8cPjnOR43cNk2etG1+kne1i/UrFj4ES6YmPAIZ+fa17LWver5fgxSs7x3y5gmH4eg6LWHnCiEs8jNPCJvr3M9Cu9EJeIm1+U4tzQwmYgGzX4WjZfOj/K/TD2DU3Qv/qAAKxZJVFAYxht2mjPA2x8SG5bsOgvB/jbVVVuzzy3RWOZwzBldPdd3GJ41nAmWHz4/wPt4Xrys85iXwaJ5H19kuPijH1fZWk63ska3+uq6ySCbfe6qh3VbWIe8KVRQEMUYbzYyD2DP/f1ZMJy9/mvr+NLDNf2rfMpIdVY2oeRdjWGEtcvcDB+TpOmgkcxNjQK1OZwB1IRxPLb6KNzKrD9inb0XDDWJihybZCBXhzSybz8adovAdDDsn76DqFhua0zNvaS5ePKbKhnYb7x+aW8I1vmOw6yBGm8U2c4Oxy3AuwT5iJG4H7CJm/zOOP0lCX08s6i9P7w7vhiS2p6UtanMci8+OEDiB14WFSqRvLIvNXhKCsCmDoogQrUYJLeFWHQxXxm9RrO6PJxfB2VxwEWMaGjR5icJQ5rFp+0zDTnRwHL6VwlF0BsM4rsexrGLW3lmKuXPmGF5ZpNYa3OGiCL9oo4shRdJKfzKp3r0vGKfZOLd+eRt9JSubNeMI2/1Gmg/16LPqjkqESDSvC2EBE81ebl5rbzFDTkE/XPUG/pp4nhERRXGwN8YBTca2r91WKC5d6L4sCRLwrp1Qd4s/PyzPsGpibwn4ZFrlxYjG8PkD594bFsa8cjbS2Iy8fSeIIXaIKYFyg3A34TfrSPCa3sk83+wQY5i9GYR6eb+Lg6nXLlzttYXCY7wvkKqSFkUC/9exP6FUMxAtQyt/4g9jnJKYAs2a6f8u8ylAqJ9qz1Y9K5OW3LJYv40j3/4bjqnBLWi3K9E3KvzscjrdKGR8Fa8tzuDjruSh4issmogCs92cS8biISlcVExvA720If3bzUmdF2DqYC7LxD5jLMo17N3TcA4bJG1ydd3ZcShCrAhiX7+ZNciPOjHlhBdWfy5kpYVurfCGKi9gEhOT2ytcYzq+grqGcRSjBn5lWTmM6eCmqvGJTAHPJMhdBr4Shi6IyVVyenrcFJh/D+/db3tezxn4hn5VtHOrYzsHSgq+cKORh5pQNX+86mLzjsDmOx507jr+n02iHFOOL+g7e7w8dKlMXLnSsdjh70jW7hEQGmb3+9/XM0/w2sqjqlA/77YtocBiYWBSgMLyJ3Au2s7SEg+Co3LMZhw89ify4pYU5OPSSzHXq6mQcIWDn0eMupbJhN6O6sQuuh/bulYuixisUPpqxR75Ffc3UYN8Wrjx8+Bg5P8o9gvZEu4lCpKvn/5DkM3tk2f40R68aEe5ShrbYD2EYZmbPdE9ka3mmeeX/cJMW9jFKwOHOj0UdCQx9LpG8kOa/g9cwPH2bbeNrwtYjkgIU5vyNcg/EPxGWAeyFrVT+5opBsnDRImdbaDwWBc083LFXrqLIZ5kiDrYo2g3URC5t2yUXR7EJ9iE0n8rD9/Df/D5iX5ryr/ka2UVEDt2vhO8GFkkBZtW636EnXNkNo/6HS8MvZW6fj5frdX2x+CBnznTfTSDqDdRhBlhDyYLh+xZWB2YIj/ywehrF6unHKOXxNsjgYQuRVyeF+WppqEob5ojyqYPRcAGLrvwB+/dy1tZP2VQ0KVi8dpMQxG38HxuKhisz6YHLQ5XtUQglOBSb5SEsfatwOGOcsuX+qR7oSv4MpQDGgsVAM1fAW6/zIXhXVZvMWninY+b8fvOwEVRNCFkTDIUJwmxjOpjEByl/FUeFMKrNNwpN57CaDhjJLsJ+us+GB2sFMO7dncPlVyGGKZRUrma4vMmGwXLDYpB9nt73b9TP1nW9btgOGR9XDD9KcBxOgqeYmEaqZeDKS8N2yjgbHmwrKbuq5QbbxqcC7Yjzsv7e+EbQDOU3sgSdxrzaoRb8W4An0jG+ZVnGF5yQtOfhYyp8mI6je9hl3V0tX9ABvwVlNQLg35+A8+Ipy97RztD0SYYms1QcMI85v8fW8A+oqzpGwDQWdZ3IXGw+jxPLg631FXhYoEUGD63wcDQ8qOIt1COA2c8H8S2WjW++99Mw0BrfCLuxxVnDqGXC19Q90MgGA+7WriNo2jYLhOODEV+DgScCgYoy4aEa+8HsN6getQIQzFHHfPQhFdYuIIT3+SgbKDa0koBFcVciUDsnC99ErB5eWFbGwhJevjxyrKfz7dEi5DtJV2kP2qoUAI0exNCvPs/exeiqgTDnlxIqXjbzVXOzx6F/XLneyExfIBiyYA+IfDsY6p1clHbYoAo6rOJRKUDNCKkH8EgFvgIIVvSLhDE1aOH7OxxHtOZgLG3Q8mnC1g8eUXA5a4uUhDuoVcwppVdKAnYBMGrM00xFJRWgC8mXtISBcxHA9KRi2Cz4iA3U1IURcIapmxYpDXCNpgG0+ApLO7uzikfwwa7zSuEvqQAguRAkaocEEmrpLx6+UpW3ycceeJxDLSvUZViSjRhR+IClukgpQEaiO1HBl0rBvZ2fkalvv/u8lFQAwrr0H35iYyeTlS/70BrwyRVVhbuMtmsrQjyCXnYKpIxExjehtgXMJlGpQyaBCmA2J6jE2QreCiAM/Tf11caOlscocIsXO1sof4sFjvNMYKgFfEnQysGFbWOtG/0gbiQJnAYCFYA1rfGLa51FO7KVhRtBSlZiIAOwJr8Z/lUnf4xfIFcp1hs0QfIpnBi2uHqHDmwupPJ9AhWAytpsjDSWaz/ftzZlyOjysDVpSWEMXqyF1cLhoTTBI6oH+hcEnS7yVQBz1p45ZIKKCkAoy21a2IEOx709Ldo6MApMYLtZv6GjQMz3kJ8G7FUFqED/sIYG/8OqvgrQXiFnmCFMQwQte5aesVYDuz/AmOPbzIu/VtYly1Q6WQmrAjPeQXqciR5SPUBP9AP0bWBcj2rjzwRw+hHYX9NZ7n5PXbdM5HjJ3qQcebh3oncKbXmqd07AtQoYD2q/P0vFB/0I7LfpGXlIXbdc/F/8yg6SR6GPHiqevJzsB+U5AphgT2z/cX6FitMZ/rc0NcV7k3Yx/v76Tp2fo+66WMaM+QQ83STGxyxJC1fl6HD6nlL2ZIqPFB4LXtUFS8yFj4WP29dx3z+hHPbH1fcAHLR5sxwTdz3wu/yfCidRRVdc4R7iBeupAFTsaC9grzSY4ODGgfmwP6CuOysHtUwtpKmm39kpo73weioAw/8YL2CvNIbB9V7pB0Iao9/z2nqydvdsAG15Lzjob/RK90k71CvdUwFgVu2+xML8vRfiAyItq//wJJ1qVNwyYQRS+QK66OoVgClAfXxZbQjFXft+gM+q7hFOIAVU9bWAvG5ZrOpGdEvo+uE5ApA31AvYJ03lF/cpO6CT+eybuu4oy5C4K4ujTn1zCdOF5xkOTwVgcalaAZgK7dih/0hk3ALoa3xVVXoFwHNn06lUVWNzWK0Afm3qqQBoixbxDg5G9qf7/lSCiwvInAymZ+/S4CNETh3UqcFnYPIVoj5My2ix2wuvpwKgLSo/NwagCs6L8P6ShmBVMtDK1EYuo0bJqyigiVEo+bBZ58mnpwIQerQSxK2lsGJYLC4Fs7/nM1pqZLCdW87/M25ZmE0hFLCxJF5XftfaKj/1gvNUgEJUT0bqKcAZUJ/HkTubWuQun9wDJrmxhY2w4LDxHPn1Ua9y8RMo5xG/gX3xjF++maJwQk/zu8PAUwEMMoIg72GIvwAE63sg30Haddtb5fID0wXcQxpcX8O3BaaR+i/877kqWIeAz+e84fd7lorrt4kWbuuUc5hiFoGzmz3GsP8EbTiRtvylHz1GsNJP4faKjBwF8Nb2vPwi7MWJpSkNbAhzXc6gjIynMUbipNlQ7hgJc8SdU0GnMC0M5QKtdVG+eTCwWyLlPpVAKoFUAqkEUgmkEkglkEoglUAqgVQCqQRSCaQSSCWQSiCVQCqBVAKpBFIJpBJIJZBKIJVAKoFUAqkEUgmkEkglkEoglcCBKoH/B7IgLpageaVBAAAAAElFTkSuQmCC;fontStyle=1" parent="1" vertex="1">
          <mxGeometry x="516" y="-11" width="75" height="75" as="geometry" />
        </mxCell>
        <mxCell id="JKClMGUKZ1o02f39TSCT-1" value="ServiceNow Instance" style="shape=image;verticalLabelPosition=bottom;labelBackgroundColor=default;verticalAlign=top;aspect=fixed;imageAspect=0;image=data:image/png,iVBORw0KGgoAAAANSUhEUgAAAIAAAACACAYAAADDPmHLAAAABGdBTUEAALGPC/xhBQAAACBjSFJNAAB6JgAAgIQAAPoAAACA6AAAdTAAAOpgAAA6mAAAF3CculE8AAAABmJLR0QA/wD/AP+gvaeTAAAACXBIWXMAAHYcAAB2HAGnwnjqAAAAB3RJTUUH5AscDR0rdxYsDQAAEfpJREFUeNrtnXl0nNV1wH/3zWixLRkbL2AMGAymbUrYSkNIKCkkIXgJCWlaWsDYQElLm5RmaVNSkPSNoaQkhoNDGkLaRGMTetjSUGtkaBLK0uJSIAmU2BwIhBhsrNjGjuRFy8x3+8f9xh7Zkj3SjPS+keZ3jo5Htjx673t37rvvvrtAlSpVqlSpUqVKlSpVxhfiewAjQZBpRRRRkTpgEjARaIi+JkRfdUAiegZZoA/YA+wGdgFd+dei2pODMFi01PfUyk7FC0CQSQM4oBGYARwFHA28GzgVmAUchglBPVCDLbwrmL9GXzmgF+jBFr8T6ABeAF4CfglsArZE/5ZrXrjE9yMoiYoTgFQmDYqo0IAt9DzgHOD3ou+nYgudKPOvVkxD7AA2Ak8D/wW8DLwJ2glo88Klvh/RkKgIAYg+5QJMAU4E3gd8HPhN4HCg1tPQssA7wKvAauAp4BVEtoFq84L4a4fYCsCyTJo+VZIiExVOAD4IXAL8BiYIcRu7YnbDK8ADwA+AV6R72i6d2EHz/Kt9j29A4vYQSbWvBBBVnQ6cBSzF1Pt0bN+uBBTTDE8D3wHWCtKhoM0Lr/A9tn7ERgCCTBoEhzIb+AjwKcyQq/c9thLpAdYB/wy0I2wAwrhsD94FIGgzow7HbOBjwF8AJwFJ32MrMzngNeBu4EFFNwDa4tlo9CYALZlV7KydSmPvtmnARcBngd9i7C38/uQwo3EF8D1R6VBRfB0nR10Abn0sze7dIEI98PvA9cB78WfJ+yILPAfcAvwQdDdMoXnhx0d1EKMqAAXHuXnA54A/ASaP6ozjxy7gIeBWYD0QjqY2GDUBiBZ/InZ+b8L2ee82SIx4HbgZO0J2AaOyLYz4AgTtaVytEvbI8cAXgSswX3yVA+nBtEGAc6+gSvOCkT02jqgApOxTn1Db678CnDbSv3OM8H+YbfQokB1JTTBii1Gg8q/EVP7MEZvF2GQbZiDeDXSNlBCUXQCCtnT+XWdgUnwtle/M8UUvsAq4EeFtCYWmReXdEsoqAKk1rYQ5h4geDyzHHDuV4r6NKyHwH8B1CK8QCs1lFIKyLU7QlgZARE8G0sDF5Xz/cYwDLgRWopyhnR0Edl9StjcvmWXtaXZlFQ3lDKAVu7ypUl7OAlrlsJlnH3Z8A0F7uixvWvIW0NKWJpkQcqGeCfwLcIrf5zTmWQ9co73y31KnlHqpVJIAmKUvgJ6GXXue5vvpjBPWAVep6jPOOZpK8BUMWwCiYx5YVE4aeI/vpzLO+CmwBHgRkWE7jIZlA6Ta7sm/PAa4k+ri++A04OvAXFQJMq3DepNhCYBKDiz48hYsVKuKH84BbgOmD1eZD1kAItVfh93mXeL7CVRhEeZprS/YlotmSAJgYVsiwB8Cf83YD96oBBLA1cBSnMpQt4Ki9UbQthJEwc6j9wPH+p55lX5sBC4FfVJwNBUZfFq8BrDFPxL4B6qLH0dmA18Gma1o0f+pKAEIMmnUUqr+ErvarRJP3otdwNUWaw8cUgBaMuZ3FjgPE4Cqfz++CHAZMB/6+WoG5ZCLKaZOZgEt2NGvSryZAtyI5UkekoMKQCqTxiEOC+OqdGePAt1Yxs4mLNP39ehrA7AZ+DV2B1/pnAH8FWjiUKeCQU8BN7etIishwOlAG5Z2XUlkga3Y4r4OvAj8GPgVsBOLvwujn01iQSuNmIH7u1iOwvGYcTWFytv63gY+AfxPQpUbBqltMOg5Plr8CcBnqJzFz0UTfwHL1n0S+7TvrCGZ63G9BPOvPOgbpDKtzwIPKVKDLfxxwALgQ5hQHE5lxDXOAv4WuDwnsnuwHxpwIqnMSqKjxAexKNXDfM/mEPRi16TfA+4DeaNrSmPPpM6dBPMXl/TGBbkMDcC7sBjHj2CaIu5aoRO4HGQ1mqN50YHCP6AGiBa/EbiOeC9+Fqvc8S3gQdAtIGXNwI2CMRXoSmXSzwDPKcwFrsFc4ccQX40wGbgO9AnEdQ70AwcMPGVnfrAwpAcwyY8jb2EBKHeJymZEaRqljJqgLY2AU+FdwN9gyS5xzXDahV0bP4QeGE94gAqLFr8Bi+aN4+L3Ahks4DQFbG5adMWoLT5A86IluGQuBF4SS2O/EjMyi3fBjR6TsLVsjLy5/einAW5e00o2FIBzgX8nfup/OxZ/cBvCDkJbDJ+kMivZku1lerLmBMxNfjHmNY0TncAfAY+CUljHqJ8GiBa/Fjv3x23xf4lJcgDsaF6wxPviAzQtvILptXVguf/XAP+IHTPjxGRMU9Xtv+sPZMXOw449cWI9sDQME/cRw9JszfMX543FTpRlWA7kdt/j2o+zsfpK/dgrAEFbGnEKcAF26xcX1gFXi4aPOxd6K6RQDM0Ll4DQC/JNzDiMkxDMAi6vz9WSyuzLK9inAQQ0lBnApcTnWPM6cK2IrFVxxK3A0kCYgGoOC5S9EbPC48KHuhO9Mwqvi/ffAn4bi/KNA1uBL2RDfRL1V0JlOERjzWKFoe6IXseBkzA3914cFFTosmvEOBz9eoDlIA8nnYzqEa9cRELQA3wV+L7v8URMAi4RkUQ+vWyfBlCOABb6HmHE94E7QUe1XEq5UefA7IAbMVsmDpypqjNQ2wYKt4B5wBzfo8MqaAXAzlwi53ssJdES3UOo1RMOiIc9cCxWfxEAl8qkCc3mex/+1X8PsMKRWA9K6sKrPA+ndJoXLslb1BngYd/jwdb4Iie9BJlWnAIOnUw81P9a4J6QHJVWdftgiCTBPv3LscAT3/xOqLWT84Yf2Ll/rudB7cQs5h2ex1F2mhZcln/5InBPCW9VLuYQ+XryAnACMM3zoJ4FHoPRKY822hQcDVfhXwtMI0rjdyoCZhTUeRxQD1ZYotMSj8Y0L2P2gE/qgPNnvX4ETlQnAh/wPKCfY/X1S8p1jzu1rhfsOvu7+L8wmvf23I6JDotxO97zYJ5CpcPzGEac6+dfk3/5EtZYwidHAVMdVr/vcI8D6QIeQCrb6TMUsvXhFizewifTgCMcJgk+z/9vEh8v2YjTvHAJyW4HFrHs0zHUCByXFwCfBuCrAtvGvOl3IL/A2s/5og44w2Hnf595/s8r9LlYhtONKFuw625fJICTHRbr7ovdWGMlbhhDnr9i6E5md2GeT5/MTGJOIF90YZk744qaMJmPEFiPpaf5SjA53GHpT77oxBIyxxVf+uhe1/CvsJ7Fvmh0WEl3X+zEMnbHK52YF9QXExx+S7nvYWykYw+XbvxqgHqH3xNAFsjFJwZ11Omz+Xsj6Sh/l+0hMm4XPw4kfNf5E0HHswT4nrs44pnQWGV0yDn8xqwn1bqKjVdq8LsF5xyejyGMv5axhdR7nn+3w45ivmhkfHcUO4wYCECXxwE04tcT6YXUmtb8y5n4rSWw02FFhn3RSJEFDccSGgpJqQfLxfRZaGqHA37mcQATiDqMDbfjRaWS1e4GLGffJ1sdFpsWlvpOJXA6A1SuGAfMxGoQ+uS1/Bbg0x9/ItZmdrxxgud59wDP5wVgd4lvVgpHA6d6/P2jSpBJg0OwIpwTPA5lJ7DeAR34TceaCFwCkgwKSpeMaUKOxHr9+GQH0OGwNuW+o3LOBp091r3SBfX7T8d/LuZm4B1HSCfwv54HcxxwsaJlbYwcUyYAS/Gr/sHK7nU5HCHwDJ7vpYHLBNlbuWKscVPb3k//qfjvtRhiwbi5vBPi5/iPzTsFq7lLahj97+JOTgCkHivY6DMTC2z/fxr2eaHewq9HEMwn/mng6LGmA/bV5dP3Y6VkfbMRW3MTAEG3YalKvjkZ+AxIYjhdMONKVJdvOtbRa4rv8QDrNCpi6RLiUCSHpWf7DtB0wFLQDyiQGgMGYZBpRQjzfZd8p+GDxSE+IpDN1dTgbliwt6PGzzCfgG9mAjcJHKMVbhCm2tOgguLOxdq3+A7BA2up8xRA6oJL8zaAAPIWVqYlDpwNLAMagvbK3ApSq6PGG8KJwFeAI3yPKWIdBfaeCYAooN3AffiNUy/kj4HPo8V3wYwLtz6WRi3acia2+Gf6HlNEFitV151Xrg6gecHewgzP4f80kKcO+ALw50BNpQhBkGlij8VYTQVuBi7yPaYC3gIeBWiJei0UBCMogm4AHvE9ygIasK3gWobQD9cXqTWriDy804EvY61k4tRZbC3R8S/P3sFNoAZFstg24DNMbH8mY61Y/g5ojKsQBJk0GuYAmYO1tflTvCfd9KMLK2Hf17d9XxhovyiM6OFOBf6NeBxZCukF7gWaFd0gSGzqCUbd1Z3YXr8ceD/xi3BZi1WD3V743PqrJzMMtmN9+OJiDOapxdqf3SfI+SJS4/uEEKxeRdDeCtAgNrb7gXOI3+L3AfeCbN//xvWAgUZaYDbQTlRNMoZsA+4C7naqb6qgTaNcYSR6TkmsyOYXsTZ2cQ1xfwnrdrppf605gGNCAbcR9C7ga8RrH8szDXOrfiwUuR1ovymzsiNEdaSbS5jW0QTKXOAyrFNYnHsrh8B9PTJ5U70eeN83oKqKpPtYrKTpyb5ncAj6MAm/G/ghsAGk1/rjlUcYgkyaI7Y7OqaGk7C2K58AFmNtY+Nk5Q/EeqwL7IaBnseArkkRJcwlNogLvwZ8nXi4MAejBouwuRPzYfwI9CFgXZBJd+DYjfbzdRRFi9kXIspkYHbH1PB0rFfw2ZgGits+PxA5YGVPLtxQlxhYTgedRKQFjsTat5zleyZDpAcLeVqHaYWXo++3s68qST4AJv8Mkpih2YDd1x8FnAGcx75q6nH+IAzEjzHLf/Ng2nDQCVkjCTYr3IqVOPdZS2io1GE18edg6q8Pq8q5M/pzD/tOOQ4TghosTKsBa640kcpb8EJ2A3egbOYgFdgPqsYiLdAIfBv4pO8ZVRkSbVgPyK6D2UIHNWCiE2MXcAv7uRCrxJqNwE1AlyYObqMe9F9bIslR9CfA7cSnAWKVwckB3xaRZ0FouXDxQX/4kEcY63olivmRf+B7dlUOyRPAClUNi2m1W9QZNmrjsg1oAjb4nmGVQXkLuAHYKkUGUxV9lg0yaVxfN2FN/ZWYb8B3YkMx9GGWfxcWCt0Zvd6FHRXzWdEJzI07Cbt9nIwFbzZGfxdHb+j+7AGuR3QFKlqsE2xIzowgkwZlIsJXgT8jfl6wPVhc4xvY2X8t5gvYiglC/vgXohKGUdChExGcOpQE5guYgAnBTOA0zA8yD/OOziB+dY0Ua7r1aWD3UDygQ/ZmRUfDWZhN8GHfM8c+0a9h8YwPY27hLSB7pMS7gZsz36WXXhzOYZrgSKz79kcxwZhDPDThE9i9xMahur+H7uhQBXFvg34eu5/3cVeQxXLbnsA6cL0gottVpax9h/5+4d6q3iHQFaxZ1SVh9lUVdz/KDMwtfBnwHsxz6EMjvgx8DthY7L5fyLD82QVROedhmuCYUZpsN/YJ/1fgQWATQnaofv5yEKxOQ1Ig1FrMVbwYy/o5kdHzIG4Crg7RRxIIw9F2w77QCNrTSCKLZpOfBP6Jka120Qv8FPgm8DAJfYdQ1MfCD/gs7APhsDiKS7HgkJMYWePxHeCzKqwSpWijb39KutEKMmkEnFrWy+2UP+0pxGoYfQO4VyS7VTUR28bSkSAIwjEon8IEYSSqoHUCN4h98HKl2DklX2kWRMZcjUXCTinTJLdjNsZyDeUNEdXmRfH4xBfzTERIqHIq8CVgPuW7TOsCUqLcoUJfqTZPWe60g/Y0giZV5Srs3qCU9OcQeB5oQvkRZZikD4LVaSQBqkzCklyup/T+TL8GlqG6ApGyPJeyBTWkbDtIhPAHWBj3cCbbhRl4NyG8iVZ+J3HTkCKgp2CJIhcwvOqgbwKBCGmUbLlC38oa1WLh0SqCvBuT+A9TXFv6HuBF4DYsJL2n0he+kFRbmtCBKFMwB9o1WL/mYo6NXcDjWILMczB8g28gyh7WtGzNdwjDBKD1WETNEsx5MgsLtkhian4PZsm+DDwAPBIiWwRoKeISoxIJMmkQHMpxmP9gPlYfKV80WrDbvF1YR7GfYMfsp0R0V6iu7M9mROPaIgMxEU0w36R6Inas64wmuW3u+Y/3/OI/z6VpwZUjOZzYEJXAEbW7hlnY8fFoLJJpC6buNyFsdTnty9YlCC5YPOzfV6VKlSpVqlSpUqVKlSr7+H/J0U8U3YsiOQAAACV0RVh0ZGF0ZTpjcmVhdGUAMjAyMC0xMS0yOFQxMzoyOTo0MyswMDowMCgo2bAAAAAldEVYdGRhdGU6bW9kaWZ5ADIwMjAtMTEtMjhUMTM6Mjk6NDMrMDA6MDBZdWEMAAAAIHRFWHRzb2Z0d2FyZQBodHRwczovL2ltYWdlbWFnaWNrLm9yZ7zPHZ0AAAAYdEVYdFRodW1iOjpEb2N1bWVudDo6UGFnZXMAMaf/uy8AAAAYdEVYdFRodW1iOjpJbWFnZTo6SGVpZ2h0ADUxMo+NU4EAAAAXdEVYdFRodW1iOjpJbWFnZTo6V2lkdGgANTEyHHwD3AAAABl0RVh0VGh1bWI6Ok1pbWV0eXBlAGltYWdlL3BuZz+yVk4AAAAXdEVYdFRodW1iOjpNVGltZQAxNjA2NTcwMTgz0yC2fwAAABN0RVh0VGh1bWI6OlNpemUAMTgyODRCQkE3NdUAAABLdEVYdFRodW1iOjpVUkkAZmlsZTovLy4vdXBsb2Fkcy81Ni9CT0RDSjlxLzI2OTkvc2VydmljZW5vd19sb2dvX2ljb25fMTY4ODM1LnBuZ1bF7vUAAAAASUVORK5CYII=;fontSize=11;fontStyle=1" vertex="1" parent="1">
          <mxGeometry x="-427" y="9" width="73" height="73" as="geometry" />
        </mxCell>
        <mxCell id="JKClMGUKZ1o02f39TSCT-4" value="Bedrock Embeddings Model&#xa;amazon.titan-embed-text-v1&#xa;" style="shape=image;verticalLabelPosition=top;labelBackgroundColor=default;verticalAlign=bottom;aspect=fixed;imageAspect=0;image=data:image/png,iVBORw0KGgoAAAANSUhEUgAAAMQAAADECAYAAADApo5rAAAABGdBTUEAALGPC/xhBQAAACBjSFJNAAB6JgAAgIQAAPoAAACA6AAAdTAAAOpgAAA6mAAAF3CculE8AAAABmJLR0QA/wD/AP+gvaeTAAAACXBIWXMAAA7DAAAOwwHHb6hkAABpEElEQVR42t29d7Rd13kf+Nvn3vsKHt5Dr0QvBAGCBSxgp8QiirJcIlmyJFt2XORlW+Ma2Z5ZmTWJJrbjJMsry/GsUWbsZGLHdlQiybIsWaJkSaRYxA6SIEACIHrv7wF49d579vxx2tf2OeeCcuLlvRbw7ml7f/379reb2/yH/7t3zoEWeY30Or/rkv8c+S1eLb/ngEhcF39c8Lqohd+z4HX8gwJegUhvOEj4S3CIaNOCfrwRjYOEX94z4WetM5wcAE9wcJo41TxIi8U3iweaJxYPNLzWc00uiUNkgERxqCNTSSMR6hTvU5KK29l/5Ln36g1YH8bB13zFta7Xe/GCt9r18GU40GcBsCX8YRzEQ1/88aH3BfwhWL31rXjg2QPjdU9JFOaRVRK8qwhk1+fEtW7PF1wi+DholnIcYkbjMmRyinj7zSipXAuYEjKKDlECripEKcj3nPi0Xl/886IeT98W8AVgVjgoSXTimsBDrj30c8+uE+AiEyfNAC+UOrvnGY0Ek7zAKaW3Y5V4KkJcWywcBbyS3gWYXtzWChpnQuUz+mh8Eh5InrAbKQ4l7Mjb9vWUmOJArymsUoZ80V5UwOZNpCjwXlquIAOk5fXaKnkgZp7CUAItq5q3guCSQBxebzJXM8QLxycZktyrhD+mIueDfGRwlCm6p+KhvyWVGN5Eww/JE2aYmHQVOJDCPCSlsSE3mgdlhJCGycJByhXx2QYOntVt09fD1wyZNB0FJyQDCDjBaCb5EcEOPSQCtiD7Sk9RYrxLYhCFngG/RQyjKsYnbzPEl4qHUgrD3QCw1NxQdK9x8AYO0utD8I2il1Rqox/GwfSjNp5BGbLuWWoqPKKXfCsuIu99mTzkiGhRlDSqYFrArsW6IvLHthIlWqaJb1xzSw4tUAJepehBT0EskqdsNuAtUSQrZFX885aV9WGemMWHfymrGnbNcahq+prsZNM6pWcuqUbzIBw+cR4LTyFr9IWBrkTGS4KkDHF21bQV+VMgUzwoDKl21SZoVbxW3xkWtMxqVYU3pZ7BYGEsn/jA23UbFFgJ+Sp+hPt5XkheOHyyUJVKYXhvGa4aONQzrF7opM2sws6k0qS0SSLMq/I+DZny0KMkPMniV84jYZF8QPCoVnuCoAQOIiYPAC+/yZDhHXmv3bSEF1BM0+8UNAGBP8eHVBYH4MuviVJ4XkERTjG0+bWJkyKLCD8sz2ZafNv7sTYIOKZSVEQbGZ5cZgxjCy1XDD1Sk9cMpRBpnJgocePrAESlkU4gHpcM8AEGcA3UJtWyUvBEsAi8ATtn0LIqXLIV3cKJM02+x8MjqhQsJcto5kVHGxp+qehWYFSm6NY9YWmZGnov3jFIRHnoy+GLJU+qDJPFg1wpOL09hY8qRqlbj8UTbVx9QXlEOiVYLlBeWlHSGpdtbcmC18GbXv+RtBWhT+4tKnAo7aiWgVn6jjQE3r4tsgjeErKylCwUT2H5ZgZfCTJWCGsaq1LK8Jdjw7uVNBqKgmoX5jmIM6f1SWMm9AqgIZMCvkzLTYiZO8hAU5bWFz8LwDy/BiA6qrQVI7TIORhmQCh+pRfM4hHXzfWFxLMCB0mH2FCK/IKEuWxsgf4Uih6QgBD5iWczhIHFPoHkBaeAkHnP+ExLjCx7aAt9kCeB8IkjQeAS2iPT+sWjgtgyEuB1lI5UV6iot1y31Dj100A4gBAhrnRzFsMBqOH4Ss+kxlW8gQNRE8IUy5JZI8DFyK501T5H0BJbk+SGAIU8OAPKZkTyyBxvJdIkGCpDLs53yTfRHmx4ZTQhB1X1ICtprYYMFSXWbGCQk3GIqwk98u8kk0JaLoCwitJyiWDgOodXMEB1XDUCFhTlIZ95m4Y4AgfjO6YEJCGiwqer4QEk08VbUikkDq6iLm/Vb78dZ+FTGQ41w6PyqTdWfVJJ+HNpvD2ASLnlCmCt+Lt6hJi0S2Km7FqGS5aVlRUxoVJKEKa1D1jVOtkb7rVtz2EywaI8hOjI0UkmtJYX0PT2MBtV4UYBIAmfiFcoSUJZFM3hLU0y1enXiWa8gUO5pyh4ImVIDdwxHhctR/ShBbzl5mx8baUQPscmprqnKiLJGW/9Mb9hsPVqab26w+GtdiDsGz7NQ35fw0SqTrVhuFSE42tRnKBr1B4wVLK9Cj7Gxit1M4A2RU1CllcXUAr6QmQhaHmKOhMAQ4ojrWjQdVe48lBHOzdPDBXDU9TwDLrZkrELy1OQF62cPpstKp/Hnn4N6b2tZEfVqL1Kvwb6RILUeVVhSxuwSNJ7kxKjLrySJ9JTaM9gee+8ejF2VMQduqMdxbCZ5OnX2b0altbKOUuCaSELuD5DKTKhqlJil79TLlSqVKVkTaUgTClViuJ9Rm/6DlMKxsGiFUViK/zgkl3q/fJrPfVa4shBItdUEEu8dz73SZC3NAy3PEVJuCQVXXk7Jha8ox1pHyqdUQ13Loovs1JBgte3UrCuaQM0vVsDhTrhU6hPxNsPeEgmMOaHHAU188BQikqaa7ZWK4WmQg5bTzh40aZReVWyAwb8So68+ZW3aikHIX8eUTRi+CLWCwhR4TkIQjX6GMpKwRnN2OPRHPgUVm+OQcKHyGuEL1KJwu8jZ670DKYqSYsJmrgprJScOm4Jmd0GgvyRNNc48GasRTs8yiBeVwyYmN4vu0fDFAGwWlwVgtfipi8ReMvGenEtXpbhU2TVrbXeCD0ULlpJ9AQvGd4It0fdnGG6LL2z+xSSGNqVW6oXynxYtJc18Ta1FeVWVqFm01bOAbGSHcybekWkqo6rNW0lFBuERrQtZCxdUXe9IVdV2T5Cz5wsnNSaL2WxDiNhjIgLaMGHAmDVTilCFlU0qbQp0gjZVorV4Qt4ixVc4cZN26J4ZLPSxInAF3SqFTjw7JkR56QIFoaXWOwQdSs9thU6BbwzcxfWegqpFN5Weq/rjjMsDB6wOVaV3tuSoYIvTEm8IVcEtig04cNyaznZtAFkyDDGpQiV8h1WfQEtt6ysGd5wz8AESsavZUrhBYOCDBDLO00hKz6n1cVepJWV8AgLR0bUQwpgL+ekAmDPKHXsmuBgKYHM3gi+5FBLz0awScJ0PXhn4cNnV9tzkUyZFDiS14ubKZiR/r6gdCSuOYSUll4xwMBIVcAVLOzWuEZTVy28jQbMJq4Bicrm9DoiLIXMfDFkBqjFLGhePHFG0G2FH/JWiWUNELqEbMrThX9xy2sJqY2DDVPwuqpTXe6yzYYjes9yaWouDq2U1OuqXB+05c2+LKrM1UtRscJ+JPAalGBWSnkW8Z5a1KUZpl25tfBfu2XT4svwyPAUmaLlD2n2SdgDqY4JT/g9ZWXNTmoJDqZhCtCc3fYwb5Mixym893qlncQzmFL2+XNCQdGwJw4seVAMzJGHnrxsVgDxTg6CLbalSmG5PkV36ZZTJL1miLmcExonnnMvYOt5ANIjIFScQQRdhqwVk/OpKoZBIB1te6ayp08tjgi2yslzYRw0MIJ5Oo4ht7khtTyMWqNt0N9qX6+nkDJFTAYxhpJvkZnnl2zwdprMck1WqCE3rVIDR7avNBDKvkegWOZHhxJ8hqcPVlNWtLBZVkpaVUaEUvjDGy9oMSqBJG2qzlwtfa3rsjveHL2w9wvRUbZkZg5rzYqwecAflY9TRAF1M9uyp2JrKyU9i92n0BrMV29ZCIU8kGFlg2gxN1jAVzFQZFopYzRVT+uQ8IdxYN94Y5wCBAeS9XAGESozTTQ8Jfe4gQ8JPJUB4f0olIYoWdGHHT5B8ASVnjrz1pzcFR1tcR3BeJnzoIa5VEzTjLddn2W1SpRCELugqq2N1oS6Umxkh02BW6EoPCIgVoqHZ3qKRMD2e6HYFZ5CXVTBH/ACViXBqKk8ThGGyIbfABVAICoxxlHUO8Ydy1tb12w9ROXwvM+ETHLeRrpy3lCAEKUaTX+UetWAy5IMUqgSiwdfbWmrsKphlRgFDeSt3UiYp2AYcsNkDt4pUCuUmnme4puQKocG6yjNJayyxhx3y/3LKi1DWzkfjUBPnkcFBo7VJ90eFRPGJDWCbSFZxhAjvlWdPEF2/YjDS+95I/uUu1Gv6wMUA6ycvnxuzX2yhMqySmEciCHilXNi8E3rinfYNyU4+AwHwReGQ3Ilx1pychlCluPA6i5wos/5U6EUvOoCfqHoSv2MZEdw6k0KS6QAtXxu4HYsPw2Uq1t5B8Uge/KMFCjb0vLwiY7x2t7GoG45DoYM2pV6+3nQqha3Y6M2VW+gBvNezVF5jmNJP6ms+MK4mk0oGdL1Xt0my0KGqT0xDFUUwkuFTxAykdYaHKdQef8aAmV5D1qJk8gQhDx5KRR+eL2+WYUazJ0LIfNJ7S7dmr6Ot1N7V0EIAbGJVVMiCm/HrWz+GtF6r/CxDRFMeJnp1d4unZhJcfCMmCUqSenLnnBgpaew1pDoZE4xIs9vV2U1s9Y8mgU4xpkE7ANXcl3stECbc+RVD8BloVk2Fue9TslKSDzgXfJd8sfnDFF7CnjAuQorkn9IAQvjld2KnMNAs4WVI/OwfPYcXJgax5FLoxifma4x9cCn1Ti7WdVeQUFrbIrSWkNOa9atWDQP06i8DUsqULAoXLEHvEtrSH4INnj7jIysDo+cKN6U3ApJJnIk8W3Si4ynzmSIz68zrJPb9CQKDqzkfk5GX6IUqVuW95LvPZx3ucDkpPA+P2CD4+BMnOJMyCmDBNgFWh79jRauXbgEP3PjXbh56Ur0N5roeo+TV8bw4slDePH4Eew8ewzj7TY6cYzYxymKmuC5YXAJ/MhBJ+JWoFOQgCq7d4hTekcZD6hQZbFVRGlG6yro69PK6cEu2Tu5UFL3mM9ISJ5z/RXC5ACfEjKsg5mVdynNfW44cqUhQp6jRiyF954fopO3TcbAUrmCcU3to1v7b37T57Cqk4E4V9jJOozGnOCRPOFHUEReJ5eaYm/rZKAaJxlFxslGFMoocpg3MAs/tPFGfGjrbVg4axgRFRp4xLHHTNzFufHLeO7EITx3/AD2XDiD0akJdOIYXeo5HIOWAXVVOMiTjKxTdIgrqTx5yaS5gDlwkhFhRxBe87SjUh4Y9JGnGfUqRwGZye64tf/mN73Go4oZBeSWUuSAetGgkoVqhtRBhjMk60NoHKyjpEJK0XARVs9bgF+9/UFsX7EW/Y0mqor3Seh0/PIoXjh+EN85vA+vnj2OdtxFnmlRCmAphBQwC4cC3tLjyZhCcCLk71TwRfKgnlJrHFwWZpXhZCk1a563HdWRK2VIjSArw4EphOZCxdlehlIEmGQJgLeANxGqslI2Q0yrq19MlSJjjsNIXz9+ZPPN+MjWOzB/cAitqLdjNGLv0Y1jtLvdPKz63vFDePP8KVyemUr7HAGlKPTZpjdQrRSS5hHlkOElRMxfeV6c5IHJkzC9LRwsnBhn5TUp0VV5CSIhKc2dc3Brf/8TnnJDeQoDobCS8EZty2VodJWWB6ySFT4VP+soNXG/Dmg1mrh2wWL8/C334fblazDQ6oMhCj0V7z06PsZ0p4PTVy7hpdOH8fTRg9h/8Qwuz0yhE3t0fRygueUpynGo8hRSCUmLYR5JAQrxxTRErgJ+DqytANa93pTCVmqNl6kQlW4NqO0pgNStWUzqwSrZp1pqz8FIZQqVhr/hIsxq9eH9m2/Gh7begSWzh9FwvR+uVFW89+imCnLq8hhePnUETx87iN3nT2BiZgYdxIjlJKyAkJk8QEW/KJKiVMEDpRgVfbi8SinNvYWATlyzVsqUQhDlavqlhUIEiR9GqLfwSQBbhyG1OtV1rBS5J64HWi3csHg5PnbLfbh56Ur0NVtv2yvUKcm4g0e728Ho1ASePnYAz588jDfOn8LY9CS6cYxuHEN28KRiF2Q16B2yqpG4J3jgKJ29h684MtgKR4LRhXXvKpVE4YV6He2ykNyt+f1/5iXwloBxPMKxoMWgggdVWl8ROgUZEHDTJcR3iDDU14cPbL4FP3XzXVgwazbqFu+TZY8RXHVOv4fSjWOcuDyGF04exneP7sPucycx3p5JB6XCAlVJc0lW1qdIPo6cQ+QiDDQamN3Xj6FmHzqxx1h7EtPdLjpxF3GeqqwIYcs8s8GXOtk06btCnsJSiORWiVIQ+UsVIrtEUIDqaXjgO4NBrEYl3663jp6Z0s2HwpTV6ms2sWnBEnzslvuwfcVaDDZbtQTbA5jutPHcsQPYcfIoti1bha2Ll2O4fxCNKBGot6seWYe842McuzSKz7/xIh47uAfTcRtBgTGuLUPE3knPOm9GDSwcHMLtS1bhjmVrsWH+Qoz0DeYtzXS7OD4+ijfOn8QzJw7jzYunMd3t5IPSPKLijMyzSgLoKmNVKyy3og1SdOq/wthmZFvzr1OFCABrxej54160XDIpkH40gQ3cs645AzgOUeSwYHA2fnjTTfjxG+/AvMEhNGtmkDrdLk6PX8Kndz6Pr+3fhfGZGbQaDSwamo2blqzEvavWY8ui5Zg3MAvNqIFG9PaVw3uP0elJ/MeXnsBXD+wio+F2R1XSPHJ0VJsbIucc5g8O4dG1m/FD67di/sBstBqRqdSx94h9jPF2G6+dPY7P7X0Fey6eQjuOy701uSdhq1aK9L2ADFFjKswfK0oxKjKYhUJYH0hkPMoRrOE5SvsUauwC5YoiXXcg5HNw6G80sWnhYvzS7Q/gtmvWoq/ZrC2wk502njnyFv745e/i0NgFdLpdhmPkIjSjCEuHhnHD4hW4e9V63Lx0Feb0DyTK4a4+tPLe460LZ/CLj30aE+12SUwe9hSyT9FwDqtH5uPj2+7DLUtWodlo1KZF13tcmBzHp998Cd84sgfj7emahokqgeXB6/cxwiE3+xhAjY62qKsx56E7P1kndaaBlQAFgJf3VDRUFULV6Fe4cB/CAZjV14cPbLkF//ydP4SNC5egFfUgAHGMr+7did976m9x+sqlJAsk4PVIUqeXpqfw1sVzePzwXnztrddxdOwimo0Iw/0DiQIG5+eEi3MOA60+/N2h3bg8M01m6lv0JbiTd7zj0xhWjszD/3H3e3DDomvQ7NGTRc5hqNWHbUtWwMceb1w4jU4ca0srDau3+aRxCI+9MC/gKmQoLQW5rLBa07qpAsF0coqcjKZbEJP41CtkPlTBmnzeTeHKgzPB0qfl0w6ND5KvnENfo4FNC5bgF7a/E7ctX4OhVl9vdaXVnZ+8guluV9HAmieINLV6YWoCX9v/Or51+E0sHRrBTUtW4J6V63FD1udwkcqdh4oD0N9sWYjCsDB6ol/eS/SYOzCIX9n2Dqydu6B2+1bpi5r4JxtvwqmJS/i7I3vR9l32PJtdyndjqZ4kGiKul8SWv9h8LV5vDCTrHBx/ak10bAJiIpeoj09GS1E0gM0mnmWTudRkufzaUArGt3QyGggMagKgmALqPZtMFzmHkf5B/JPrbsJP3Hw3Fg8No9HjaDNjUTrHOoG3mGCXwEwmOToyZdkDbd9Fe6aLg+1zODJ2AV/fvxuLZg3hlmWrsX35aty4eAXmDs5C00WV8DmfT7IuBJzxiLyY8sEJAeprtvATW7bj5iUr0YoaV02PrAz39eOjm2/Dvgtnsf/SOT4pk5OpkIOMtWJCIJ3Q6D2d3SwExPGKivqTe+yaCFGMdPEPmRBo8blJrtQMTR+YIssnP0qE5ExZy1MU9eVCRpRAClkGrJqhqWbEegw0+7BxwWJ8fPsDuPWaNRj8Pow2B0vAU2T0TPBxaae0i04c4+ilNo5fGcPX9+/CgsEh3LZsFbYvX4tH1m+p116AEcXMX/KYzPSNXIRNcxfjvRu2YqBZPS+rTnEAFs8awfuuvQn/4eUnMBN3TOPF5EouN7BwSN/IZwMr48sRlZ5C2NO8SE+RgJfllJKbnDKpEjhBcM+myFr+ORz2GMYcwanjBA1zxj0RMguZ/mYLH7nhdvzUtnuwYHAI0dvwCgYmhRJ7ICJTsRn8ZCo2BGmyBS3d2KdjDqP4ypVL+Opbr1cqBI86bB5IgaLvNKMGHl67CbOafd9HmgCNKMLtS1bhmtkjOHjpQs4XNaXf8Aw6GPbEs5VRIZMRn9bntCgFwyePsl5TM/aex5IyHCuaFkoB8LfSd6xYL/MUnigaeScmMEdkEZHkfSEUnOAODtcvXorfuvcHcMs1q2vHxh5JOrUbdzHQ6it/Mf0R+8wF831A6foJM04QSuFSJnY92cm4AlqpFCRK56BKK+qBeQMDuHP5mlLazHS7ePLYPnxx72t4a/Qshvr68cCKDfjw5luxaNaw+Y0DMKd/APcuX5crBOd+wTMt6XYPkUcbRfSRRTxZVbz+DNXC2DKeKMNqh+URAHO1l5cX5lJIufudvta1ZjGuuK8aJDVWCMzmhUvxrx56H25etrK2MnR9jJOXLuL/eu7beOnk0d531/DhM+NMfLxRQc/F3ovP8/9U9c45XDN7LuYNhEfjOz7GYwd34z+8/AR2nzuJqXYb5yfG8TcHduEPXvg2Lk5NmG0DiZfYunC5ACoMqwTVeuDZA+N1T2UoQMvAbXZilii5kWNKwbZDzKgq2ihk2+aFRNBo30ZVI8PX62YgFkL2sdvvx7r5i9BsVHcUvfcYn5nGt/bvxie+9ll8YfdLmJiZqvGdgTi79kLui2sLT5/hULfkFTlxbTGC7/vkAKwcnotGFDYWFycn8Jk3XsTo5AS6Pka2hc1Ut41Xzh7DYwffQLtrHnOCCA5r58xXG77BCxzT7TlYNJOvgTaEycJR8EDSu+CBF7e1ghZHKGQy6nkfIlOKiMToPGsg0huk4aIDRK4Bvg6adPKSl5wKNWJCrUil0qDCD+cd7l61Hs0aC3ja3S6Ojl3An+14Gl/btwtT3Tb6G80KW10IPO/CpPAmwJOd0p0ZPrFIM/0mr76XXn/aSU2q4D2GnN7pD9opnds/GEw5e3gcGjuPMxNXRDSRuMGZbhfPnzqCH9l4IwBtdJxzmNM/SMSEh7RSjmiyxkzCkr5rjlP6gPcxUnpTnqQywpafSpmRKVkCQxM+BkqmOoucgK5UMlT0Dwp9sDhfxLgsncYQTrAtei06Jh9OmVFW2t0unj6yD3/0vW/hrQtnERNL1WsWSmY6Iug+BUfLpzjoqL9OSGgyhSdtyhMbQHko6YFOHHMrTV+PgXa3UwpSVDFdXhlXq3MYSAzwbqs31mkbnXEmJoacqXGK5F4zaYwrBeto5wu2bS2X2Serz0261+Cps4IY7J2s45p3tCXt6g/Wee9x5sol/Pkr38NfvfkyLk9PJ54wTfNJZ2zWwf+DtACxleIgnTxAymuh6LVwgBHzso58wQMr+eGBZJQ7gKlzDqvnzMdw/wCmO1fS+l0eoTUihxsWLgsqlfcel6enmJzJDCDncUFP74xME0qymjZ3RP0FD4okoOSdoRTQu5kULxj7rlpweOMmB1H2IezrPJwLNqi4UOu1yU4bv/P4l/GZnc9jdGqywCuNX+t6B9VPMpIAxQZ6LJg16zI7loFSsNDY59bcH1dce4+jl0dLt8pZOGsI/2T9jclofj7XCGhFDaybuwA/uGFrcDAvhsfhyxdrENEWJL0Vv8QhsOu4QJ+Tw+rXSVLpPkWzaDM98Ut4CiDQp8ggygZUhOvmyk08A31HhB45Uln8l3uKbItBZ3idKh54nLlyOZl6kXo25pRrd2wLJjhkXlPHs2wEXsY2asRIhog1QPBiXAgyhE3hJO94xDhy6QIuTk5g6ewRs+q+qIkPXLcNfc0mvrr/dZyfHEfTRbhlyUr85NY7sGz2nKBX7sYer505BjouwAcoXdhzyGhGylX+jpAZtVcPCappBGL043j2n0tSU+aHvY+ZUki3ruLg3FWn9zLTl8X9TAkABhnsjbhUrOeT8ClSakCwK5MjLzIbFgNKK6C4i7EXGc+m78ZI1+GQfh1JNXCGVOCgvIka7RQhbPpONkLsPXB+Yhw7z57AkqHh4MzboVY/PnTdrfjhDTdidGoC/Y0W5gwkM3bLIBzvzODZU4c1TvkApTEEZyRsWPgk79EQ0HMq5hMXS+TK53znSivhi3z+dogbXodPvlCMAngHXksdy0vDJy/+6XrUprcQcARb4cFGlh7sqS/rK66DN73+o8jZa68a5obFVvvZnXa3i8cO7MZMZefYYVarD8tmz8GCwVmVM4O7PsbrZ47jrdGzmi9e01zCJu+Ubm9fLqbqCyukClzk98jerhT4OA+hshKnyyZpfXIPUD14p6Q3R5nvGK11MjTwUuzN2psQJfXVkmqTUAUORTxLFZnvhZv2Kbx9Gk4uLD2gENqaX/KYKRiJvzs+xo7TR/GdI/sqlcIhUYw6azhGpybxuT0vY6bTUQApubKYIpFRfQgvHzGaSzwtofdmxWA8yGimO9WMllwp1BwQk6dyG/hAZ1AhWMBnwkyAZ+dov52SKkldX2ayViitrcSEWAGG9wIzv9abEzO+EOsz2WnjP7/6FPZcOINuHNdqrqxMttv4/J4dePPi6cJQVVCzcoPo7B1jQM9gBBs34egSbRECyW2RJ3IqUufecGkgc23MLIWp5baQcQ22hCrw3AA+2D7sz4o+3tUqUX3vwpSCwau0oaoq1Vz9M/H0mRWx9zh+aQx/+MK3cGTsPDr+6pTCA5jqtvG3B17Hl/a/hul2h52O6pnlhS3wBrRWOz70llQKSQxXUZeHqb6RdN1Be0mUIgmfOIKlzpyGFgw6qq2m+WTA02IdLF+3mMd7VX5ECEtipuxahkvSU8RGReTttw1/vYMVE77tPncav/P032LP+dOIe/QUHsDl6Sn8xevP409eewZXpqeLNkrOL7O9gHy9ZNt6EWIXRCbhE/EKXkq7ZZjkQx8ahxBxn7dET3W2tafQp+iESFwFLKWvpxe1lOLqj8aSEFlIhO4pYhgnGdlvhwHp0dJ6dSe59jH2XjiL33nqq/jCnh0Ym56s9BYewFSnjdfPncDvP/sNfPaNlzAxM2O3Wxd+aJmxwr06FCfoGrUHDJVsDz4ZqQayVWo+T5eqsxwQp5MUyvBNvucpTjEcTza+CmRiU6bRdKbPX/L0Xu0cvstdt5xjk2wW1sV0p212IjtxjE435sQWI8KNKEoX6uv1zMlUA6QdWWMr/lrQU4Z7kSb3KZ3kOE6AB2mzHR/jyKVRfOrlJ/GV/a/jxzbfinev3WLuQuK9x8WpCXzq5Sfx7KmDuDQ9ja6Pkz4lQ8Pn+WafUb1gWA4/XSefp8QrV0QGFhQRnliDVGr+mTX+Rd7PZ8QV88jB87N5gy7JPqF88K6YfMbzx1YGnhMgQRBeA5+0WWgPQ6hu/J1ZY8GAdreLz+58Dt89tFeLp3Pw3mP/+dPJugVDyCLncNOSa/DBrbcXKcq8ouT7U1fG8H+/+DimO52cuPm4Sp1xFPm/ECr9QTpiUjZ3yAGxjzHVaeOti+fw4okjeHjNdWgG8iyjU5N46vhbuJx5BUcW2xDDlgoFUYqUv8y48jMrcpykojs63mWMUxhTVVLzUHIoCpGrfAJgIWdNiYwFbB07xuc/iY8IcMVPdoSfPmvD6BSJ4SzGg/ISnqLR9TFePnkU0alj6pkjI/Q+uaEY4uCwdPZcPLR2M/qNpZmx99h/4Sz+n5eeBNCBtko1KVyh+JWnMXno1ZCu6PTGNUKmbuxhww/Nk+xor4g8LZl1auKgvJ1e5mx5Pw15MUicsDGMQ0QDqRqd9RSuOPcWWYmM4WbVj6kcB5Adax4P+8CrvZY89CDz4LtxXCQMxL8CB9npI0LgUOyLavyDB49fER6nCMMs7qiOoxGTq09KTuLsiYI+j5BseDhwZd3H8qasvilvxhl15uImCMemdBjVRzAqk0rirS9FyYSH08ybSuBJEzwUKH6YpDQ63vWYmU69VskCSXvxTq4AWjELmvQmThYZ6+d5PGe4IXT2kcG8Ck3BejiYLPWB9yhy9LhaxgP7eN3K5IHROffqOQ00Q59KpfDJNHCWMvSCWMxgS4FJPQVpRCmGREgKPNcEBbyc1mHNkq0qmVCYTUmc1McWdCWeLAyFcV2zD8S+0pBAyUuFJ5ag14bBxoFnzwKhBhETCp8z6rUUuxSWXKbsWbHcXXjTTmfXUVCTQJ54cU/Bqm1cXKbFRCmK+pwQWil0pKaAWy4rfAq111VLK0WZksIT5HuPAlXHylqfMoESlrZUKTyMcYrCx9QtrFsocIi9SCtLwyrljIyohxTAS2/tebgXSus7dk0UxVIC6k28CJmYAgRiM14bgaVq1NPUJCr0YeEOItNLMWMk+sgrBug6rPCvfrghTbIczKtRQ+AqUwoj/LDeq0Hf4DvmiwUOsk9RPHGG3TSYWuXtqgyJ9+UUFXIofzUL4FPn5Yquoid7DrniYU5WR9JByRT1uCIly6pA9qGHXPWVPChSZ+RFFPfK9/DhpZgUKAAgaQxr606Z59dLIWs6CK+q7qlEUYSmixI8KLzwLCVX69Qccc9FDo2axwHwX/bag3zqO5MrT7JPrsg+Kfby7FPCE44jPzLYyACSmnJyGVlOjQPbZKDgrtwekC9oQT6wRpXCi2o4JQlCwXyyFsgCeMkGXnVvJcHJ3gggV0XjM44D20eybrsEXrn1Z1npixp436ZtuDg5ngtDqNSZoaqPzgLWzl1YcYwYCXlyIUsuys+iJoIHwju2jym4nJHRNJ6cl/XKwTu6JgfGOIS81tU1rZE89T7TC2dUVjDJGtGWOxvYA0d0IAewh7FTwqbNNaMIrYrdNhyAgWYTTRdhxsdaV1mbGXg6p88sVIqDcw6tqIG+Gjt+SC5UyDUrrUYDP7Lp5l773z0V51DjXD0jxAnk/YsReY46sdOixsIzSMOX0TuBk0cb9D3LfmtxtQeJMxFr5jeI29DhkyO35ea+KVC01aw/Edq4gIHGx9jl1iNMYAn2rUYDty5fjY/ecncpC/ubLfzW/e/Fn738JJ44tA8T7Wk4Qc1iIwAnuICgkkQAhvsG8fD6zfiJm++qVMyC9lcXOL2dzZq/X8Wx+FvjkOsHYV7s+BY9TCnyXSToiDYK42oZJqPBPLpI73kSxoNEME4KE9tfM3mn6EOUzvEw3Bp5LflZjHCHSGZtm2lpsBjTz11h5BxajSa2LF6Gj95yN+5dey3m9s8qZWIjinDjshX4nXe9HztOHsFnXnsWzx05iMlO25jOzsMnakcyBkUuwkj/AB5ctwk/ev1tuG7RMvQ3WxU7BlrJUrkZ9D/8kutDbkR0P0/FGJ4sp+W3rbehLow+naslQ1CVBKMm8kP1IdS8KlF1ITNaSfL1qrmGZyFKlL8jlcIXZoWAwQf2Gy7CYKuFm5etxIdvvgt3rtqAkYEBNGoefNKIIgwPDOKe1RuxbflqvHLyCD772rN44dghXJmZyecp5WSjiu2T+TrNRoTZfQN459rr8MEbb8emBUvQ32xW7kcEJIeu5J1qkRjoaZOB/4klOxHVFCohWcqwInSUAPEUEZU10a/zgJoQaOz8LjubPH9CwnriyQqzl2aZdB8iyy7xHboTOS9aUh3vpNaiow2KNO9FVHqKFIFGo4FZrT7cvHwlPnLzXbhz1fr0gMOrCx8aUXKaz92rN+CW5avx+ulj+Myrz+LZowdweWY63awraTvzdq1GAwsGh/DOtZvwgRu2Y+28hRio9AhFiX2ME5cu5nOFpFUSWcB/kCX2HievjMLHBAcihFzeCqUAuMyo8AmEGCR8koYJ+Tdg4VRSP+lTgGSfkpfERFN7LlSuxKDb4Qd63WXJwkD+wHyvKnyi2ZNGlBykfss1a/DjN9+JO9dswOy+gbd14g0tDRdhqK8f21esw43LVmLH8cP4wq4X8eShtzDZnkHHx+iLGhjs68ej66/HB264DdcuWoZWFPV8VtyVmWl8fd+u5Fw6ESOHqfMPp3gAV9rT+LsDb6Idx2AxQ3UMoiorlEJiz2MRM1lp3VP9DBljQcm1dySbKHBo2tnfrDHLc2TamwJPXR/JFlErm3ybZp9II3KcwiE5Mve2a1bjZ29/B+5fvxmtv8fOpHMOg80+3L16I+5cvRGvnjiM/7rjabx68igeWLsZH73lLqyau7BWjl4W7z0m2jP476+/gG/s34VurgwiEZFzrbq+/9HFA5hoz+CLb7yMbx/ZW/S5pDen+/nKkFvIUDFOQaKNtE4HgKan8n4pCodidrRFGlydpW0uSdBZTdKpJhQoaStINReyCdzt+XRCixNxtwMwq68fWxYtx0/edg/uXrMxOWqqR2Xw3qMdJxuSNRuNnjxKBODGpSvxfz78flycuIJFs0d6Co2yEnuPqXYbu84cx2d2Po+njryVH0rIO6FVfrUonTjGiycOpcs1A4pB0+KCtt66dvSexTmPCxNX8NzJI3j59JG8n0XHioLwB9LkjE7QyzXtLrZupTL7ZH9mtiFfY+shilgw5L58odHI3hOUYWMS3HMUCBXewgFYMjwHn7j/UTxy7Q0Y6h/o+Yzn2HvMdDs4cvE8vrzrZVyamsL7brgVmxYv60moG1GSQRru6+85NOrGMSbaM9h99gQ+t/N5PHP0QBJ+ZWuWSXbGpX205Hb1LrUz3TY+9cJ3sO/C2dRKp6Jv9MfNw8izl0PvBe55AHHsi8VRLPTOUp6pVwBY6CFzJfk90acAsr2QHBelbJoH9RSBbFOW/JB48hHt9L8MKNLxofrbzNul7tA7giByJbAH7wqlKNK6vFMtaMXKrFYfPnHfo/iRrbf2MMCVlNh7tLsdHLhwFn/9+sv4mzd34PzEOGIAX9v3Gh5cvwUfvPF2bFm8HAOtVq2MUEhYQqUbxxhvT+OVk0fwuZ3P44XjhzHZbhcWNbQ0khCmaodZj2QJ6lS7TTxEmr/LPy2kv6iNC5GruA7hLje5lkeucaEqtutP3iThNiOB1WkWITgAn2egqrNNuWKUnXEnmyVdBkCGTMFeTCCdxtNCpeMUOlMcI0KEFSPz8fCmrb0rQxzj+NhF/PedL+Czrz6HC1MTyQ4SaRMXJifwV7tfwrf378ZD6zbjp267F9cuWtZzGBYqHkCn28Grp4/hv736PXw37ZBb67Zlp886W61eoQFQmr/zZN4QMUx211TygKfJM3j5vCABsUwQlcIKJUMWIVlHuyoc0wMTkIofGqswb4hxhSa9E/vs5HdzWAo85rJiMI9inpCHmiyngPdYv3AhBmseBOh94r6PjV7AF3a+iC/uehEXJscx04kh14QDyZLHi1OT+Os9r+DbB9/EIxuuxwdv3o7NC5eh1Wj2HBYBiVea7rbxyvEj+Nzrz+PJw29hJj2nzhM4g+uDcyvqSuXElAN4EYpIpWBsSPgnQ1ghAGlIwJTCGVNruGcowiWXX8tTZsU7VGYMw8r27mX21bORPTOx5VCfjhk+RooW+cHtSHbY5iMGPD+bE5F1CQoFsBTQE6UIHYDX12xWIuJTITx68SK+uPMFfGPvThy/Mop2N+ZTtlXHNcGz3eniQnccX9z9Er5z8E08sO46fOimO7F+/iIMtPpq9TG6Pk46y6dP4NM7v4dnjxzElZmpvI/gqqyURkrt4l3JxfSf1e8oTkbVvocrhT5Xmwp1EBzL2dCUEplGAS88jFJiQJ2jncu9MrFFn4KdcokCXm8ZXw6vOXFThVPiSC1mcQAjG2JlDqRSeFKVY0pREMzYeiRQut7j4Pkz+Pxrz+Nvdu/A2YkryQAaobJVC4Uv6/jNdLs4c+USvvD6S3hs3y48sO46fPimO3HD0hVolZxPN9mewUvHD+FzO5/Hc0cP4kp7Ot3gi2bQKrrHpgUjs3zrFCKpKp0JIPaOpDNRNOgAO9kh+3ncU1SHfyLiCCpN6imEd9I4OKgjj0E9hSMDd2ARhxR41ecIRPUS7KbsBtjj8iSbEOpTyHwyUwLjIPYMoRLrGHuPo6Pn8NOf/WOcujyWTIGoGrI3d2Eo4AWAdtzFxclxfGn3Dnz34F78wXt/DPesvja4L9Nf7XoJ//6pb2CiPc3WuKidJCoEyN63qmBmrcK8X0ppUmGiFAGGq2SHscOKCtErlEKGS6lMOJev1kjxJmE4acgaq7TO15DZp+BuHqqjLfpJ1vID4umaNWwbJy43Iprsnmi01QOR6bOK9qY7bYxOTpD0pbVVibSzUkksUB1i73FlZhqXp6fLMMbY5ASZDFhYXbO/WCFQ9tT3GnRHYpSsnJTkSXZsgB1+BLI7sJCxcdCK7ZNFRojQ32hgsK8PcwYGEQG4PDOFKzMzmOnGiCHX2xOB92Bp/GImB4WXfhvuyVZc6lCJ4NQsrCrv9MVpOBIxz0ElwbJShlKILAZNg9Sxi97Ttbo2g7J66cHx9HATm3Q9WOX07WKCWs3MTQaLnHcjcagNStEvkqGGoi9Iv4J4bwm2SZUsJi9V1ITCDRdhuNWP6xddgwfXXotN85di6eyRfCyp6z3OT1zBngun8b3jB/HSmcMYnZhCx8f69CgNWEFz2VclfQodKNjZs8pZsnkfgsT7ud6kreTLfYTRtcKnhOlSKQq+BU+WryEI1vFekJ1SrquAiEUzoEloi9rSmPZp88GknGZa8XOhkvF2jZi8qn2V7Mj6SanEMyFzepZpaE2LxiGNwcVkuoTHyUcDzRZuXboKH73xDmxasAQDjWQQVCYpZrf6sGJkHt6xaiOOXhrFf3/jJTxx9C1cmZnK4UnayIxrAW9kKEUuQ+RMZDrNI9RXtZYDgzwHWB/C55UxJiilCFilwDWzQCy06FUpLCGR8aBAkHbks9tEkuoaZk/+VziQ5bN5p5R4Bpk8MGPc2nlXT37LWabG+9aSMtmWZI2a/2804D1m9w/gQ5tvxYeuvx0j/eUTL51zaDqHZhRhw7yF+I3tD+GmJdfgT159BmcmrhCe6BIHRIvdTr1FqK/qrDoIXShPIms7C0r2PIQyCQ7rc/Yc9FrdZi/UKrEJL79nbXnDYSNt99R88TI7tIXoit5ES6NobRFTrzhOX6Mhb/Ck2CLG5fB6ZEGPgF9UbeE0u68fv3z7A/jpm+7C3IHBnuZ7Oecw2Grh3eu34H+9810YHhgQCku3si8Ai0F4z/744gV2j+LgBU5aAbMtbqL8Bf7UyHx484w3kzfiQSEzXr/fmz7YxVvXestG631LYK0GPP0ivYitCiu+vmr8cuJDhE9lSs0fxApx014FaJTc6G828YHNt+C9669Hf7N11Sg1XQPblq7Er267H3P6Bmz9DgLmTVEq3wLRkHHDEBXrNQp7oeEgDIgNafYA2TxLWmPuGfR1dUnq5icZWbsDKgdAf/rMJsqzyOr3IZT3ozxgsiq9o+EFrmI6d0Y/6Veza7rPU25MhTeyztH2xrW16DUCsG3JCnx46+1vSxmyMtBo4eE1m/HutVuSM7CFolveUO0lCyFXIPz2/J4X1xaBI/GFSk9pycrcFwVeNlJHKTzFqbzUzEgpz+ahrgW6PXgowxkzpeBKIIUsAS/MoFqtG6EEfSAzk5z+vqTigH0QQjXY7MNHtm6vXMfeS+lvNvHBzduwaGi2gomDwMOn/MLTPzJ0MlC3DCm5F1We/xXoCgDUi4cZq8beeg3b2ad813HLU5hK4O0+hcmBOnB4IfAB6lvxrLJcAddtYc9/WuGPt59z4qS0I/CWhCPZa845bF64BFsXLv++rVzMyqKhEdx7zTo0oqqjnTl949A76QbLuZJIb1JC7iZtqkieeDXwQnJ8+ppxJctsUIY5NaLspTnroVg7BEZqsE4NL0EerlG3OCoZnmewsh80GxLJNeUc9ZyGdVOuQ339+NyHP35VtPofWWJ4HLhwDn++81l87/gBtLtdbFuyEj9+w3ZsW7IyuBa+6SLcv+pafOWtXejEM0QJC/qyBKIvMq45VdnKumyXQMfXaNPR04wRIgUb5RfWlizisrSjbX9l1Fnmo0OfVb9jnZCqwhvlKSyceHFwWDVvIZYOj5BDzGVIKIgsWrc2I/7HWA5cOIfffeqr+NahPRibmsJEewbPnTyEf/301/HiycNBTxg5h9Vz5mO4vx89CBN1BuFvYv0sFPEAKDk0zludK7lDN2mTPMjic9afk51So54SUFTsZR3aEgcazO8qK13ddiOK8Mi1N+A/vf9n8bO33ocVc+ahn0wdN8Mig9jBjvY/IkX589eexb4LZzHT7eSS0+52cfLKGP7i9ecwXXJg/FCrD8uGhouzDkGTHwXhPLv2pCNsMVP02WSfLr3H+hDscxnPeoANYFmeJO2Z5ppqIcBiZlJ5XWGgnXEpRIZSxCJG52lujUMVGK1GA+sWLMKv3fsu/OkHP4afu+1+rJ4zH/2NBhyTc8+sVmx6DW8ryj+C8syx/Wh3O8oTdOMYu8+dwtjUZNBLODjM6R8C0YeMOmJcwivPXJzElL4jeRJTxSindxQCsDgbwQ6ndHQQNreFFa3ocFYUH/pV43w0a/AuK1OddiUkLt01cNXcBfi1e96F//f9/xQ/efNdGM62xwkqOvdU3njnbY9T/AMpbeIBpFzFsSf7XtmlrE+lJLA0XDU+ILGVPE0qh9d70oeQDxUA0tfoFGfWboX3YunOeqIgXZ+oDzA9haSeGiFGwqSdJ44kU8trliiKsGbeIvzqvY/gsz/+S/jYrfdh+cgcNPPNEQoTxT0nxeEfhxLQsm3JKtZxzjuqzmH13PmYNzgrmKHy8Lg0PQk7I0ijDfBrUgM/s8+zgMI8NcIIWUsXGNdJB1odlEIZmU20vqhf1GeW5+JFnXln1NmJu/jmW7vx8rGD6bG59UrkHAZbfVi/YDF+5Z6H8Sfv+1n81LZ7sGx4brI8tRZO/3jCJQD4iZvuwNKhEbaPVeQc5vYP4kNbbsVAyWDedLeD0+NjuczVzbmU54KM0FiOU4hfjcF7b/kk/UhORksuHb0o3iM/2AQ1+k4WE7JDPbIvHK5bshzv3nQjmsaKNQ/g/MQVfPqVZ4k7dqRNCWuiNXInBi9wkK55oj2DZ4/sx8JZs7F0ZA5ajQacq7cVjnMOzaiB+bOGsH3lOjy8fgtmtVo4cXkUU+2ZXCnZcQKUVOn1L9/5UGk7k+02ZrodtLtd+198tf9itOOO+Gu/G/sYzSi8snDJ0AjWzVuEs5OXcXl6Gs2ogfXzF+JjN9+HB9del4xGG8V7j70XzuCv976GmW6XyRGXs0SYHBcAKnLIE6yMeUJmvORB8UHT2spDL0Chc/czBvOp12yRTjqOkS9Uye+lAPsUbOdqpVRZ2pi1mc4w5RRR4xRSweVyw24c49jYBfxvj30et7y6Ej93xztwz5pNGGzVn57gnEN/s4nV8xfil+95F9635Vb83uNfxpOH9uWj+mwhPUOuXPUm2238i2/9FY6MnkMceyYIQi4YXuk6YMF58dPJeoQxzGp0DjcsWoFfu/NBDLbsTSEaUYTty9fgpiUrMTaVLOqaPzircnf0rvd44cQhTHZmOHXoQp4sVCJrXdj0/XyrpOQZGxfKXqNT3QMbFzSTdqu27TBumUvnyFvhpXXi/fIy0Gxh3sAQptoz6RJSDkmuKGXteZ/iz/OudCcJ74GZTgcvnDiMN776Ody+YjU+fNOduGP1esxq9dcenXUAWi7C7P4BjE5OkIAxXbQDkEVX9ZILsY9x+OI57Dl/Jt00ufDAdOVXcZ1eqcFJYSkB03PTEpF7p65cxg9uugHXL1oe7AA75zDQbKJ/aBie0rykXJqawHeO7OEHw1P2qTsGi60vCuEA0Ybitti4wHt6yebZ6PODrdmBuqMtQzifC2PC2AJ0kY01S+QcVs5biD//6C/h5+94AMtG5iWhVeYmVMeapltjOyUrPuKJAY9ut4uxqQk8fmAPfu3L/w2/9IU/xWN7XsOlqcl8S/iq0vUxnjz4Jt48ezqx6IJlxXl39TsQsY/RjeP0gPnkX9cXv+l1fj9OfnfFveS+T/7R+mJ+HXuPTuzRSa8vTU3iL197HuPt6Up4nbFQyCqdOMaX976GI2MXc5ljSQeafmVkJNPEzZRs0emkcqf6GGSahwPQGLhn2ycBanPAXWvVlofEQpEXeDUuifzye1kfwjlsXrIc777uJrMPASRKMX9wCHesXo+HN16PwWYfzo1fwWQ7PdeBmI/c5bN73HOYTBIbc8ElROzEXZy4NIrHD+7BjhOHMNDqw/zBIfRVnAsxOjGOf/fEV3H88mhBf2G5mdVzDr98V7gP0e528aXdL+PcxDg8fDVPAjjB4IH4Wdyj18STnb5yCfMGh7Bp4ZLaOyGW4fXiqcP4kx1PYWx6EkAVDlb/1epnsNcBJCvtCpobOKYPc4XgdZYTvJL4JQyhMDvnsH7BYrxny7bSbWCcc2g2Gpg/azbuXrsRD264HkOtPhwdPY+ZbgfSbustGz1jbN2TOrNltTPdDo5duohvpdmoWa0+LJ49B81GpITCw+Pre17D53e9hJluB1RbRbTOyPzLdz0cxL/d7eJLu17G+cnxov+jeGAZJpns0Dywrgn6Ct6ZuIM3zp3C6rnzsXT2nGBHuaq0u128ee4Ufu/pr+HU+KU0wtbwEwhzoCwFqIWD4wqh7L93aPTdffMnzT0/eb0mE6quVbYJmSIWk6wiRPjRm7YHO2qy/shFmDdrCHet3oD3bLoJ/Y0+HDh/GtOdDgt/nFPil1/kntawQDo5UfQxOj7GiUuj+Ob+N/Dy0QOYOziE5XPmoumKcyMm2zP45De/hBOXxyzOMlio1apUiN1cIerzwM4AMva6ciXIrrP+yVS7jWeOHcD8gVlYN29RaebJKp04xosnD+N3n/oa96IWDtILEKBMxRb3ite1EbIyfo3+e7Z90gUeVilEPeC1lcq7sg6Y7MxgzbyFuHbRsp5OBnLOYXhgELetWosHN2zB7GY/jl26iOlO21w8nrdqJQtKvZ+2vLH3OD1+Cd89tBc7jiah1KLZI4AHvrl3J76w+2XMdLua+IrMhdf6lQqF+KvdL6UhU488kThUCJCEWV5nKc12t4NXTh/F+fFxrJo7D4N9/XBpGGyVOO2zXJwcx+d2vYg/2fFU6hl8DSW24TXTrwIfKQYejice2PtIFELGsxwOw9JS+A3gLdctEcqUotPt4rWTR7Fg1hBWzl2AZqORb3JVVbIxgAVDw9ie9jH6m02cHBvFdNxJxgB4Hu9txd/0XoxkysexSxfxnf1v4JXjR9CJO/jLV76Hk5fH8tQgJ2HYlVcrRNqH8PVwsAwVg6Ak/lZ9DEMpvEt2JN97/gy+e3gvTl4exUCzD/2NJiLn8gRAJ44xPjODvRdO4av7duJTLz6Ox4/sxaXpqQrPUMEDUynInRKl4H0KET6N/ObPZEn5IuXUax/CuqeskmRI8itKgRrq78PWJSvx03fcj3vWXYd5s2b17Iq995jpdHDq0ig+++pz+NLrL+H4pQvk5BuKg/ZGUZm3CwiMI9+2mk10ul10va9WAkHmvZ/4N0G8xmem8VOf+xO8ee40YsRFDVcRwlYLWSAcCXi7jH+NKEJfs4WRvn5cMzIH8wZmAw64NDOJk5fHMDo1heluB11f7MerQvVeEzglSlFOb/4+HYJlu38DOk8eLCLvX7rHUD7yQcIlOngHjyvT03ju2H7sOHUYd6xYh5+/+0G8c+P1PXXanHPob7WwasEi/MY734P71l2HT3z5L3F07Hyt79lCI2P8jO11m/6XZc+63iNut3OamLu35FUW9VSRmX5d7z3KIuusBLmVJh07sq7zT1Makwf5n2ROWGdmGhMz0zgzfhn5Sh7nggpQCS+SuvlW/OJ8CtIPU+MOqv4Mh+CHhezD01myxqACS9fLhfom/8DWU5hTmPhNH3tMt9t45vA+fPwLf4qf+Yv/iL/d/QrGpibMBUCh4gC0ogZuWbEav37/u80MlrWeQqdkjVm9VQupKE6SSGqcpoKG5eTNx3kKnOqM+pescRF4m/N9xCQjPqEuKcmWlck4hrUkWRFEjHdVkVfJlUlGuiVP0YhjFft8KCK71zTqoSekMhJVRfbmiDfk1BGxbabLiJi26ZMsxOWpKTx+8E08d+wgbr1mNX7ytvtwz7prezqWt7/ZwjvXb8HcwSGcHb9cOXoudwdkAi066Hw3a+E50ntkHBza6nJ/UV3SnRUJDpaHkZujFWdTkDfJbJHsaCwLfsA+c9oio73NJwdSb8WfvEBhyxS93ibRnIJsiTDBgdLcFw0XOBCwm7nVchywBMliy8aMEjQrQxdbyO0Bq46S0odqc4bBAZ1ujMvdSTx1cC9ePHYIt16zBj9x+z24Z80mjAwMotmIKpV0Vl8fFg3OxvnxK+jCq7lPPj9MkB8uD5BtMyWTSLjkyLUWT+mms3v6bISqknllsymJk4SCKgC9md0hPNA40W0zrTiyYGbmKZKww3HFZzbBOEZFVF33uF3LCGkuQCuJeJDtmt40g2VJPYJ3wYDe4kF2ik5ah5cjj6DbZvr8QTeOMT4zhacO7cHzR/fj+qUr8DO334/7N2zG3MGh0kE9AMngmXCtOszU52Kqs7RpXkL0IbLNdVn9VNFFtosrRb1SsCM1OvKgQhbzJ/TP+ZDCoydlajby+oT1RaEkgLCynJlElArPwI7XJRVUHayYhUrJJ6RjYyixPJidBkvcm3IcYp/vuuHBd1cusGOb5VrYCgZwwoowS+leSmzniIBqt5vJVgyPqU4bLx07iJ0nj+H2lWvxT2+/Dz+09dZ60hQb7TMvEJvZJw5/wErCESV25qcQoUat+Y+yErOzXwQNSRvcW/M6ZKPkGEeyO4rVLeWeIsEzqU54G8v7GXhqVNJdu9GjXFEupB1vIBA7WIwgNTRZjOjFXPIUYn5SqSOzleXh7GLwK9Xq2pv75u0lPyKDuBl8M902njuyHzuOH65UCJ8LB1Xi1N4TAXGAucUNwPsV6rgCJQdkgrmMcbgLIZ6ivDSiCFHk4HyUC0zxWXERmmUA8DDWpdNS4tjnAsQFJkOFhz7erpoxUB0ESb8WAi8FlMlf9orRN83lisArT0f16XMa7umeGz9H2zz6k30kEVBUlt8a2uu1UjANlvPeU2LGQilknqATx+jEM6gunv+mrrugVfGWaR7BFZ2ShCiBTBZIp2J3hMuh72s08MEbbsOFdGDOojsLCYISm77jkjD09JXLePHEIRy/PJqsd6YhbCBG5+FSodRZvbZSAGor+3wfJU+rLuQBRj+0aKS4J0Mqp3onihG62+pzHJq8XgJ8+jKlLd2nXwEPfi+oRFTqQq6QMCBOryNJh5yK9YsI4/kFMU2kJ0Nw92QAx5NPKMH50VKhQ2akVaoqrUYTP7r1dsh5TG+3xLHHicuj+KNn/w5PHtqHyW4bliWwOto5H4JxiTwdVVoR3pTMyUkeBYL2/KUyJbCO8ipe9+wyygJTtYuBRDC9Vexj6sWbxTtpjawatVYWReaEfJSHyQoW8aAn0fDF3xw2Ba8Ezl5PoatmSOYGgtYnceRwaYyt0ogiNKPG9/VfX7OJ1fMW4l8++MN498ataLoolQUNuFcwG2QuxILQTPOi6O8YMiLW5eg2vKqPbwCWfBfc1rOC5mJfJhPywLXRjvkNQdD7gNMQQsWQTX6w8xgIsrXH6zxXAhsHQ0lEsfaShXpX4iAHw4Rx+P4a/p6KAzDSN4hfufMhvHv99ehzjYIWAkgLR7VxGEc8pZneXa8UZbXhnHxcoSiS1VmfIsMhR01vhhZJrlj7kBWoJRdsVw1LKQRJvFAKX4GwFqCkNr5tIZ0+V11s3dZKIvfsyVfekXesrfgtK6Qx0AzoYQD+760457B4aBifuPdRPLJ+S57GthSWG1jbyISjDWHM6A+lf5RDdTeElsWHfwauI+5xCiZ5iTDRKh0+CYQCQs4vtb2x9nniwOsYpw6Z8ohJ4KTCvQAOnmCblUpPYbhyQsESy/s/pzjnsHD2MH7j3kfwgxtvwGCjxQ0Twcdkh2FY5S6Nsfowq93r+oBSmbF2TffSkObhk+YJN0zFo4giIIs3fjlxyz6Ag39Tq1h9DAjgWZscoYrKS5/UgbdO+GS6cuh+Uk+g/w8sEYDFs+fgt+9/Dx7dcAMGmy0jCrbiVClDPnBPhk+0E10d0ooK00ttmLSDsiq1GUEONjUqEFa0MJrcc1ghlGVlTY02dwTk1xYy8uSe0iJClMJVG0osXDUjjQidAOOMCu81Q3wg/g7iaKCQ0ur78a+sOADD/YP47fvfg/ds2JqET8Lyusgl6SXniqxgRjdPa7KVIpEZLkPMMDHdECGswXPrdCbrHD/Ls0n5IMfyevD9gTysKQd6RLtqmIa/Y448GvNW2GhGYJwiG0mvVXzFMxfCJqVLnslLlKJ8RNvr5anqXjntaOnEMZ4/sh+Xp6fCAVZFDjd72mw0cPOyVZg/a3Zp67P7+/G/3PUgprsdfOPgbvjYY6DZwtyBWVgxZy7m9M+CBzA6PY7jY2O4NJOud4hjMXpdTvOgnOkBLsKD6rGuUKNJNS7I8yZNw6oBs+yuHHhh4xSpKpO1DZFsSYxL1DrI3JjTns96zEInV1+oeH+BzDlyBmXElA7rAHrv07GKfB6MPLTFw5oekBijbFVXkSMvK9OdNv7wqW9g7/nTyU4j9JucrMUItVzoxf53wAPrNuO3738Ui2ePBGcNOACLZ4/gE/c9iuH+QQz39+OuVRuwccFiDLT62EDzxMw0Do2ew7f3v4EnDu/FqSuXMRN3GX31JMdiM7GISCcjM7HRV2NY9fw5gP0kc6GQ6kEz17ccTqoAHrSmoj5LiKAVQCJkzSQTCOUjjVLWLdnPFaeqFK5bTWWmmFF4iRIT0pTCryYDWtPh1XW9jsRMt4PJdhtdHwd2kiiusxKJ60QJHb751i447/Gb9/8AlgyPlExCcFg0NIzfuv/diFyEhovMbXwGmy3MGxzCDUtX4iM33oFPv/Y8vrJvJ0anJhTzFA+kp2A8AdhUcTE1SE0VCtCcTR/y0IuMEpcPD9KHyCw+63mXdnBkV7SIt62TIs1iddCMBS+yT+HlvYriTZysQLKqUyd7Ajpgq+xokxTt2+9Te9XPM+EV/cd23MU3DuzGHz3zTVyemixtwQHob7TQihqlG49FzqEvamDFnPn41bsexifuehfmDg5CTFoyiRsbPBG9hhIeaBlSJ9Iil3BWvwVRycCcbL8QqLCMFB3VYq8kTwCwOrJGk1IpDKFy6FGgqFII4FWHl8IrX1Cjq7ZSyENbrK34XYjmNlGQQ6VobiiFz7bhNxTfe7S7XXx930782+9+Ne2bfP9Kf7OJRzZej3/90PuwZGiYn9GXwS/kKjSinXkG9raSZqcI6QI0l/T07BqIiuNuyAtCePi4hETGBxXJOtjc0vfKkccUMs/quQorS3WUCYhRT44qt1qmChnTPELN82b1Ubq1UTGUwmqQLe9kQgZMdtr42t7X8fvf+QpOXR4Nd9ivogw0W7hjxTp8/PZ3YKR/wLLrqrAtJwXd9JQOb/AoLGfmTc+/gfeI4tB3tirm19xQFulMokYJkqQxhlCNHL4GXodPdYuXFbHPDStLYLTW7+p5N5pUcXnMmStFHSw4ulZIa6TF059SKSgPJtttfGXfa/j3T34DZ69crk3POqUZNfDIhq14cM11aEaR8AwSn+QfPy5YxDZK4Hm0IRUH0HJljxUVTUQsEo5ZU9ycZG0xgEW1Af7HRss58IxARixYqSi1xalCqDzjQVIcFyCBo7ZcxjgFSPhkKXHAKpaiK8MPwQNlJ5XgMQqg3enisf2v44+fewLTnXZNOOpNpxhstvCRm+7AvIHBnIoSfolDbFTLQhumBBZPNKxl13TsKVI1BD2/GSyYHW8r/JAnCjGEZDNldPZv37GH+chDi+x/h3TfpUYDjchp+KRSGFXy133lO9VIZJDB5oFSzBLDBMDHHrMG+hBVbOAQe4+JmRkcG7uIU5dHMUl3SjSKcw6r5izA9mvW8TXqYRIW8BrSLT0D6LUwdmU0Vx3v1NLkA3MxSMow9uTAa50akyl2nUpLU7nZEZ0p4/JVy3l94DG04+EJXQrpKnP8FYURl69PsBa4JJtvJUqwfHgu7li9Ae9YvwXPHX4L/23HM8lJN4HBvGyMwqNYfVeZkq2FQKGm4VVf8l5GzyQ9ae+O4dHfbOHe1RvRKBlwnO608dhbu/CXO57BobELiKII1y9ehp+95X7csWJtcDeUVqOBe1atw2P7dyH23SC8DNeUJ8maiuTaG68VPBBUMVKyFk1zGU8/LFbMObJ0EyjO4kpxdJZS5A+oUJnsyhUjTuuIrJPnS8Yp5GCevX+rLpFzWDo8F/vOncJkO4aRfiaUdWg2IvS3Wlg+PA/bV63BAxuux03LV2P+0Gy0Gk0sHZmDz+98ge3sbTEgXdrEitrNg467VJU8zPZ5zhwGD/TySz6gCoDwAHldcwcGsWHBkmBqNfYej+17HX/w1GO4SPbJev7oIZwYG8MnH/oRbF+x1vy24RyuX3QN+qJkZ0O9m0cCj09lhPGEKXEiI5bM5ErhC5nIwilrjXmx/JSLXTO4Sg30QGxrUCXHRPHNGlSRUz34CrTiOy89Q+XAS3m8Mdjqw7/94Q/jj5/5Nj6z41lcmp5MR3sT+KN0f9hmo4FFQyN4x7pNeGDj9di2Yg3mz5qNKEp2HM9avG7xMqyfvwg7Tx1NhYIqgS8OHs+FtmrjgmL3kbISA4WFJJKkPJQwXBZ32CPv4aIIK+bMTSbzBcpUu42/eOV7uDA5jpjwoOtjnLhyEX/68pNBhXDOYeHQMGa3WumxWR5MUoIOv1DiOtM6CtSDIQy5xY+Jy6bVNHVlyDU4BpI0VETWMxN4tJUyYoi0YVZ/WlW+7xNcEKGrn7dSMGPZnPn454+8D3evvRa//60v482zJ+G9R8NFWDFnPu5asxGPbroBd6y9FsMDg8l+pYH6B1v9uG/tJuw6cxzdbtcYgdd0sDYuiHpQao47hBkBEZpiIy5qZbkzpUapOP9vzsBg6c7d5yev4NDo+eIQScKDTjfGS8ePlMIdOYeR/gGcnRw3ZwwUpJNThTIYinqymRBhTwElp64qzE77FPkZc2pKQUBtSejNGyS/pCfxDG9OBLkbEovpclitrUiKWsYmJzAyOIiy4KPVaOCdG7dg7YJF+C/PPYHJ9gzesX4zbl6xFguHR9AfNdCIokpFi5zDPeuuxZ+9+BTa3UkDmgDtLIPdSzE6zswwIeQPWOBa8In0KRqAmdkBqbfpyo7IcuhrNlFVWBskIkmuQ3VLefH0WDhTCeoqhSVXTfKUeCcBQL63pSQ9ya6IPoRSSOb9DKuqrqGAT+onbi69fuKt3Xh0882VTGk1mli/cCn+xaM/Cu+BZiOZn9NL5zZyDluXrsSqufOw60wx+9TR2D67RoGDR5zyPpkQqLa3qVPY6Kqz+3WiT8fIyMjKlWJ0chyhbJFzDnNnzcaWxcvxwrFDRciZ4txqNHDf6o2loLfjLkanJuBzHFJ5KUDLfzjRJ5ITP4vTXEE8g/QUOZVAqq70FBFLE/qkggK45BcfpyD5jvyHZZvkAXgQVq5IlVkbF2Qd1aocnfce/+Hxr2PvmZNo0zOOAyU5PreFgVYLzajRY6YnKUP9/bh/3ZZkRwma7lM5co5z/cDIKpqGWR+bNuQ1c8gsAy+rSMnucWxsFOMz4S19BhpN/Pxt9+OakbloRVEuzn1RA9cuWIyfvfXe4Lex9zh5eQwT7RkUh3lahNIj93rwrgZpmCfyXF5U/Xw8JZJtqI0A0hqkUnAAwlzX0z7kiGpRbT4uyBD0oj6t4a+dOorf+OKf4YXDb/W0S/jVloaLcPOKVWKbywABRM7cg+86rhYYGcVDiIPkaugeo5u+poONY1OTOHjxbBAW5xy2r1iHf/XQ+3D3qvUYavVj3uAsvGfjDfjdd70f6xYsDrYd+xhvnDmRTwk34c157u3nBj35qLagVqlh8jabfDoOIbMhPu+58f148t2K0nGKPC6l/QXVqUveY1ibCDrA+Ib08QkzefYpjmPsOHEEP/anf4SP3fEOfPzeR7BgeKSnI7pCJbHCMdrdLo5cPI9nDu7F3+5+Bc8dPYCZuEuiPBecOm7td+d9nGSvXL3jawkrRfIDom4ynV8E0nlIxXZpS35Mddr45r5duHHZKvQH9sptRBG2r1yL7SvtbFKoTLZn8M39u9ixxkXUJnuNzpIAlRiIsxQy2FHTtcPyPCULHmKlA3PG8LTRT2SSmZnzKI31JF+sOmo8o9vih/sYugLvPSbbM/jPz30X3zu0H7/10A/i7nWbMNhqXVVYFKfzfE5duohnDuzB3+3dhV2nj+Pi1Dja3Q46WQ/RgFEqAY1dnXNoOIe+RhOLZw/jrtUbcN+660phyeU6jZHYhsWuUBOqBCGlKGiXik1qvLpxjG8feAMf3XYnVs1d2DO9yuj4xtlTePXUcTJ2xAhHaJT+ylLKLBgICEzep7Beq+qr6nrLe6Gk45ojmFYgD6MtJIF36vLkKcknO6r1VRqN7Db3JFkfQwr7ZGcGO04cwsc////hx7fdjZ+/50EsGZmHZg/eIvYeB86dxh8+/jU8dWgPRqcm0YnjZB9U8OOyLGtWMDjhaOTSI6caTSydPQd3rdmAe9dei1tXrMW8WbN7OzpMG/f8vrRZ3IkEkh15FR6nLo/hL3Z8D//svkcxUDIm0Uu5NDWJ/7rjaVyZmdJI5I37FH4uM8XgnS9wqhN9yGXOchtNmbgmctRkOf/MUzgi8nkP3mkYADKira0Ud3WF0uQCngJf1FkoQZFJcPQ2AJ9vPZ/ArJcNdr3HhYlx/PGz38bTh/biNx/4Qdy1biOG+wdreYvIOayYtwDvu2k7Dl44h7GpY+h2u6RNkakB0eVUy13k0IoiDDT7sGxkLravXIcHNmzBLSvWYM7ALDTSM67r+K4sL8MECIBK44GGrOQaYNs4cp4UAjTd7eCvd+/AtQuX4QevuwkDrbenFNOdNj792rN49thBdONYZQgTOZPaS+WM+FrL2BIexGl9+WCytZesE0YilzvkFqYR3b71k/acD2F9xRQD74SukR/aIzpmVUmV+XU2ks5sRH7PyU8rDxh0zqETxzhzeQxff/M1jE9O4YZrVmGw1VdLKZpRA2sXLMIDGzZjfHoGe86eQDfvFDoT3mQjCodm5LBw1jDes/km/Nq9j+BX7n033rtlGzYsWoKhvoFkJ++6UzYAzHQ6+IuXnsbFqXH+gApUDoaTP8HeEjRnzPCJUrx04jC2LF6GFSPzKif7hcp0u42v7nsVn3r+CYzPTJs8ytoVomLgIOGVMpTcixw98YDLTNIKd4+W3Dcat2/9ZOhh5SmWgIpnGQMEAlVKwUGQ9zh8TnE0TPBOt4udp47h6QN7sHxkHq6ZMw+NRqNSIJPTUQdw55qNuG7xcuw9cxqXpvl5d0k45NDXaGH1vAV4aOMWfPzuR/DbD7wX792yDesXLMFQfz+iqPq0I6vE3mP/uTP4Ly8+lcyf8gJPmvwg15z8tgBZ194lCvj8sQOY0z8Lq+cvRKuH9HTsPcamJ/HnrzyDTz3/OK5MT7HnzjSkEt4KnKicsegrIGeMXE7fpvRpffxDnjWvdCCiF4Y2Jz/yt6J6wJcpCVMCZDtIB+CjCAaYlt2PXIRFQ7PxkVvuxsfufhALh4bRbNSL39vdLk6OXcB/eu47+PxrL+LK9CT6Gy0sGZ6D7avX4eENW3HTilWYPziMVrPR84CfVWLvcXFiHP/2O1/B53e+kCuiZagsegfv1TFUkcOcvgE8vGELfuqWe7Bm3kK0Gk00nD6cPUkdx5hsz2D3mZP4sx1P4fljBzHRbttyJT2bxIlZdXqvynPklSf8Nu6Zhp8+b/3Sh7xWAglsJGswgeVKIVByqcti3sPwAlYbDEHDFSoEFZVynByAvlYfti5Zjl9/5w/g/g2bMatmGOW9x3SnjSf2v4nnD7+F21etT/oEg8mZ2lFUr09QVmLv0Ym76HS7OHThPP7sxSfwpd07MNlus/SsdS54XavK75UbplYUYf7AEO5cvQH3rdmIrUtWYNHs4XyaeLvbxfHLo3jj9Al8c//reOXkMYzPTCP2sfBMGl6nBc8Mn5wCi3iZ7J0qpTC25OF/km9c65d+zNcJR1hH22IA+SbikJhMKojkSxFy4l6kALUJXnUIuHMOw/0D+Onb7scv3vcuLB4eQd2SHTfb2xhCdenGXRwdvYAnD7yJb+zZiR0nj+HKzFTiGZzI7AWtqLwnglD5jlIKScfkb+SiPFM20tePkYFBxN5jdGoCE5022t1uQheS7ak6mF2FTwQeKjPO5HlZWM7bsSIMKeOZUqQKAaUAdp9Cegpbo4OeQimEhQyjhOpTRJxSisBl8Et4HRwG+1q49Zq1+PUH3oM7Vm9AP9mE6++zeCQj1O1OBxcmxvHtt3bhyf178Nqpo7gweQUz3S5iY0A1qrK0zBJymocVIsQDKcSp4XIOWQ/MO/B1BjWUQBVnG1YTXvLAxNHwdJG8VxZd5AphfGAj1GP4xCFSQl+pKIFwCtAbcZnw1nin2WhgqK8fP3nLPfjY3Q9i6Zzexi3qliQlnIx6Hx+7iGcO7cUT+97ASycO48rMFDpxNz3zTZJT01x6ytLw4+3G5PQeeSjDkRDNK3kQ8AJmdjHk/YKKXdQRFY1J7Egf4hd/TO+mWBb75d9H6n2tnLqzLd2c9nC26wtlDqhSWPFhCAeLIX3NJm5csgK/8eAP4J5119XuW5QVn/YJJjszODE2iu8d3Itv79uFN86ewsXJcbRTJVCunA1agilFVMvKEvpa92oIkKrBaQGylMJZQtdjSFuGE/+pvYmJE4PXwjGdSdD6xR/zvEH9gQK2Vn+iqKDoU2g3l/ciyqySCp/4B5GyUJoBEocQ8SPnMGdgFj566z342N0PYdHwbLSi6rn+tMTeo9PtYqbbwfHRi3jywBv47v492HHyMC5PTaKb9kHYmGSllU2JmMf0NQSK4CV5ogyTxQjpnUtDWP5tHSWo19EuCZeChjVsSK3wialy8xc/WEyyYC/7SoSSe2VpWcO90rSs1GgGp9MIGgwJhU/hNHI9JjWiCBsWLMG/fPT9uH/DFvTXWgDj0Y1jHLl4Dk8f2JNMAjx+ADOdjp7DqKyUQlD0iQgVhRDyzrY2TKWdUkH4OqGHBb/tKeS1Dp3q8ETjoKSgfvjkRDpW/OEKIYltWinZ+NWkZK0Qqz4DLKWw48OK2NW6RyxQ5CIsHJqNH992F37u7gexeHgEEcE3myYy0+3g1KVRPLn/TTy+bzd2nT6OcxNX0kmA9TYnNhVC0DqnpCFUVSnZOn0M0/IanjuEg+SBJS8WfPXCJ8vIBXAQMFs4BDvazV/8YGa4ilGCEqWwgRX596oBPDP7ZF9zmn4/rJSBk6HEjrTQ32zhxmUr8Wvv/AFsX70OA80WOnGMo6Pn8fT+PXjqwB68dPwQLk+nHWOWfrRhLo/ZC+9sew7d4Y8CIaAghOnBnXVd5SnkvQrLezV9CMtQadCqQkIJPwdMKXHzFz7oFc0DsWg5MpFxT7uXiElvDwgaShr2FDYOrhKHsFWKIodZff3YMH8JVs6Zj3MTl7Dv/BlcmZ5GHMfJssoKy1qaZq5Q2lreGUIxagqMpTgWvL3gEFlKcRWKUrejXY5jmCdMKQC45i98oJikXuK+ZSzo4a/aUwSVIqgA5QhRYYmQLRrRIaBSCF/RTwp4DrbPj+wn1cbBBYUl5K2Vtwtsb8OVon6mxm5DErEi5Ev/RMLTsXfepueo108qGxDmENHwKVJLE+kFHRVi64WzabhyXaLcxtHzLQOzpX/ZNdlLtnieTnZmsGQCCLHGVvzy8qwBiQMFTZ4GapR0mSXbATxd8lng7lGKA+cSXz7LQCwuvICBs5PiwJejJsyVb9pn3ilE1bUx3ZyAbb1KL2J4tSTYIK9kaq39YiFGxAFnNCPOEaG/hAwVB0F6sc6Hs8bA3gaOC5q9nziHgXwQC+ClwBMBM4Gx4PNiL1MNRQk6XtWlySCOqyWoSB03ATVxROB5oSS5AJUUfQgkFI8YNQTh5T1LoBT8MKvnOOS/hAJY6BtKYu0BzGliw89JZikFoR2yNTjeFhZPK8kakJvGQn+rlMJgeG5BMkhigRAKsbMXyHPY2KJ5hqSAWeyykB0KXnUGstpIwUueW56CGEDOKSVKfDMG6Sm8YIMUmNRTUOUUiqEOP5cCL+BT9BaGydpRxVJadhyCL2nK2h2DAcHMEGeE4IFlfOXuJCFmRhIhjplAMI8SfIh2mkkEYYshMYGEqlddBAI2xiC4/Kza+1UfDG6poOdCEIRPCpVUFOOJF/cU/DWO+DIEhtfn+LWXwkBqUp5M8MUXUFne2gucZBv5kWpU/mQIHmCjpehhI1Tc5udUM8sb9OOKVQzoiuKNKuIQ1UziU4IJdyitanplbcUvEA7iYG7XbwDBBdT2tiYOQRoVSu3KPpDhR9VJRmVGJq/PBz8tc5waxAKHSFxbH2Riq45UUw3oCriC2caFo0dMDbmOFBM9rFvKSlkMskIN01MYJMz1gYRPvH6vFUDRx+eGSn5fxPee8UUfzi5w9IanKHWNWXte9CcIfYPwFoBRw1Q4ZO0dZYjioJXC6ldYDlZ7Dn3ACf+mgE/SQFrj/OS2kIcndbD1+4QvQUXxxZdFlbl6KR6Ume6Iv2GFT9Kt1TBzVc5ChR6ArfWyvnIvZYMgXblRnPzWUNmy0EPiROCVSlHdsffGL+OCoOSt12o4bF2/DZ90KqaRt6yogDckOlKufC06WRV5GzaDMHIDvew64l9xhJTro9hL18MIZngKA4GQpwBQkn0yYj/FkMLyyjaKbTP5x9ozlChR7l5KQiwCuHR6ObzCyipPASEsEiQFL+VYRX8iC/WUpXWMrdqFyFDDAkF6No6DxQPZVFJfuVJkXoMrTyC6UDgRPpDrKKDvmuDEKtmeQkspS5+lblyHT7qTl3e0rTPvgvAa560p+Ei1BF5L8YPhlKhZjbOYxlAqiQWhFDIrfKK3uSGyDAeM01HjMiXOAPDaEFkhFmdMgC+WTEulyNvwiua1lERFRUTRpVIwmHWJfLDx6njL9oFhzxDs8JXsDWsP3mVIl3kKSSnr2qra+oZaFG8PkkmhUjS1sk+yekMpBM7VOBhKIklqjbWodyUOtiX2xuthvagbBlEcDPNSJy1OeWIphaJ30k6kapFYstCDW1Wf1VbCoAwBfq13TJa6aI1TWF7c4kpo3IIKfJHUMlw39xmpPHCl8Cr8gGrUG4ThyTSyV6vJJH7X1m2tJGrwK/MU5J3Y8uZGDKMxsE8SVe+w8EnyKOWBtzrZ2jDl9K/QJ192T6PGf6TPswNkNNkNK2UJpFQUmNeAHn3UmWmVY4bIxNLD5XPAreN2JUO0a9bhk8ApIOQKJ0F8rzkrPLSOcTL4TRwE/JWDdwEcvKZmtafghNWW1rr2XMVVx7W4ElAJ+RB8Iq0E6W/2iWSyQ4a94lFEgeUSb3wVpFzgtdC9HH5zb30l8LFRadj1hZovfjlxi41TSEXvpVh9DFoTEVh2RK7pnTVdgs3WhNd6GlcoeYZD0GaaoHv+In0auG0dGWyTuB68EnHuXb0hLMk1H5izfnlRq+H6WJ5chhJm3fQVa5qH1dGGoJw0YJZPlMSQZ1MUOFkhlGVlKw+Xz62SCSSjnVYKH6AR/06FsAFvbVpZEToB1jiFPSHQNEICR6kkOQnFA6vvGhynsDKAggcSNNN70EqcEfF4X8xlCjFDMzKgwPlNV16DoZ0hpZDXwVmy9BvFSeh7MtToEWPTKpWNoyQvwOrk5eiYtGSflxcf/FTRRR7aYn9iyENAKfh1lRxVhxWxeGqFN1JJ6nsK2QfiEBizXb1WHQmVNywtBUK5RSM+rKEU2iFZKVneqQsNLZnTPKSlBbVSFg6cAaXu2zKV2XeEbKwt5oks2hrwC2/I4JXfWTQnt2LDquqSJkeFIVU2zGscrGya1U8qcAyEXKB8C9A/r8IynNRzciUuxiEkQ+xadIPytSCCBoHFc2t+v9Usn+ZRMIV5O+WmpTWwhMiAlaHhNTASViMxwOp3xj14MbWEKLowTObUFYFP8ZlnAhDQUU7bGuEIQ0IKVa7Ntje0FMVigJxKX7QQwDsEr4kDYYRQbL3kirqSUuJZgNkuNPBZZmvCDfGevmKArDjnVRkORkglLW/GEHkvCGOJZVWDeanAWKFAXkylsXCyhM6XyZlqrHJEGyGBssRR116hfzm8Fg8sHJUnMuCr9N5B2NjkPgsr20pxtyYJ4YM42QhDLSNU2SeT6q4IN9i35fhk75TD53k4Q3Dy5Ln6NMAAH1AaB0G39Cq2whEBbIWd5PDKF1T4ZytFLHCQIWFykE4VzS2vYMwqsJTCE68p+UgqcILeFg9yHERcKm1LZLo5CgR9bBbLghoIlnxjDbpIJpmDYXA8dKLjFNRLKKYI4ioGFY+YpwhjU48h4D0cKyWbKaFsVzlLGT4F2EDbUeGfpHdVR1uAQJWCErl0lixrU9RcygMDB1GtLUcVPkooRUQrtBGQNooFdZwhBsE9abjMU4Scq1IMpbSW04fNEIEDB8majCaEkxkJbfWriS/QDloa7SkYLSmUQaXIGsu+1aGHGizljaQwlAdFmVKEPSWjWMk0Fc4DKYdSKRgPashRCPziq+RBpIgdxN8Y/bUoabhmJmRWeJK/Lq/t01GlLjKlsCYEUqHy4kGVlfKkWs0nI/ww3HSPVkpJJoG3XKi4YUqKAxMgZYjAaQ5jnAIkfLKUOABv4sMVsxQPKsMnVYd8Ws0DxRMFfwJxVBEPVRRDoEqEylYKi7YSwdiuMMSQkpV3+uuqBS7FPWvlXSGmmgxhJAOpYdQvpSEsw8EbTy0eCaUwquSv1/EUvrSO5F6xG4mqTylmiWGSbVSFTtaAKth6CGt01W6xZOQ7v/CSIWVKYY1TVGuNusfce96fCOMg6MMR8b7whuTlWLwGECtILE3lUsiAlZWdPr2di3JRBb0VDmVGyGv2MvDiFPVCOepM88g5x2hh2nRybXg6do8b2ljUYGHBQtqcpdVjR+K4aXt9AoeRMjmr0KKs5wyxGGBZKanlOTJyKWrm+rhk6lmyFuhh110wwEnW5PDlg3cELSsckSW0uwcHy5k8sBQxFD7J5AFTCi9wYnXJcCpWGWAz+2TxS8kMaZhOLSkNnwqxYMgwHlBMDMPqvV4RWaIUEcq0nGEmrwOcLw0/6K+QAPF39AxHa0RbK62cZm0SN4BDqRKTXzLtm32nU67lDOHe2Zs01EphwV/zWnln+kYmdFRoe5zmIUMIyZ48VyvVUoJty6aJA63f8AxVCRDSqQ5BLcMWaZokPCEGCaSVQ7EEoAJ4w1toOiZXeVrWDJ8sKwUTHgcbh9xKkU+dwKHOGm2UKIkn/5nj+N78PPCcew6bBykWjMdVU8etHoRtWFUnmgETThxYo/ThfZ8MY1VmmNKIIzKZIe8FjWl9L8HDJ/Wn2rhVFHvHvRIPIJVa/KpKD9Jid/nlYKOhFOq6WshypVCGBQbDNQ4WD0LQhEfMAyXg2czBQXEdEjFh+zmfcqNUD8A6aQu+yYDlWqQrUK6wiP147Gp4l6BSBEjBmvaoTMvmfSApsF5MjpGw2TiEsk9Bq6qutaeTg4vW6C+DkFm94kcMTV8PGh7Yim3xQIYa7FqlZIu0rJo2nuEoyMB+prDpuVUU3oIfiozSU0ilYIEOY1gOnwCYXeo+hHOyVkN7S8yTDD3M54Frc/CuPNzwnnWjU8PmSLUkdCI/WJTkAdscelOgOHzJH2vjgkKooEsoA5UaJqfe1e6MDM6z51XejiuFYLAIPWSoUctxS8/moa4FujqkEm5chuWW0oU2LrCMK2+/uFYLhLIpEQJDCJQUgUsJJqC3RiMt3QkR0OmNlAQ/vLHbXXiREaF4oD7t/VT4AdsJGeyD3EY/v1dyrQwTeVyMRYbFtWKigKgy4BrzK96HszyFqQS+JFlTEweNk2W1uQGxeKC8X+qt/39WvioGaGsFnAAAACV0RVh0ZGF0ZTpjcmVhdGUAMjAyMy0xMC0xN1QxMzozMDo0NiswMDowMHRhE7sAAAAldEVYdGRhdGU6bW9kaWZ5ADIwMjMtMTAtMTdUMTM6MzA6NDYrMDA6MDAFPKsHAAAAAElFTkSuQmCC;align=left;fontStyle=1;fontSize=11;labelPosition=center;" vertex="1" parent="1">
          <mxGeometry x="-238" y="-204" width="77" height="77" as="geometry" />
        </mxCell>
        <mxCell id="JKClMGUKZ1o02f39TSCT-5" value="Anthropic Claude &#xa;on Amazon Bedrock&#xa;anthropic.claude-v2" style="shape=image;verticalLabelPosition=bottom;labelBackgroundColor=default;verticalAlign=top;aspect=fixed;imageAspect=0;image=data:image/png,iVBORw0KGgoAAAANSUhEUgAAAMQAAADECAYAAADApo5rAAAABGdBTUEAALGPC/xhBQAAACBjSFJNAAB6JgAAgIQAAPoAAACA6AAAdTAAAOpgAAA6mAAAF3CculE8AAAABmJLR0QA/wD/AP+gvaeTAAAACXBIWXMAAA7DAAAOwwHHb6hkAABpEElEQVR42t29d7Rd13kf+Nvn3vsKHt5Dr0QvBAGCBSxgp8QiirJcIlmyJFt2XORlW+Ma2Z5ZmTWJJrbjJMsry/GsUWbsZGLHdlQiybIsWaJkSaRYxA6SIEACIHrv7wF49d579vxx2tf2OeeCcuLlvRbw7ml7f/379reb2/yH/7t3zoEWeY30Or/rkv8c+S1eLb/ngEhcF39c8Lqohd+z4HX8gwJegUhvOEj4S3CIaNOCfrwRjYOEX94z4WetM5wcAE9wcJo41TxIi8U3iweaJxYPNLzWc00uiUNkgERxqCNTSSMR6hTvU5KK29l/5Ln36g1YH8bB13zFta7Xe/GCt9r18GU40GcBsCX8YRzEQ1/88aH3BfwhWL31rXjg2QPjdU9JFOaRVRK8qwhk1+fEtW7PF1wi+DholnIcYkbjMmRyinj7zSipXAuYEjKKDlECripEKcj3nPi0Xl/886IeT98W8AVgVjgoSXTimsBDrj30c8+uE+AiEyfNAC+UOrvnGY0Ek7zAKaW3Y5V4KkJcWywcBbyS3gWYXtzWChpnQuUz+mh8Eh5InrAbKQ4l7Mjb9vWUmOJArymsUoZ80V5UwOZNpCjwXlquIAOk5fXaKnkgZp7CUAItq5q3guCSQBxebzJXM8QLxycZktyrhD+mIueDfGRwlCm6p+KhvyWVGN5Eww/JE2aYmHQVOJDCPCSlsSE3mgdlhJCGycJByhXx2QYOntVt09fD1wyZNB0FJyQDCDjBaCb5EcEOPSQCtiD7Sk9RYrxLYhCFngG/RQyjKsYnbzPEl4qHUgrD3QCw1NxQdK9x8AYO0utD8I2il1Rqox/GwfSjNp5BGbLuWWoqPKKXfCsuIu99mTzkiGhRlDSqYFrArsW6IvLHthIlWqaJb1xzSw4tUAJepehBT0EskqdsNuAtUSQrZFX885aV9WGemMWHfymrGnbNcahq+prsZNM6pWcuqUbzIBw+cR4LTyFr9IWBrkTGS4KkDHF21bQV+VMgUzwoDKl21SZoVbxW3xkWtMxqVYU3pZ7BYGEsn/jA23UbFFgJ+Sp+hPt5XkheOHyyUJVKYXhvGa4aONQzrF7opM2sws6k0qS0SSLMq/I+DZny0KMkPMniV84jYZF8QPCoVnuCoAQOIiYPAC+/yZDhHXmv3bSEF1BM0+8UNAGBP8eHVBYH4MuviVJ4XkERTjG0+bWJkyKLCD8sz2ZafNv7sTYIOKZSVEQbGZ5cZgxjCy1XDD1Sk9cMpRBpnJgocePrAESlkU4gHpcM8AEGcA3UJtWyUvBEsAi8ATtn0LIqXLIV3cKJM02+x8MjqhQsJcto5kVHGxp+qehWYFSm6NY9YWmZGnov3jFIRHnoy+GLJU+qDJPFg1wpOL09hY8qRqlbj8UTbVx9QXlEOiVYLlBeWlHSGpdtbcmC18GbXv+RtBWhT+4tKnAo7aiWgVn6jjQE3r4tsgjeErKylCwUT2H5ZgZfCTJWCGsaq1LK8Jdjw7uVNBqKgmoX5jmIM6f1SWMm9AqgIZMCvkzLTYiZO8hAU5bWFz8LwDy/BiA6qrQVI7TIORhmQCh+pRfM4hHXzfWFxLMCB0mH2FCK/IKEuWxsgf4Uih6QgBD5iWczhIHFPoHkBaeAkHnP+ExLjCx7aAt9kCeB8IkjQeAS2iPT+sWjgtgyEuB1lI5UV6iot1y31Dj100A4gBAhrnRzFsMBqOH4Ss+kxlW8gQNRE8IUy5JZI8DFyK501T5H0BJbk+SGAIU8OAPKZkTyyBxvJdIkGCpDLs53yTfRHmx4ZTQhB1X1ICtprYYMFSXWbGCQk3GIqwk98u8kk0JaLoCwitJyiWDgOodXMEB1XDUCFhTlIZ95m4Y4AgfjO6YEJCGiwqer4QEk08VbUikkDq6iLm/Vb78dZ+FTGQ41w6PyqTdWfVJJ+HNpvD2ASLnlCmCt+Lt6hJi0S2Km7FqGS5aVlRUxoVJKEKa1D1jVOtkb7rVtz2EywaI8hOjI0UkmtJYX0PT2MBtV4UYBIAmfiFcoSUJZFM3hLU0y1enXiWa8gUO5pyh4ImVIDdwxHhctR/ShBbzl5mx8baUQPscmprqnKiLJGW/9Mb9hsPVqab26w+GtdiDsGz7NQ35fw0SqTrVhuFSE42tRnKBr1B4wVLK9Cj7Gxit1M4A2RU1CllcXUAr6QmQhaHmKOhMAQ4ojrWjQdVe48lBHOzdPDBXDU9TwDLrZkrELy1OQF62cPpstKp/Hnn4N6b2tZEfVqL1Kvwb6RILUeVVhSxuwSNJ7kxKjLrySJ9JTaM9gee+8ejF2VMQduqMdxbCZ5OnX2b0altbKOUuCaSELuD5DKTKhqlJil79TLlSqVKVkTaUgTClViuJ9Rm/6DlMKxsGiFUViK/zgkl3q/fJrPfVa4shBItdUEEu8dz73SZC3NAy3PEVJuCQVXXk7Jha8ox1pHyqdUQ13Loovs1JBgte3UrCuaQM0vVsDhTrhU6hPxNsPeEgmMOaHHAU188BQikqaa7ZWK4WmQg5bTzh40aZReVWyAwb8So68+ZW3aikHIX8eUTRi+CLWCwhR4TkIQjX6GMpKwRnN2OPRHPgUVm+OQcKHyGuEL1KJwu8jZ670DKYqSYsJmrgprJScOm4Jmd0GgvyRNNc48GasRTs8yiBeVwyYmN4vu0fDFAGwWlwVgtfipi8ReMvGenEtXpbhU2TVrbXeCD0ULlpJ9AQvGd4It0fdnGG6LL2z+xSSGNqVW6oXynxYtJc18Ta1FeVWVqFm01bOAbGSHcybekWkqo6rNW0lFBuERrQtZCxdUXe9IVdV2T5Cz5wsnNSaL2WxDiNhjIgLaMGHAmDVTilCFlU0qbQp0gjZVorV4Qt4ixVc4cZN26J4ZLPSxInAF3SqFTjw7JkR56QIFoaXWOwQdSs9thU6BbwzcxfWegqpFN5Weq/rjjMsDB6wOVaV3tuSoYIvTEm8IVcEtig04cNyaznZtAFkyDDGpQiV8h1WfQEtt6ysGd5wz8AESsavZUrhBYOCDBDLO00hKz6n1cVepJWV8AgLR0bUQwpgL+ekAmDPKHXsmuBgKYHM3gi+5FBLz0awScJ0PXhn4cNnV9tzkUyZFDiS14ubKZiR/r6gdCSuOYSUll4xwMBIVcAVLOzWuEZTVy28jQbMJq4Bicrm9DoiLIXMfDFkBqjFLGhePHFG0G2FH/JWiWUNELqEbMrThX9xy2sJqY2DDVPwuqpTXe6yzYYjes9yaWouDq2U1OuqXB+05c2+LKrM1UtRscJ+JPAalGBWSnkW8Z5a1KUZpl25tfBfu2XT4svwyPAUmaLlD2n2SdgDqY4JT/g9ZWXNTmoJDqZhCtCc3fYwb5Mixym893qlncQzmFL2+XNCQdGwJw4seVAMzJGHnrxsVgDxTg6CLbalSmG5PkV36ZZTJL1miLmcExonnnMvYOt5ANIjIFScQQRdhqwVk/OpKoZBIB1te6ayp08tjgi2yslzYRw0MIJ5Oo4ht7khtTyMWqNt0N9qX6+nkDJFTAYxhpJvkZnnl2zwdprMck1WqCE3rVIDR7avNBDKvkegWOZHhxJ8hqcPVlNWtLBZVkpaVUaEUvjDGy9oMSqBJG2qzlwtfa3rsjveHL2w9wvRUbZkZg5rzYqwecAflY9TRAF1M9uyp2JrKyU9i92n0BrMV29ZCIU8kGFlg2gxN1jAVzFQZFopYzRVT+uQ8IdxYN94Y5wCBAeS9XAGESozTTQ8Jfe4gQ8JPJUB4f0olIYoWdGHHT5B8ASVnjrz1pzcFR1tcR3BeJnzoIa5VEzTjLddn2W1SpRCELugqq2N1oS6Umxkh02BW6EoPCIgVoqHZ3qKRMD2e6HYFZ5CXVTBH/ACViXBqKk8ThGGyIbfABVAICoxxlHUO8Ydy1tb12w9ROXwvM+ETHLeRrpy3lCAEKUaTX+UetWAy5IMUqgSiwdfbWmrsKphlRgFDeSt3UiYp2AYcsNkDt4pUCuUmnme4puQKocG6yjNJayyxhx3y/3LKi1DWzkfjUBPnkcFBo7VJ90eFRPGJDWCbSFZxhAjvlWdPEF2/YjDS+95I/uUu1Gv6wMUA6ycvnxuzX2yhMqySmEciCHilXNi8E3rinfYNyU4+AwHwReGQ3Ilx1pychlCluPA6i5wos/5U6EUvOoCfqHoSv2MZEdw6k0KS6QAtXxu4HYsPw2Uq1t5B8Uge/KMFCjb0vLwiY7x2t7GoG45DoYM2pV6+3nQqha3Y6M2VW+gBvNezVF5jmNJP6ms+MK4mk0oGdL1Xt0my0KGqT0xDFUUwkuFTxAykdYaHKdQef8aAmV5D1qJk8gQhDx5KRR+eL2+WYUazJ0LIfNJ7S7dmr6Ot1N7V0EIAbGJVVMiCm/HrWz+GtF6r/CxDRFMeJnp1d4unZhJcfCMmCUqSenLnnBgpaew1pDoZE4xIs9vV2U1s9Y8mgU4xpkE7ANXcl3stECbc+RVD8BloVk2Fue9TslKSDzgXfJd8sfnDFF7CnjAuQorkn9IAQvjld2KnMNAs4WVI/OwfPYcXJgax5FLoxifma4x9cCn1Ti7WdVeQUFrbIrSWkNOa9atWDQP06i8DUsqULAoXLEHvEtrSH4INnj7jIysDo+cKN6U3ApJJnIk8W3Si4ynzmSIz68zrJPb9CQKDqzkfk5GX6IUqVuW95LvPZx3ucDkpPA+P2CD4+BMnOJMyCmDBNgFWh79jRauXbgEP3PjXbh56Ur0N5roeo+TV8bw4slDePH4Eew8ewzj7TY6cYzYxymKmuC5YXAJ/MhBJ+JWoFOQgCq7d4hTekcZD6hQZbFVRGlG6yro69PK6cEu2Tu5UFL3mM9ISJ5z/RXC5ACfEjKsg5mVdynNfW44cqUhQp6jRiyF954fopO3TcbAUrmCcU3to1v7b37T57Cqk4E4V9jJOozGnOCRPOFHUEReJ5eaYm/rZKAaJxlFxslGFMoocpg3MAs/tPFGfGjrbVg4axgRFRp4xLHHTNzFufHLeO7EITx3/AD2XDiD0akJdOIYXeo5HIOWAXVVOMiTjKxTdIgrqTx5yaS5gDlwkhFhRxBe87SjUh4Y9JGnGfUqRwGZye64tf/mN73Go4oZBeSWUuSAetGgkoVqhtRBhjMk60NoHKyjpEJK0XARVs9bgF+9/UFsX7EW/Y0mqor3Seh0/PIoXjh+EN85vA+vnj2OdtxFnmlRCmAphBQwC4cC3tLjyZhCcCLk71TwRfKgnlJrHFwWZpXhZCk1a563HdWRK2VIjSArw4EphOZCxdlehlIEmGQJgLeANxGqslI2Q0yrq19MlSJjjsNIXz9+ZPPN+MjWOzB/cAitqLdjNGLv0Y1jtLvdPKz63vFDePP8KVyemUr7HAGlKPTZpjdQrRSS5hHlkOElRMxfeV6c5IHJkzC9LRwsnBhn5TUp0VV5CSIhKc2dc3Brf/8TnnJDeQoDobCS8EZty2VodJWWB6ySFT4VP+soNXG/Dmg1mrh2wWL8/C334fblazDQ6oMhCj0V7z06PsZ0p4PTVy7hpdOH8fTRg9h/8Qwuz0yhE3t0fRygueUpynGo8hRSCUmLYR5JAQrxxTRErgJ+DqytANa93pTCVmqNl6kQlW4NqO0pgNStWUzqwSrZp1pqz8FIZQqVhr/hIsxq9eH9m2/Gh7begSWzh9FwvR+uVFW89+imCnLq8hhePnUETx87iN3nT2BiZgYdxIjlJKyAkJk8QEW/KJKiVMEDpRgVfbi8SinNvYWATlyzVsqUQhDlavqlhUIEiR9GqLfwSQBbhyG1OtV1rBS5J64HWi3csHg5PnbLfbh56Ur0NVtv2yvUKcm4g0e728Ho1ASePnYAz588jDfOn8LY9CS6cYxuHEN28KRiF2Q16B2yqpG4J3jgKJ29h684MtgKR4LRhXXvKpVE4YV6He2ykNyt+f1/5iXwloBxPMKxoMWgggdVWl8ROgUZEHDTJcR3iDDU14cPbL4FP3XzXVgwazbqFu+TZY8RXHVOv4fSjWOcuDyGF04exneP7sPucycx3p5JB6XCAlVJc0lW1qdIPo6cQ+QiDDQamN3Xj6FmHzqxx1h7EtPdLjpxF3GeqqwIYcs8s8GXOtk06btCnsJSiORWiVIQ+UsVIrtEUIDqaXjgO4NBrEYl3663jp6Z0s2HwpTV6ms2sWnBEnzslvuwfcVaDDZbtQTbA5jutPHcsQPYcfIoti1bha2Ll2O4fxCNKBGot6seWYe842McuzSKz7/xIh47uAfTcRtBgTGuLUPE3knPOm9GDSwcHMLtS1bhjmVrsWH+Qoz0DeYtzXS7OD4+ijfOn8QzJw7jzYunMd3t5IPSPKLijMyzSgLoKmNVKyy3og1SdOq/wthmZFvzr1OFCABrxej54160XDIpkH40gQ3cs645AzgOUeSwYHA2fnjTTfjxG+/AvMEhNGtmkDrdLk6PX8Kndz6Pr+3fhfGZGbQaDSwamo2blqzEvavWY8ui5Zg3MAvNqIFG9PaVw3uP0elJ/MeXnsBXD+wio+F2R1XSPHJ0VJsbIucc5g8O4dG1m/FD67di/sBstBqRqdSx94h9jPF2G6+dPY7P7X0Fey6eQjuOy701uSdhq1aK9L2ADFFjKswfK0oxKjKYhUJYH0hkPMoRrOE5SvsUauwC5YoiXXcg5HNw6G80sWnhYvzS7Q/gtmvWoq/ZrC2wk502njnyFv745e/i0NgFdLpdhmPkIjSjCEuHhnHD4hW4e9V63Lx0Feb0DyTK4a4+tPLe460LZ/CLj30aE+12SUwe9hSyT9FwDqtH5uPj2+7DLUtWodlo1KZF13tcmBzHp998Cd84sgfj7emahokqgeXB6/cxwiE3+xhAjY62qKsx56E7P1kndaaBlQAFgJf3VDRUFULV6Fe4cB/CAZjV14cPbLkF//ydP4SNC5egFfUgAHGMr+7did976m9x+sqlJAsk4PVIUqeXpqfw1sVzePzwXnztrddxdOwimo0Iw/0DiQIG5+eEi3MOA60+/N2h3bg8M01m6lv0JbiTd7zj0xhWjszD/3H3e3DDomvQ7NGTRc5hqNWHbUtWwMceb1w4jU4ca0srDau3+aRxCI+9MC/gKmQoLQW5rLBa07qpAsF0coqcjKZbEJP41CtkPlTBmnzeTeHKgzPB0qfl0w6ND5KvnENfo4FNC5bgF7a/E7ctX4OhVl9vdaXVnZ+8guluV9HAmieINLV6YWoCX9v/Or51+E0sHRrBTUtW4J6V63FD1udwkcqdh4oD0N9sWYjCsDB6ol/eS/SYOzCIX9n2Dqydu6B2+1bpi5r4JxtvwqmJS/i7I3vR9l32PJtdyndjqZ4kGiKul8SWv9h8LV5vDCTrHBx/ak10bAJiIpeoj09GS1E0gM0mnmWTudRkufzaUArGt3QyGggMagKgmALqPZtMFzmHkf5B/JPrbsJP3Hw3Fg8No9HjaDNjUTrHOoG3mGCXwEwmOToyZdkDbd9Fe6aLg+1zODJ2AV/fvxuLZg3hlmWrsX35aty4eAXmDs5C00WV8DmfT7IuBJzxiLyY8sEJAeprtvATW7bj5iUr0YoaV02PrAz39eOjm2/Dvgtnsf/SOT4pk5OpkIOMtWJCIJ3Q6D2d3SwExPGKivqTe+yaCFGMdPEPmRBo8blJrtQMTR+YIssnP0qE5ExZy1MU9eVCRpRAClkGrJqhqWbEegw0+7BxwWJ8fPsDuPWaNRj8Pow2B0vAU2T0TPBxaae0i04c4+ilNo5fGcPX9+/CgsEh3LZsFbYvX4tH1m+p116AEcXMX/KYzPSNXIRNcxfjvRu2YqBZPS+rTnEAFs8awfuuvQn/4eUnMBN3TOPF5EouN7BwSN/IZwMr48sRlZ5C2NO8SE+RgJfllJKbnDKpEjhBcM+myFr+ORz2GMYcwanjBA1zxj0RMguZ/mYLH7nhdvzUtnuwYHAI0dvwCgYmhRJ7ICJTsRn8ZCo2BGmyBS3d2KdjDqP4ypVL+Opbr1cqBI86bB5IgaLvNKMGHl67CbOafd9HmgCNKMLtS1bhmtkjOHjpQs4XNaXf8Aw6GPbEs5VRIZMRn9bntCgFwyePsl5TM/aex5IyHCuaFkoB8LfSd6xYL/MUnigaeScmMEdkEZHkfSEUnOAODtcvXorfuvcHcMs1q2vHxh5JOrUbdzHQ6it/Mf0R+8wF831A6foJM04QSuFSJnY92cm4AlqpFCRK56BKK+qBeQMDuHP5mlLazHS7ePLYPnxx72t4a/Qshvr68cCKDfjw5luxaNaw+Y0DMKd/APcuX5crBOd+wTMt6XYPkUcbRfSRRTxZVbz+DNXC2DKeKMNqh+URAHO1l5cX5lJIufudvta1ZjGuuK8aJDVWCMzmhUvxrx56H25etrK2MnR9jJOXLuL/eu7beOnk0d531/DhM+NMfLxRQc/F3ovP8/9U9c45XDN7LuYNhEfjOz7GYwd34z+8/AR2nzuJqXYb5yfG8TcHduEPXvg2Lk5NmG0DiZfYunC5ACoMqwTVeuDZA+N1T2UoQMvAbXZilii5kWNKwbZDzKgq2ihk2+aFRNBo30ZVI8PX62YgFkL2sdvvx7r5i9BsVHcUvfcYn5nGt/bvxie+9ll8YfdLmJiZqvGdgTi79kLui2sLT5/hULfkFTlxbTGC7/vkAKwcnotGFDYWFycn8Jk3XsTo5AS6Pka2hc1Ut41Xzh7DYwffQLtrHnOCCA5r58xXG77BCxzT7TlYNJOvgTaEycJR8EDSu+CBF7e1ghZHKGQy6nkfIlOKiMToPGsg0huk4aIDRK4Bvg6adPKSl5wKNWJCrUil0qDCD+cd7l61Hs0aC3ja3S6Ojl3An+14Gl/btwtT3Tb6G80KW10IPO/CpPAmwJOd0p0ZPrFIM/0mr76XXn/aSU2q4D2GnN7pD9opnds/GEw5e3gcGjuPMxNXRDSRuMGZbhfPnzqCH9l4IwBtdJxzmNM/SMSEh7RSjmiyxkzCkr5rjlP6gPcxUnpTnqQywpafSpmRKVkCQxM+BkqmOoucgK5UMlT0Dwp9sDhfxLgsncYQTrAtei06Jh9OmVFW2t0unj6yD3/0vW/hrQtnERNL1WsWSmY6Iug+BUfLpzjoqL9OSGgyhSdtyhMbQHko6YFOHHMrTV+PgXa3UwpSVDFdXhlXq3MYSAzwbqs31mkbnXEmJoacqXGK5F4zaYwrBeto5wu2bS2X2Serz0261+Cps4IY7J2s45p3tCXt6g/Wee9x5sol/Pkr38NfvfkyLk9PJ54wTfNJZ2zWwf+DtACxleIgnTxAymuh6LVwgBHzso58wQMr+eGBZJQ7gKlzDqvnzMdw/wCmO1fS+l0eoTUihxsWLgsqlfcel6enmJzJDCDncUFP74xME0qymjZ3RP0FD4okoOSdoRTQu5kULxj7rlpweOMmB1H2IezrPJwLNqi4UOu1yU4bv/P4l/GZnc9jdGqywCuNX+t6B9VPMpIAxQZ6LJg16zI7loFSsNDY59bcH1dce4+jl0dLt8pZOGsI/2T9jclofj7XCGhFDaybuwA/uGFrcDAvhsfhyxdrENEWJL0Vv8QhsOu4QJ+Tw+rXSVLpPkWzaDM98Ut4CiDQp8ggygZUhOvmyk08A31HhB45Uln8l3uKbItBZ3idKh54nLlyOZl6kXo25pRrd2wLJjhkXlPHs2wEXsY2asRIhog1QPBiXAgyhE3hJO94xDhy6QIuTk5g6ewRs+q+qIkPXLcNfc0mvrr/dZyfHEfTRbhlyUr85NY7sGz2nKBX7sYer505BjouwAcoXdhzyGhGylX+jpAZtVcPCappBGL043j2n0tSU+aHvY+ZUki3ruLg3FWn9zLTl8X9TAkABhnsjbhUrOeT8ClSakCwK5MjLzIbFgNKK6C4i7EXGc+m78ZI1+GQfh1JNXCGVOCgvIka7RQhbPpONkLsPXB+Yhw7z57AkqHh4MzboVY/PnTdrfjhDTdidGoC/Y0W5gwkM3bLIBzvzODZU4c1TvkApTEEZyRsWPgk79EQ0HMq5hMXS+TK53znSivhi3z+dogbXodPvlCMAngHXksdy0vDJy/+6XrUprcQcARb4cFGlh7sqS/rK66DN73+o8jZa68a5obFVvvZnXa3i8cO7MZMZefYYVarD8tmz8GCwVmVM4O7PsbrZ47jrdGzmi9e01zCJu+Ubm9fLqbqCyukClzk98jerhT4OA+hshKnyyZpfXIPUD14p6Q3R5nvGK11MjTwUuzN2psQJfXVkmqTUAUORTxLFZnvhZv2Kbx9Gk4uLD2gENqaX/KYKRiJvzs+xo7TR/GdI/sqlcIhUYw6azhGpybxuT0vY6bTUQApubKYIpFRfQgvHzGaSzwtofdmxWA8yGimO9WMllwp1BwQk6dyG/hAZ1AhWMBnwkyAZ+dov52SKkldX2ayViitrcSEWAGG9wIzv9abEzO+EOsz2WnjP7/6FPZcOINuHNdqrqxMttv4/J4dePPi6cJQVVCzcoPo7B1jQM9gBBs34egSbRECyW2RJ3IqUufecGkgc23MLIWp5baQcQ22hCrw3AA+2D7sz4o+3tUqUX3vwpSCwau0oaoq1Vz9M/H0mRWx9zh+aQx/+MK3cGTsPDr+6pTCA5jqtvG3B17Hl/a/hul2h52O6pnlhS3wBrRWOz70llQKSQxXUZeHqb6RdN1Be0mUIgmfOIKlzpyGFgw6qq2m+WTA02IdLF+3mMd7VX5ECEtipuxahkvSU8RGReTttw1/vYMVE77tPncav/P032LP+dOIe/QUHsDl6Sn8xevP409eewZXpqeLNkrOL7O9gHy9ZNt6EWIXRCbhE/EKXkq7ZZjkQx8ahxBxn7dET3W2tafQp+iESFwFLKWvpxe1lOLqj8aSEFlIhO4pYhgnGdlvhwHp0dJ6dSe59jH2XjiL33nqq/jCnh0Ym56s9BYewFSnjdfPncDvP/sNfPaNlzAxM2O3Wxd+aJmxwr06FCfoGrUHDJVsDz4ZqQayVWo+T5eqsxwQp5MUyvBNvucpTjEcTza+CmRiU6bRdKbPX/L0Xu0cvstdt5xjk2wW1sV0p212IjtxjE435sQWI8KNKEoX6uv1zMlUA6QdWWMr/lrQU4Z7kSb3KZ3kOE6AB2mzHR/jyKVRfOrlJ/GV/a/jxzbfinev3WLuQuK9x8WpCXzq5Sfx7KmDuDQ9ja6Pkz4lQ8Pn+WafUb1gWA4/XSefp8QrV0QGFhQRnliDVGr+mTX+Rd7PZ8QV88jB87N5gy7JPqF88K6YfMbzx1YGnhMgQRBeA5+0WWgPQ6hu/J1ZY8GAdreLz+58Dt89tFeLp3Pw3mP/+dPJugVDyCLncNOSa/DBrbcXKcq8ouT7U1fG8H+/+DimO52cuPm4Sp1xFPm/ECr9QTpiUjZ3yAGxjzHVaeOti+fw4okjeHjNdWgG8iyjU5N46vhbuJx5BUcW2xDDlgoFUYqUv8y48jMrcpykojs63mWMUxhTVVLzUHIoCpGrfAJgIWdNiYwFbB07xuc/iY8IcMVPdoSfPmvD6BSJ4SzGg/ISnqLR9TFePnkU0alj6pkjI/Q+uaEY4uCwdPZcPLR2M/qNpZmx99h/4Sz+n5eeBNCBtko1KVyh+JWnMXno1ZCu6PTGNUKmbuxhww/Nk+xor4g8LZl1auKgvJ1e5mx5Pw15MUicsDGMQ0QDqRqd9RSuOPcWWYmM4WbVj6kcB5Adax4P+8CrvZY89CDz4LtxXCQMxL8CB9npI0LgUOyLavyDB49fER6nCMMs7qiOoxGTq09KTuLsiYI+j5BseDhwZd3H8qasvilvxhl15uImCMemdBjVRzAqk0rirS9FyYSH08ybSuBJEzwUKH6YpDQ63vWYmU69VskCSXvxTq4AWjELmvQmThYZ6+d5PGe4IXT2kcG8Ck3BejiYLPWB9yhy9LhaxgP7eN3K5IHROffqOQ00Q59KpfDJNHCWMvSCWMxgS4FJPQVpRCmGREgKPNcEBbyc1mHNkq0qmVCYTUmc1McWdCWeLAyFcV2zD8S+0pBAyUuFJ5ag14bBxoFnzwKhBhETCp8z6rUUuxSWXKbsWbHcXXjTTmfXUVCTQJ54cU/Bqm1cXKbFRCmK+pwQWil0pKaAWy4rfAq111VLK0WZksIT5HuPAlXHylqfMoESlrZUKTyMcYrCx9QtrFsocIi9SCtLwyrljIyohxTAS2/tebgXSus7dk0UxVIC6k28CJmYAgRiM14bgaVq1NPUJCr0YeEOItNLMWMk+sgrBug6rPCvfrghTbIczKtRQ+AqUwoj/LDeq0Hf4DvmiwUOsk9RPHGG3TSYWuXtqgyJ9+UUFXIofzUL4FPn5Yquoid7DrniYU5WR9JByRT1uCIly6pA9qGHXPWVPChSZ+RFFPfK9/DhpZgUKAAgaQxr606Z59dLIWs6CK+q7qlEUYSmixI8KLzwLCVX69Qccc9FDo2axwHwX/bag3zqO5MrT7JPrsg+Kfby7FPCE44jPzLYyACSmnJyGVlOjQPbZKDgrtwekC9oQT6wRpXCi2o4JQlCwXyyFsgCeMkGXnVvJcHJ3gggV0XjM44D20eybrsEXrn1Z1npixp436ZtuDg5ngtDqNSZoaqPzgLWzl1YcYwYCXlyIUsuys+iJoIHwju2jym4nJHRNJ6cl/XKwTu6JgfGOIS81tU1rZE89T7TC2dUVjDJGtGWOxvYA0d0IAewh7FTwqbNNaMIrYrdNhyAgWYTTRdhxsdaV1mbGXg6p88sVIqDcw6tqIG+Gjt+SC5UyDUrrUYDP7Lp5l773z0V51DjXD0jxAnk/YsReY46sdOixsIzSMOX0TuBk0cb9D3LfmtxtQeJMxFr5jeI29DhkyO35ea+KVC01aw/Edq4gIHGx9jl1iNMYAn2rUYDty5fjY/ecncpC/ubLfzW/e/Fn738JJ44tA8T7Wk4Qc1iIwAnuICgkkQAhvsG8fD6zfiJm++qVMyC9lcXOL2dzZq/X8Wx+FvjkOsHYV7s+BY9TCnyXSToiDYK42oZJqPBPLpI73kSxoNEME4KE9tfM3mn6EOUzvEw3Bp5LflZjHCHSGZtm2lpsBjTz11h5BxajSa2LF6Gj95yN+5dey3m9s8qZWIjinDjshX4nXe9HztOHsFnXnsWzx05iMlO25jOzsMnakcyBkUuwkj/AB5ctwk/ev1tuG7RMvQ3WxU7BlrJUrkZ9D/8kutDbkR0P0/FGJ4sp+W3rbehLow+naslQ1CVBKMm8kP1IdS8KlF1ITNaSfL1qrmGZyFKlL8jlcIXZoWAwQf2Gy7CYKuFm5etxIdvvgt3rtqAkYEBNGoefNKIIgwPDOKe1RuxbflqvHLyCD772rN44dghXJmZyecp5WSjiu2T+TrNRoTZfQN459rr8MEbb8emBUvQ32xW7kcEJIeu5J1qkRjoaZOB/4klOxHVFCohWcqwInSUAPEUEZU10a/zgJoQaOz8LjubPH9CwnriyQqzl2aZdB8iyy7xHboTOS9aUh3vpNaiow2KNO9FVHqKFIFGo4FZrT7cvHwlPnLzXbhz1fr0gMOrCx8aUXKaz92rN+CW5avx+ulj+Myrz+LZowdweWY63awraTvzdq1GAwsGh/DOtZvwgRu2Y+28hRio9AhFiX2ME5cu5nOFpFUSWcB/kCX2HievjMLHBAcihFzeCqUAuMyo8AmEGCR8koYJ+Tdg4VRSP+lTgGSfkpfERFN7LlSuxKDb4Qd63WXJwkD+wHyvKnyi2ZNGlBykfss1a/DjN9+JO9dswOy+gbd14g0tDRdhqK8f21esw43LVmLH8cP4wq4X8eShtzDZnkHHx+iLGhjs68ej66/HB264DdcuWoZWFPV8VtyVmWl8fd+u5Fw6ESOHqfMPp3gAV9rT+LsDb6Idx2AxQ3UMoiorlEJiz2MRM1lp3VP9DBljQcm1dySbKHBo2tnfrDHLc2TamwJPXR/JFlErm3ybZp9II3KcwiE5Mve2a1bjZ29/B+5fvxmtv8fOpHMOg80+3L16I+5cvRGvnjiM/7rjabx68igeWLsZH73lLqyau7BWjl4W7z0m2jP476+/gG/s34VurgwiEZFzrbq+/9HFA5hoz+CLb7yMbx/ZW/S5pDen+/nKkFvIUDFOQaKNtE4HgKan8n4pCodidrRFGlydpW0uSdBZTdKpJhQoaStINReyCdzt+XRCixNxtwMwq68fWxYtx0/edg/uXrMxOWqqR2Xw3qMdJxuSNRuNnjxKBODGpSvxfz78flycuIJFs0d6Co2yEnuPqXYbu84cx2d2Po+njryVH0rIO6FVfrUonTjGiycOpcs1A4pB0+KCtt66dvSexTmPCxNX8NzJI3j59JG8n0XHioLwB9LkjE7QyzXtLrZupTL7ZH9mtiFfY+shilgw5L58odHI3hOUYWMS3HMUCBXewgFYMjwHn7j/UTxy7Q0Y6h/o+Yzn2HvMdDs4cvE8vrzrZVyamsL7brgVmxYv60moG1GSQRru6+85NOrGMSbaM9h99gQ+t/N5PHP0QBJ+ZWuWSXbGpX205Hb1LrUz3TY+9cJ3sO/C2dRKp6Jv9MfNw8izl0PvBe55AHHsi8VRLPTOUp6pVwBY6CFzJfk90acAsr2QHBelbJoH9RSBbFOW/JB48hHt9L8MKNLxofrbzNul7tA7giByJbAH7wqlKNK6vFMtaMXKrFYfPnHfo/iRrbf2MMCVlNh7tLsdHLhwFn/9+sv4mzd34PzEOGIAX9v3Gh5cvwUfvPF2bFm8HAOtVq2MUEhYQqUbxxhvT+OVk0fwuZ3P44XjhzHZbhcWNbQ0khCmaodZj2QJ6lS7TTxEmr/LPy2kv6iNC5GruA7hLje5lkeucaEqtutP3iThNiOB1WkWITgAn2egqrNNuWKUnXEnmyVdBkCGTMFeTCCdxtNCpeMUOlMcI0KEFSPz8fCmrb0rQxzj+NhF/PedL+Czrz6HC1MTyQ4SaRMXJifwV7tfwrf378ZD6zbjp267F9cuWtZzGBYqHkCn28Grp4/hv736PXw37ZBb67Zlp886W61eoQFQmr/zZN4QMUx211TygKfJM3j5vCABsUwQlcIKJUMWIVlHuyoc0wMTkIofGqswb4hxhSa9E/vs5HdzWAo85rJiMI9inpCHmiyngPdYv3AhBmseBOh94r6PjV7AF3a+iC/uehEXJscx04kh14QDyZLHi1OT+Os9r+DbB9/EIxuuxwdv3o7NC5eh1Wj2HBYBiVea7rbxyvEj+Nzrz+PJw29hJj2nzhM4g+uDcyvqSuXElAN4EYpIpWBsSPgnQ1ghAGlIwJTCGVNruGcowiWXX8tTZsU7VGYMw8r27mX21bORPTOx5VCfjhk+RooW+cHtSHbY5iMGPD+bE5F1CQoFsBTQE6UIHYDX12xWIuJTITx68SK+uPMFfGPvThy/Mop2N+ZTtlXHNcGz3eniQnccX9z9Er5z8E08sO46fOimO7F+/iIMtPpq9TG6Pk46y6dP4NM7v4dnjxzElZmpvI/gqqyURkrt4l3JxfSf1e8oTkbVvocrhT5Xmwp1EBzL2dCUEplGAS88jFJiQJ2jncu9MrFFn4KdcokCXm8ZXw6vOXFThVPiSC1mcQAjG2JlDqRSeFKVY0pREMzYeiRQut7j4Pkz+Pxrz+Nvdu/A2YkryQAaobJVC4Uv6/jNdLs4c+USvvD6S3hs3y48sO46fPimO3HD0hVolZxPN9mewUvHD+FzO5/Hc0cP4kp7Ot3gi2bQKrrHpgUjs3zrFCKpKp0JIPaOpDNRNOgAO9kh+3ncU1SHfyLiCCpN6imEd9I4OKgjj0E9hSMDd2ARhxR41ecIRPUS7KbsBtjj8iSbEOpTyHwyUwLjIPYMoRLrGHuPo6Pn8NOf/WOcujyWTIGoGrI3d2Eo4AWAdtzFxclxfGn3Dnz34F78wXt/DPesvja4L9Nf7XoJ//6pb2CiPc3WuKidJCoEyN63qmBmrcK8X0ppUmGiFAGGq2SHscOKCtErlEKGS6lMOJev1kjxJmE4acgaq7TO15DZp+BuHqqjLfpJ1vID4umaNWwbJy43Iprsnmi01QOR6bOK9qY7bYxOTpD0pbVVibSzUkksUB1i73FlZhqXp6fLMMbY5ASZDFhYXbO/WCFQ9tT3GnRHYpSsnJTkSXZsgB1+BLI7sJCxcdCK7ZNFRojQ32hgsK8PcwYGEQG4PDOFKzMzmOnGiCHX2xOB92Bp/GImB4WXfhvuyVZc6lCJ4NQsrCrv9MVpOBIxz0ElwbJShlKILAZNg9Sxi97Ttbo2g7J66cHx9HATm3Q9WOX07WKCWs3MTQaLnHcjcagNStEvkqGGoi9Iv4J4bwm2SZUsJi9V1ITCDRdhuNWP6xddgwfXXotN85di6eyRfCyp6z3OT1zBngun8b3jB/HSmcMYnZhCx8f69CgNWEFz2VclfQodKNjZs8pZsnkfgsT7ud6kreTLfYTRtcKnhOlSKQq+BU+WryEI1vFekJ1SrquAiEUzoEloi9rSmPZp88GknGZa8XOhkvF2jZi8qn2V7Mj6SanEMyFzepZpaE2LxiGNwcVkuoTHyUcDzRZuXboKH73xDmxasAQDjWQQVCYpZrf6sGJkHt6xaiOOXhrFf3/jJTxx9C1cmZnK4UnayIxrAW9kKEUuQ+RMZDrNI9RXtZYDgzwHWB/C55UxJiilCFilwDWzQCy06FUpLCGR8aBAkHbks9tEkuoaZk/+VziQ5bN5p5R4Bpk8MGPc2nlXT37LWabG+9aSMtmWZI2a/2804D1m9w/gQ5tvxYeuvx0j/eUTL51zaDqHZhRhw7yF+I3tD+GmJdfgT159BmcmrhCe6BIHRIvdTr1FqK/qrDoIXShPIms7C0r2PIQyCQ7rc/Yc9FrdZi/UKrEJL79nbXnDYSNt99R88TI7tIXoit5ES6NobRFTrzhOX6Mhb/Ck2CLG5fB6ZEGPgF9UbeE0u68fv3z7A/jpm+7C3IHBnuZ7Oecw2Grh3eu34H+9810YHhgQCku3si8Ai0F4z/744gV2j+LgBU5aAbMtbqL8Bf7UyHx484w3kzfiQSEzXr/fmz7YxVvXestG631LYK0GPP0ivYitCiu+vmr8cuJDhE9lSs0fxApx014FaJTc6G828YHNt+C9669Hf7N11Sg1XQPblq7Er267H3P6Bmz9DgLmTVEq3wLRkHHDEBXrNQp7oeEgDIgNafYA2TxLWmPuGfR1dUnq5icZWbsDKgdAf/rMJsqzyOr3IZT3ozxgsiq9o+EFrmI6d0Y/6Veza7rPU25MhTeyztH2xrW16DUCsG3JCnx46+1vSxmyMtBo4eE1m/HutVuSM7CFolveUO0lCyFXIPz2/J4X1xaBI/GFSk9pycrcFwVeNlJHKTzFqbzUzEgpz+ahrgW6PXgowxkzpeBKIIUsAS/MoFqtG6EEfSAzk5z+vqTigH0QQjXY7MNHtm6vXMfeS+lvNvHBzduwaGi2gomDwMOn/MLTPzJ0MlC3DCm5F1We/xXoCgDUi4cZq8beeg3b2ad813HLU5hK4O0+hcmBOnB4IfAB6lvxrLJcAddtYc9/WuGPt59z4qS0I/CWhCPZa845bF64BFsXLv++rVzMyqKhEdx7zTo0oqqjnTl949A76QbLuZJIb1JC7iZtqkieeDXwQnJ8+ppxJctsUIY5NaLspTnroVg7BEZqsE4NL0EerlG3OCoZnmewsh80GxLJNeUc9ZyGdVOuQ339+NyHP35VtPofWWJ4HLhwDn++81l87/gBtLtdbFuyEj9+w3ZsW7IyuBa+6SLcv+pafOWtXejEM0QJC/qyBKIvMq45VdnKumyXQMfXaNPR04wRIgUb5RfWlizisrSjbX9l1Fnmo0OfVb9jnZCqwhvlKSyceHFwWDVvIZYOj5BDzGVIKIgsWrc2I/7HWA5cOIfffeqr+NahPRibmsJEewbPnTyEf/301/HiycNBTxg5h9Vz5mO4vx89CBN1BuFvYv0sFPEAKDk0zludK7lDN2mTPMjic9afk51So54SUFTsZR3aEgcazO8qK13ddiOK8Mi1N+A/vf9n8bO33ocVc+ahn0wdN8Mig9jBjvY/IkX589eexb4LZzHT7eSS0+52cfLKGP7i9ecwXXJg/FCrD8uGhouzDkGTHwXhPLv2pCNsMVP02WSfLr3H+hDscxnPeoANYFmeJO2Z5ppqIcBiZlJ5XWGgnXEpRIZSxCJG52lujUMVGK1GA+sWLMKv3fsu/OkHP4afu+1+rJ4zH/2NBhyTc8+sVmx6DW8ryj+C8syx/Wh3O8oTdOMYu8+dwtjUZNBLODjM6R8C0YeMOmJcwivPXJzElL4jeRJTxSindxQCsDgbwQ6ndHQQNreFFa3ocFYUH/pV43w0a/AuK1OddiUkLt01cNXcBfi1e96F//f9/xQ/efNdGM62xwkqOvdU3njnbY9T/AMpbeIBpFzFsSf7XtmlrE+lJLA0XDU+ILGVPE0qh9d70oeQDxUA0tfoFGfWboX3YunOeqIgXZ+oDzA9haSeGiFGwqSdJ44kU8trliiKsGbeIvzqvY/gsz/+S/jYrfdh+cgcNPPNEQoTxT0nxeEfhxLQsm3JKtZxzjuqzmH13PmYNzgrmKHy8Lg0PQk7I0ijDfBrUgM/s8+zgMI8NcIIWUsXGNdJB1odlEIZmU20vqhf1GeW5+JFnXln1NmJu/jmW7vx8rGD6bG59UrkHAZbfVi/YDF+5Z6H8Sfv+1n81LZ7sGx4brI8tRZO/3jCJQD4iZvuwNKhEbaPVeQc5vYP4kNbbsVAyWDedLeD0+NjuczVzbmU54KM0FiOU4hfjcF7b/kk/UhORksuHb0o3iM/2AQ1+k4WE7JDPbIvHK5bshzv3nQjmsaKNQ/g/MQVfPqVZ4k7dqRNCWuiNXInBi9wkK55oj2DZ4/sx8JZs7F0ZA5ajQacq7cVjnMOzaiB+bOGsH3lOjy8fgtmtVo4cXkUU+2ZXCnZcQKUVOn1L9/5UGk7k+02ZrodtLtd+198tf9itOOO+Gu/G/sYzSi8snDJ0AjWzVuEs5OXcXl6Gs2ogfXzF+JjN9+HB9del4xGG8V7j70XzuCv976GmW6XyRGXs0SYHBcAKnLIE6yMeUJmvORB8UHT2spDL0Chc/czBvOp12yRTjqOkS9Uye+lAPsUbOdqpVRZ2pi1mc4w5RRR4xRSweVyw24c49jYBfxvj30et7y6Ej93xztwz5pNGGzVn57gnEN/s4nV8xfil+95F9635Vb83uNfxpOH9uWj+mwhPUOuXPUm2238i2/9FY6MnkMceyYIQi4YXuk6YMF58dPJeoQxzGp0DjcsWoFfu/NBDLbsTSEaUYTty9fgpiUrMTaVLOqaPzircnf0rvd44cQhTHZmOHXoQp4sVCJrXdj0/XyrpOQZGxfKXqNT3QMbFzSTdqu27TBumUvnyFvhpXXi/fIy0Gxh3sAQptoz6RJSDkmuKGXteZ/iz/OudCcJ74GZTgcvnDiMN776Ody+YjU+fNOduGP1esxq9dcenXUAWi7C7P4BjE5OkIAxXbQDkEVX9ZILsY9x+OI57Dl/Jt00ufDAdOVXcZ1eqcFJYSkB03PTEpF7p65cxg9uugHXL1oe7AA75zDQbKJ/aBie0rykXJqawHeO7OEHw1P2qTsGi60vCuEA0Ybitti4wHt6yebZ6PODrdmBuqMtQzifC2PC2AJ0kY01S+QcVs5biD//6C/h5+94AMtG5iWhVeYmVMeapltjOyUrPuKJAY9ut4uxqQk8fmAPfu3L/w2/9IU/xWN7XsOlqcl8S/iq0vUxnjz4Jt48ezqx6IJlxXl39TsQsY/RjeP0gPnkX9cXv+l1fj9OfnfFveS+T/7R+mJ+HXuPTuzRSa8vTU3iL197HuPt6Up4nbFQyCqdOMaX976GI2MXc5ljSQeafmVkJNPEzZRs0emkcqf6GGSahwPQGLhn2ycBanPAXWvVlofEQpEXeDUuifzye1kfwjlsXrIc777uJrMPASRKMX9wCHesXo+HN16PwWYfzo1fwWQ7PdeBmI/c5bN73HOYTBIbc8ElROzEXZy4NIrHD+7BjhOHMNDqw/zBIfRVnAsxOjGOf/fEV3H88mhBf2G5mdVzDr98V7gP0e528aXdL+PcxDg8fDVPAjjB4IH4Wdyj18STnb5yCfMGh7Bp4ZLaOyGW4fXiqcP4kx1PYWx6EkAVDlb/1epnsNcBJCvtCpobOKYPc4XgdZYTvJL4JQyhMDvnsH7BYrxny7bSbWCcc2g2Gpg/azbuXrsRD264HkOtPhwdPY+ZbgfSbustGz1jbN2TOrNltTPdDo5duohvpdmoWa0+LJ49B81GpITCw+Pre17D53e9hJluB1RbRbTOyPzLdz0cxL/d7eJLu17G+cnxov+jeGAZJpns0Dywrgn6Ct6ZuIM3zp3C6rnzsXT2nGBHuaq0u128ee4Ufu/pr+HU+KU0wtbwEwhzoCwFqIWD4wqh7L93aPTdffMnzT0/eb0mE6quVbYJmSIWk6wiRPjRm7YHO2qy/shFmDdrCHet3oD3bLoJ/Y0+HDh/GtOdDgt/nFPil1/kntawQDo5UfQxOj7GiUuj+Ob+N/Dy0QOYOziE5XPmoumKcyMm2zP45De/hBOXxyzOMlio1apUiN1cIerzwM4AMva6ciXIrrP+yVS7jWeOHcD8gVlYN29RaebJKp04xosnD+N3n/oa96IWDtILEKBMxRb3ite1EbIyfo3+e7Z90gUeVilEPeC1lcq7sg6Y7MxgzbyFuHbRsp5OBnLOYXhgELetWosHN2zB7GY/jl26iOlO21w8nrdqJQtKvZ+2vLH3OD1+Cd89tBc7jiah1KLZI4AHvrl3J76w+2XMdLua+IrMhdf6lQqF+KvdL6UhU488kThUCJCEWV5nKc12t4NXTh/F+fFxrJo7D4N9/XBpGGyVOO2zXJwcx+d2vYg/2fFU6hl8DSW24TXTrwIfKQYejice2PtIFELGsxwOw9JS+A3gLdctEcqUotPt4rWTR7Fg1hBWzl2AZqORb3JVVbIxgAVDw9ie9jH6m02cHBvFdNxJxgB4Hu9txd/0XoxkysexSxfxnf1v4JXjR9CJO/jLV76Hk5fH8tQgJ2HYlVcrRNqH8PVwsAwVg6Ak/lZ9DEMpvEt2JN97/gy+e3gvTl4exUCzD/2NJiLn8gRAJ44xPjODvRdO4av7duJTLz6Ox4/sxaXpqQrPUMEDUynInRKl4H0KET6N/ObPZEn5IuXUax/CuqeskmRI8itKgRrq78PWJSvx03fcj3vWXYd5s2b17Iq995jpdHDq0ig+++pz+NLrL+H4pQvk5BuKg/ZGUZm3CwiMI9+2mk10ul10va9WAkHmvZ/4N0G8xmem8VOf+xO8ee40YsRFDVcRwlYLWSAcCXi7jH+NKEJfs4WRvn5cMzIH8wZmAw64NDOJk5fHMDo1heluB11f7MerQvVeEzglSlFOb/4+HYJlu38DOk8eLCLvX7rHUD7yQcIlOngHjyvT03ju2H7sOHUYd6xYh5+/+0G8c+P1PXXanHPob7WwasEi/MY734P71l2HT3z5L3F07Hyt79lCI2P8jO11m/6XZc+63iNut3OamLu35FUW9VSRmX5d7z3KIuusBLmVJh07sq7zT1Makwf5n2ROWGdmGhMz0zgzfhn5Sh7nggpQCS+SuvlW/OJ8CtIPU+MOqv4Mh+CHhezD01myxqACS9fLhfom/8DWU5hTmPhNH3tMt9t45vA+fPwLf4qf+Yv/iL/d/QrGpibMBUCh4gC0ogZuWbEav37/u80MlrWeQqdkjVm9VQupKE6SSGqcpoKG5eTNx3kKnOqM+pescRF4m/N9xCQjPqEuKcmWlck4hrUkWRFEjHdVkVfJlUlGuiVP0YhjFft8KCK71zTqoSekMhJVRfbmiDfk1BGxbabLiJi26ZMsxOWpKTx+8E08d+wgbr1mNX7ytvtwz7prezqWt7/ZwjvXb8HcwSGcHb9cOXoudwdkAi066Hw3a+E50ntkHBza6nJ/UV3SnRUJDpaHkZujFWdTkDfJbJHsaCwLfsA+c9oio73NJwdSb8WfvEBhyxS93ibRnIJsiTDBgdLcFw0XOBCwm7nVchywBMliy8aMEjQrQxdbyO0Bq46S0odqc4bBAZ1ujMvdSTx1cC9ePHYIt16zBj9x+z24Z80mjAwMotmIKpV0Vl8fFg3OxvnxK+jCq7lPPj9MkB8uD5BtMyWTSLjkyLUWT+mms3v6bISqknllsymJk4SCKgC9md0hPNA40W0zrTiyYGbmKZKww3HFZzbBOEZFVF33uF3LCGkuQCuJeJDtmt40g2VJPYJ3wYDe4kF2ik5ah5cjj6DbZvr8QTeOMT4zhacO7cHzR/fj+qUr8DO334/7N2zG3MGh0kE9AMngmXCtOszU52Kqs7RpXkL0IbLNdVn9VNFFtosrRb1SsCM1OvKgQhbzJ/TP+ZDCoydlajby+oT1RaEkgLCynJlElArPwI7XJRVUHayYhUrJJ6RjYyixPJidBkvcm3IcYp/vuuHBd1cusGOb5VrYCgZwwoowS+leSmzniIBqt5vJVgyPqU4bLx07iJ0nj+H2lWvxT2+/Dz+09dZ60hQb7TMvEJvZJw5/wErCESV25qcQoUat+Y+yErOzXwQNSRvcW/M6ZKPkGEeyO4rVLeWeIsEzqU54G8v7GXhqVNJdu9GjXFEupB1vIBA7WIwgNTRZjOjFXPIUYn5SqSOzleXh7GLwK9Xq2pv75u0lPyKDuBl8M902njuyHzuOH65UCJ8LB1Xi1N4TAXGAucUNwPsV6rgCJQdkgrmMcbgLIZ6ivDSiCFHk4HyUC0zxWXERmmUA8DDWpdNS4tjnAsQFJkOFhz7erpoxUB0ESb8WAi8FlMlf9orRN83lisArT0f16XMa7umeGz9H2zz6k30kEVBUlt8a2uu1UjANlvPeU2LGQilknqATx+jEM6gunv+mrrugVfGWaR7BFZ2ShCiBTBZIp2J3hMuh72s08MEbbsOFdGDOojsLCYISm77jkjD09JXLePHEIRy/PJqsd6YhbCBG5+FSodRZvbZSAGor+3wfJU+rLuQBRj+0aKS4J0Mqp3onihG62+pzHJq8XgJ8+jKlLd2nXwEPfi+oRFTqQq6QMCBOryNJh5yK9YsI4/kFMU2kJ0Nw92QAx5NPKMH50VKhQ2akVaoqrUYTP7r1dsh5TG+3xLHHicuj+KNn/w5PHtqHyW4bliWwOto5H4JxiTwdVVoR3pTMyUkeBYL2/KUyJbCO8ipe9+wyygJTtYuBRDC9Vexj6sWbxTtpjawatVYWReaEfJSHyQoW8aAn0fDF3xw2Ba8Ezl5PoatmSOYGgtYnceRwaYyt0ogiNKPG9/VfX7OJ1fMW4l8++MN498ataLoolQUNuFcwG2QuxILQTPOi6O8YMiLW5eg2vKqPbwCWfBfc1rOC5mJfJhPywLXRjvkNQdD7gNMQQsWQTX6w8xgIsrXH6zxXAhsHQ0lEsfaShXpX4iAHw4Rx+P4a/p6KAzDSN4hfufMhvHv99ehzjYIWAkgLR7VxGEc8pZneXa8UZbXhnHxcoSiS1VmfIsMhR01vhhZJrlj7kBWoJRdsVw1LKQRJvFAKX4GwFqCkNr5tIZ0+V11s3dZKIvfsyVfekXesrfgtK6Qx0AzoYQD+760457B4aBifuPdRPLJ+S57GthSWG1jbyISjDWHM6A+lf5RDdTeElsWHfwauI+5xCiZ5iTDRKh0+CYQCQs4vtb2x9nniwOsYpw6Z8ohJ4KTCvQAOnmCblUpPYbhyQsESy/s/pzjnsHD2MH7j3kfwgxtvwGCjxQ0Twcdkh2FY5S6Nsfowq93r+oBSmbF2TffSkObhk+YJN0zFo4giIIs3fjlxyz6Ag39Tq1h9DAjgWZscoYrKS5/UgbdO+GS6cuh+Uk+g/w8sEYDFs+fgt+9/Dx7dcAMGmy0jCrbiVClDPnBPhk+0E10d0ooK00ttmLSDsiq1GUEONjUqEFa0MJrcc1ghlGVlTY02dwTk1xYy8uSe0iJClMJVG0osXDUjjQidAOOMCu81Q3wg/g7iaKCQ0ur78a+sOADD/YP47fvfg/ds2JqET8Lyusgl6SXniqxgRjdPa7KVIpEZLkPMMDHdECGswXPrdCbrHD/Ls0n5IMfyevD9gTysKQd6RLtqmIa/Y448GvNW2GhGYJwiG0mvVXzFMxfCJqVLnslLlKJ8RNvr5anqXjntaOnEMZ4/sh+Xp6fCAVZFDjd72mw0cPOyVZg/a3Zp67P7+/G/3PUgprsdfOPgbvjYY6DZwtyBWVgxZy7m9M+CBzA6PY7jY2O4NJOud4hjMXpdTvOgnOkBLsKD6rGuUKNJNS7I8yZNw6oBs+yuHHhh4xSpKpO1DZFsSYxL1DrI3JjTns96zEInV1+oeH+BzDlyBmXElA7rAHrv07GKfB6MPLTFw5oekBijbFVXkSMvK9OdNv7wqW9g7/nTyU4j9JucrMUItVzoxf53wAPrNuO3738Ui2ePBGcNOACLZ4/gE/c9iuH+QQz39+OuVRuwccFiDLT62EDzxMw0Do2ew7f3v4EnDu/FqSuXMRN3GX31JMdiM7GISCcjM7HRV2NY9fw5gP0kc6GQ6kEz17ccTqoAHrSmoj5LiKAVQCJkzSQTCOUjjVLWLdnPFaeqFK5bTWWmmFF4iRIT0pTCryYDWtPh1XW9jsRMt4PJdhtdHwd2kiiusxKJ60QJHb751i447/Gb9/8AlgyPlExCcFg0NIzfuv/diFyEhovMbXwGmy3MGxzCDUtX4iM33oFPv/Y8vrJvJ0anJhTzFA+kp2A8AdhUcTE1SE0VCtCcTR/y0IuMEpcPD9KHyCw+63mXdnBkV7SIt62TIs1iddCMBS+yT+HlvYriTZysQLKqUyd7Ajpgq+xokxTt2+9Te9XPM+EV/cd23MU3DuzGHz3zTVyemixtwQHob7TQihqlG49FzqEvamDFnPn41bsexifuehfmDg5CTFoyiRsbPBG9hhIeaBlSJ9Iil3BWvwVRycCcbL8QqLCMFB3VYq8kTwCwOrJGk1IpDKFy6FGgqFII4FWHl8IrX1Cjq7ZSyENbrK34XYjmNlGQQ6VobiiFz7bhNxTfe7S7XXx930782+9+Ne2bfP9Kf7OJRzZej3/90PuwZGiYn9GXwS/kKjSinXkG9raSZqcI6QI0l/T07BqIiuNuyAtCePi4hETGBxXJOtjc0vfKkccUMs/quQorS3WUCYhRT44qt1qmChnTPELN82b1Ubq1UTGUwmqQLe9kQgZMdtr42t7X8fvf+QpOXR4Nd9ivogw0W7hjxTp8/PZ3YKR/wLLrqrAtJwXd9JQOb/AoLGfmTc+/gfeI4tB3tirm19xQFulMokYJkqQxhlCNHL4GXodPdYuXFbHPDStLYLTW7+p5N5pUcXnMmStFHSw4ulZIa6TF059SKSgPJtttfGXfa/j3T34DZ69crk3POqUZNfDIhq14cM11aEaR8AwSn+QfPy5YxDZK4Hm0IRUH0HJljxUVTUQsEo5ZU9ycZG0xgEW1Af7HRss58IxARixYqSi1xalCqDzjQVIcFyCBo7ZcxjgFSPhkKXHAKpaiK8MPwQNlJ5XgMQqg3enisf2v44+fewLTnXZNOOpNpxhstvCRm+7AvIHBnIoSfolDbFTLQhumBBZPNKxl13TsKVI1BD2/GSyYHW8r/JAnCjGEZDNldPZv37GH+chDi+x/h3TfpUYDjchp+KRSGFXy133lO9VIZJDB5oFSzBLDBMDHHrMG+hBVbOAQe4+JmRkcG7uIU5dHMUl3SjSKcw6r5izA9mvW8TXqYRIW8BrSLT0D6LUwdmU0Vx3v1NLkA3MxSMow9uTAa50akyl2nUpLU7nZEZ0p4/JVy3l94DG04+EJXQrpKnP8FYURl69PsBa4JJtvJUqwfHgu7li9Ae9YvwXPHX4L/23HM8lJN4HBvGyMwqNYfVeZkq2FQKGm4VVf8l5GzyQ9ae+O4dHfbOHe1RvRKBlwnO608dhbu/CXO57BobELiKII1y9ehp+95X7csWJtcDeUVqOBe1atw2P7dyH23SC8DNeUJ8maiuTaG68VPBBUMVKyFk1zGU8/LFbMObJ0EyjO4kpxdJZS5A+oUJnsyhUjTuuIrJPnS8Yp5GCevX+rLpFzWDo8F/vOncJkO4aRfiaUdWg2IvS3Wlg+PA/bV63BAxuux03LV2P+0Gy0Gk0sHZmDz+98ge3sbTEgXdrEitrNg467VJU8zPZ5zhwGD/TySz6gCoDwAHldcwcGsWHBkmBqNfYej+17HX/w1GO4SPbJev7oIZwYG8MnH/oRbF+x1vy24RyuX3QN+qJkZ0O9m0cCj09lhPGEKXEiI5bM5ErhC5nIwilrjXmx/JSLXTO4Sg30QGxrUCXHRPHNGlSRUz34CrTiOy89Q+XAS3m8Mdjqw7/94Q/jj5/5Nj6z41lcmp5MR3sT+KN0f9hmo4FFQyN4x7pNeGDj9di2Yg3mz5qNKEp2HM9avG7xMqyfvwg7Tx1NhYIqgS8OHs+FtmrjgmL3kbISA4WFJJKkPJQwXBZ32CPv4aIIK+bMTSbzBcpUu42/eOV7uDA5jpjwoOtjnLhyEX/68pNBhXDOYeHQMGa3WumxWR5MUoIOv1DiOtM6CtSDIQy5xY+Jy6bVNHVlyDU4BpI0VETWMxN4tJUyYoi0YVZ/WlW+7xNcEKGrn7dSMGPZnPn454+8D3evvRa//60v482zJ+G9R8NFWDFnPu5asxGPbroBd6y9FsMDg8l+pYH6B1v9uG/tJuw6cxzdbtcYgdd0sDYuiHpQao47hBkBEZpiIy5qZbkzpUapOP9vzsBg6c7d5yev4NDo+eIQScKDTjfGS8ePlMIdOYeR/gGcnRw3ZwwUpJNThTIYinqymRBhTwElp64qzE77FPkZc2pKQUBtSejNGyS/pCfxDG9OBLkbEovpclitrUiKWsYmJzAyOIiy4KPVaOCdG7dg7YJF+C/PPYHJ9gzesX4zbl6xFguHR9AfNdCIokpFi5zDPeuuxZ+9+BTa3UkDmgDtLIPdSzE6zswwIeQPWOBa8In0KRqAmdkBqbfpyo7IcuhrNlFVWBskIkmuQ3VLefH0WDhTCeoqhSVXTfKUeCcBQL63pSQ9ya6IPoRSSOb9DKuqrqGAT+onbi69fuKt3Xh0882VTGk1mli/cCn+xaM/Cu+BZiOZn9NL5zZyDluXrsSqufOw60wx+9TR2D67RoGDR5zyPpkQqLa3qVPY6Kqz+3WiT8fIyMjKlWJ0chyhbJFzDnNnzcaWxcvxwrFDRciZ4txqNHDf6o2loLfjLkanJuBzHFJ5KUDLfzjRJ5ITP4vTXEE8g/QUOZVAqq70FBFLE/qkggK45BcfpyD5jvyHZZvkAXgQVq5IlVkbF2Qd1aocnfce/+Hxr2PvmZNo0zOOAyU5PreFgVYLzajRY6YnKUP9/bh/3ZZkRwma7lM5co5z/cDIKpqGWR+bNuQ1c8gsAy+rSMnucWxsFOMz4S19BhpN/Pxt9+OakbloRVEuzn1RA9cuWIyfvfXe4Lex9zh5eQwT7RkUh3lahNIj93rwrgZpmCfyXF5U/Xw8JZJtqI0A0hqkUnAAwlzX0z7kiGpRbT4uyBD0oj6t4a+dOorf+OKf4YXDb/W0S/jVloaLcPOKVWKbywABRM7cg+86rhYYGcVDiIPkaugeo5u+poONY1OTOHjxbBAW5xy2r1iHf/XQ+3D3qvUYavVj3uAsvGfjDfjdd70f6xYsDrYd+xhvnDmRTwk34c157u3nBj35qLagVqlh8jabfDoOIbMhPu+58f148t2K0nGKPC6l/QXVqUveY1ibCDrA+Ib08QkzefYpjmPsOHEEP/anf4SP3fEOfPzeR7BgeKSnI7pCJbHCMdrdLo5cPI9nDu7F3+5+Bc8dPYCZuEuiPBecOm7td+d9nGSvXL3jawkrRfIDom4ynV8E0nlIxXZpS35Mddr45r5duHHZKvQH9sptRBG2r1yL7SvtbFKoTLZn8M39u9ixxkXUJnuNzpIAlRiIsxQy2FHTtcPyPCULHmKlA3PG8LTRT2SSmZnzKI31JF+sOmo8o9vih/sYugLvPSbbM/jPz30X3zu0H7/10A/i7nWbMNhqXVVYFKfzfE5duohnDuzB3+3dhV2nj+Pi1Dja3Q46WQ/RgFEqAY1dnXNoOIe+RhOLZw/jrtUbcN+660phyeU6jZHYhsWuUBOqBCGlKGiXik1qvLpxjG8feAMf3XYnVs1d2DO9yuj4xtlTePXUcTJ2xAhHaJT+ylLKLBgICEzep7Beq+qr6nrLe6Gk45ojmFYgD6MtJIF36vLkKcknO6r1VRqN7Db3JFkfQwr7ZGcGO04cwsc////hx7fdjZ+/50EsGZmHZg/eIvYeB86dxh8+/jU8dWgPRqcm0YnjZB9U8OOyLGtWMDjhaOTSI6caTSydPQd3rdmAe9dei1tXrMW8WbN7OzpMG/f8vrRZ3IkEkh15FR6nLo/hL3Z8D//svkcxUDIm0Uu5NDWJ/7rjaVyZmdJI5I37FH4uM8XgnS9wqhN9yGXOchtNmbgmctRkOf/MUzgi8nkP3mkYADKira0Ud3WF0uQCngJf1FkoQZFJcPQ2AJ9vPZ/ArJcNdr3HhYlx/PGz38bTh/biNx/4Qdy1biOG+wdreYvIOayYtwDvu2k7Dl44h7GpY+h2u6RNkakB0eVUy13k0IoiDDT7sGxkLravXIcHNmzBLSvWYM7ALDTSM67r+K4sL8MECIBK44GGrOQaYNs4cp4UAjTd7eCvd+/AtQuX4QevuwkDrbenFNOdNj792rN49thBdONYZQgTOZPaS+WM+FrL2BIexGl9+WCytZesE0YilzvkFqYR3b71k/acD2F9xRQD74SukR/aIzpmVUmV+XU2ks5sRH7PyU8rDxh0zqETxzhzeQxff/M1jE9O4YZrVmGw1VdLKZpRA2sXLMIDGzZjfHoGe86eQDfvFDoT3mQjCodm5LBw1jDes/km/Nq9j+BX7n033rtlGzYsWoKhvoFkJ++6UzYAzHQ6+IuXnsbFqXH+gApUDoaTP8HeEjRnzPCJUrx04jC2LF6GFSPzKif7hcp0u42v7nsVn3r+CYzPTJs8ytoVomLgIOGVMpTcixw98YDLTNIKd4+W3Dcat2/9ZOhh5SmWgIpnGQMEAlVKwUGQ9zh8TnE0TPBOt4udp47h6QN7sHxkHq6ZMw+NRqNSIJPTUQdw55qNuG7xcuw9cxqXpvl5d0k45NDXaGH1vAV4aOMWfPzuR/DbD7wX792yDesXLMFQfz+iqPq0I6vE3mP/uTP4Ly8+lcyf8gJPmvwg15z8tgBZ194lCvj8sQOY0z8Lq+cvRKuH9HTsPcamJ/HnrzyDTz3/OK5MT7HnzjSkEt4KnKicsegrIGeMXE7fpvRpffxDnjWvdCCiF4Y2Jz/yt6J6wJcpCVMCZDtIB+CjCAaYlt2PXIRFQ7PxkVvuxsfufhALh4bRbNSL39vdLk6OXcB/eu47+PxrL+LK9CT6Gy0sGZ6D7avX4eENW3HTilWYPziMVrPR84CfVWLvcXFiHP/2O1/B53e+kCuiZagsegfv1TFUkcOcvgE8vGELfuqWe7Bm3kK0Gk00nD6cPUkdx5hsz2D3mZP4sx1P4fljBzHRbttyJT2bxIlZdXqvynPklSf8Nu6Zhp8+b/3Sh7xWAglsJGswgeVKIVByqcti3sPwAlYbDEHDFSoEFZVynByAvlYfti5Zjl9/5w/g/g2bMatmGOW9x3SnjSf2v4nnD7+F21etT/oEg8mZ2lFUr09QVmLv0Ym76HS7OHThPP7sxSfwpd07MNlus/SsdS54XavK75UbplYUYf7AEO5cvQH3rdmIrUtWYNHs4XyaeLvbxfHLo3jj9Al8c//reOXkMYzPTCP2sfBMGl6nBc8Mn5wCi3iZ7J0qpTC25OF/km9c65d+zNcJR1hH22IA+SbikJhMKojkSxFy4l6kALUJXnUIuHMOw/0D+Onb7scv3vcuLB4eQd2SHTfb2xhCdenGXRwdvYAnD7yJb+zZiR0nj+HKzFTiGZzI7AWtqLwnglD5jlIKScfkb+SiPFM20tePkYFBxN5jdGoCE5022t1uQheS7ak6mF2FTwQeKjPO5HlZWM7bsSIMKeOZUqQKAaUAdp9Cegpbo4OeQimEhQyjhOpTRJxSisBl8Et4HRwG+1q49Zq1+PUH3oM7Vm9AP9mE6++zeCQj1O1OBxcmxvHtt3bhyf178Nqpo7gweQUz3S5iY0A1qrK0zBJymocVIsQDKcSp4XIOWQ/MO/B1BjWUQBVnG1YTXvLAxNHwdJG8VxZd5AphfGAj1GP4xCFSQl+pKIFwCtAbcZnw1nin2WhgqK8fP3nLPfjY3Q9i6Zzexi3qliQlnIx6Hx+7iGcO7cUT+97ASycO48rMFDpxNz3zTZJT01x6ytLw4+3G5PQeeSjDkRDNK3kQ8AJmdjHk/YKKXdQRFY1J7Egf4hd/TO+mWBb75d9H6n2tnLqzLd2c9nC26wtlDqhSWPFhCAeLIX3NJm5csgK/8eAP4J5119XuW5QVn/YJJjszODE2iu8d3Itv79uFN86ewsXJcbRTJVCunA1agilFVMvKEvpa92oIkKrBaQGylMJZQtdjSFuGE/+pvYmJE4PXwjGdSdD6xR/zvEH9gQK2Vn+iqKDoU2g3l/ciyqySCp/4B5GyUJoBEocQ8SPnMGdgFj566z342N0PYdHwbLSi6rn+tMTeo9PtYqbbwfHRi3jywBv47v492HHyMC5PTaKb9kHYmGSllU2JmMf0NQSK4CV5ogyTxQjpnUtDWP5tHSWo19EuCZeChjVsSK3wialy8xc/WEyyYC/7SoSSe2VpWcO90rSs1GgGp9MIGgwJhU/hNHI9JjWiCBsWLMG/fPT9uH/DFvTXWgDj0Y1jHLl4Dk8f2JNMAjx+ADOdjp7DqKyUQlD0iQgVhRDyzrY2TKWdUkH4OqGHBb/tKeS1Dp3q8ETjoKSgfvjkRDpW/OEKIYltWinZ+NWkZK0Qqz4DLKWw48OK2NW6RyxQ5CIsHJqNH992F37u7gexeHgEEcE3myYy0+3g1KVRPLn/TTy+bzd2nT6OcxNX0kmA9TYnNhVC0DqnpCFUVSnZOn0M0/IanjuEg+SBJS8WfPXCJ8vIBXAQMFs4BDvazV/8YGa4ilGCEqWwgRX596oBPDP7ZF9zmn4/rJSBk6HEjrTQ32zhxmUr8Wvv/AFsX70OA80WOnGMo6Pn8fT+PXjqwB68dPwQLk+nHWOWfrRhLo/ZC+9sew7d4Y8CIaAghOnBnXVd5SnkvQrLezV9CMtQadCqQkIJPwdMKXHzFz7oFc0DsWg5MpFxT7uXiElvDwgaShr2FDYOrhKHsFWKIodZff3YMH8JVs6Zj3MTl7Dv/BlcmZ5GHMfJssoKy1qaZq5Q2lreGUIxagqMpTgWvL3gEFlKcRWKUrejXY5jmCdMKQC45i98oJikXuK+ZSzo4a/aUwSVIqgA5QhRYYmQLRrRIaBSCF/RTwp4DrbPj+wn1cbBBYUl5K2Vtwtsb8OVon6mxm5DErEi5Ev/RMLTsXfepueo108qGxDmENHwKVJLE+kFHRVi64WzabhyXaLcxtHzLQOzpX/ZNdlLtnieTnZmsGQCCLHGVvzy8qwBiQMFTZ4GapR0mSXbATxd8lng7lGKA+cSXz7LQCwuvICBs5PiwJejJsyVb9pn3ilE1bUx3ZyAbb1KL2J4tSTYIK9kaq39YiFGxAFnNCPOEaG/hAwVB0F6sc6Hs8bA3gaOC5q9nziHgXwQC+ClwBMBM4Gx4PNiL1MNRQk6XtWlySCOqyWoSB03ATVxROB5oSS5AJUUfQgkFI8YNQTh5T1LoBT8MKvnOOS/hAJY6BtKYu0BzGliw89JZikFoR2yNTjeFhZPK8kakJvGQn+rlMJgeG5BMkhigRAKsbMXyHPY2KJ5hqSAWeyykB0KXnUGstpIwUueW56CGEDOKSVKfDMG6Sm8YIMUmNRTUOUUiqEOP5cCL+BT9BaGydpRxVJadhyCL2nK2h2DAcHMEGeE4IFlfOXuJCFmRhIhjplAMI8SfIh2mkkEYYshMYGEqlddBAI2xiC4/Kza+1UfDG6poOdCEIRPCpVUFOOJF/cU/DWO+DIEhtfn+LWXwkBqUp5M8MUXUFne2gucZBv5kWpU/mQIHmCjpehhI1Tc5udUM8sb9OOKVQzoiuKNKuIQ1UziU4IJdyitanplbcUvEA7iYG7XbwDBBdT2tiYOQRoVSu3KPpDhR9VJRmVGJq/PBz8tc5waxAKHSFxbH2Riq45UUw3oCriC2caFo0dMDbmOFBM9rFvKSlkMskIN01MYJMz1gYRPvH6vFUDRx+eGSn5fxPee8UUfzi5w9IanKHWNWXte9CcIfYPwFoBRw1Q4ZO0dZYjioJXC6ldYDlZ7Dn3ACf+mgE/SQFrj/OS2kIcndbD1+4QvQUXxxZdFlbl6KR6Ume6Iv2GFT9Kt1TBzVc5ChR6ArfWyvnIvZYMgXblRnPzWUNmy0EPiROCVSlHdsffGL+OCoOSt12o4bF2/DZ90KqaRt6yogDckOlKufC06WRV5GzaDMHIDvew64l9xhJTro9hL18MIZngKA4GQpwBQkn0yYj/FkMLyyjaKbTP5x9ozlChR7l5KQiwCuHR6ObzCyipPASEsEiQFL+VYRX8iC/WUpXWMrdqFyFDDAkF6No6DxQPZVFJfuVJkXoMrTyC6UDgRPpDrKKDvmuDEKtmeQkspS5+lblyHT7qTl3e0rTPvgvAa560p+Ei1BF5L8YPhlKhZjbOYxlAqiQWhFDIrfKK3uSGyDAeM01HjMiXOAPDaEFkhFmdMgC+WTEulyNvwiua1lERFRUTRpVIwmHWJfLDx6njL9oFhzxDs8JXsDWsP3mVIl3kKSSnr2qra+oZaFG8PkkmhUjS1sk+yekMpBM7VOBhKIklqjbWodyUOtiX2xuthvagbBlEcDPNSJy1OeWIphaJ30k6kapFYstCDW1Wf1VbCoAwBfq13TJa6aI1TWF7c4kpo3IIKfJHUMlw39xmpPHCl8Cr8gGrUG4ThyTSyV6vJJH7X1m2tJGrwK/MU5J3Y8uZGDKMxsE8SVe+w8EnyKOWBtzrZ2jDl9K/QJ192T6PGf6TPswNkNNkNK2UJpFQUmNeAHn3UmWmVY4bIxNLD5XPAreN2JUO0a9bhk8ApIOQKJ0F8rzkrPLSOcTL4TRwE/JWDdwEcvKZmtafghNWW1rr2XMVVx7W4ElAJ+RB8Iq0E6W/2iWSyQ4a94lFEgeUSb3wVpFzgtdC9HH5zb30l8LFRadj1hZovfjlxi41TSEXvpVh9DFoTEVh2RK7pnTVdgs3WhNd6GlcoeYZD0GaaoHv+In0auG0dGWyTuB68EnHuXb0hLMk1H5izfnlRq+H6WJ5chhJm3fQVa5qH1dGGoJw0YJZPlMSQZ1MUOFkhlGVlKw+Xz62SCSSjnVYKH6AR/06FsAFvbVpZEToB1jiFPSHQNEICR6kkOQnFA6vvGhynsDKAggcSNNN70EqcEfF4X8xlCjFDMzKgwPlNV16DoZ0hpZDXwVmy9BvFSeh7MtToEWPTKpWNoyQvwOrk5eiYtGSflxcf/FTRRR7aYn9iyENAKfh1lRxVhxWxeGqFN1JJ6nsK2QfiEBizXb1WHQmVNywtBUK5RSM+rKEU2iFZKVneqQsNLZnTPKSlBbVSFg6cAaXu2zKV2XeEbKwt5oks2hrwC2/I4JXfWTQnt2LDquqSJkeFIVU2zGscrGya1U8qcAyEXKB8C9A/r8IynNRzciUuxiEkQ+xadIPytSCCBoHFc2t+v9Usn+ZRMIV5O+WmpTWwhMiAlaHhNTASViMxwOp3xj14MbWEKLowTObUFYFP8ZlnAhDQUU7bGuEIQ0IKVa7Ntje0FMVigJxKX7QQwDsEr4kDYYRQbL3kirqSUuJZgNkuNPBZZmvCDfGevmKArDjnVRkORkglLW/GEHkvCGOJZVWDeanAWKFAXkylsXCyhM6XyZlqrHJEGyGBssRR116hfzm8Fg8sHJUnMuCr9N5B2NjkPgsr20pxtyYJ4YM42QhDLSNU2SeT6q4IN9i35fhk75TD53k4Q3Dy5Ln6NMAAH1AaB0G39Cq2whEBbIWd5PDKF1T4ZytFLHCQIWFykE4VzS2vYMwqsJTCE68p+UgqcILeFg9yHERcKm1LZLo5CgR9bBbLghoIlnxjDbpIJpmDYXA8dKLjFNRLKKYI4ioGFY+YpwhjU48h4D0cKyWbKaFsVzlLGT4F2EDbUeGfpHdVR1uAQJWCErl0lixrU9RcygMDB1GtLUcVPkooRUQrtBGQNooFdZwhBsE9abjMU4Scq1IMpbSW04fNEIEDB8majCaEkxkJbfWriS/QDloa7SkYLSmUQaXIGsu+1aGHGizljaQwlAdFmVKEPSWjWMk0Fc4DKYdSKRgPashRCPziq+RBpIgdxN8Y/bUoabhmJmRWeJK/Lq/t01GlLjKlsCYEUqHy4kGVlfKkWs0nI/ww3HSPVkpJJoG3XKi4YUqKAxMgZYjAaQ5jnAIkfLKUOABv4sMVsxQPKsMnVYd8Ws0DxRMFfwJxVBEPVRRDoEqEylYKi7YSwdiuMMSQkpV3+uuqBS7FPWvlXSGmmgxhJAOpYdQvpSEsw8EbTy0eCaUwquSv1/EUvrSO5F6xG4mqTylmiWGSbVSFTtaAKth6CGt01W6xZOQ7v/CSIWVKYY1TVGuNusfce96fCOMg6MMR8b7whuTlWLwGECtILE3lUsiAlZWdPr2di3JRBb0VDmVGyGv2MvDiFPVCOepM88g5x2hh2nRybXg6do8b2ljUYGHBQtqcpdVjR+K4aXt9AoeRMjmr0KKs5wyxGGBZKanlOTJyKWrm+rhk6lmyFuhh110wwEnW5PDlg3cELSsckSW0uwcHy5k8sBQxFD7J5AFTCi9wYnXJcCpWGWAz+2TxS8kMaZhOLSkNnwqxYMgwHlBMDMPqvV4RWaIUEcq0nGEmrwOcLw0/6K+QAPF39AxHa0RbK62cZm0SN4BDqRKTXzLtm32nU67lDOHe2Zs01EphwV/zWnln+kYmdFRoe5zmIUMIyZ48VyvVUoJty6aJA63f8AxVCRDSqQ5BLcMWaZokPCEGCaSVQ7EEoAJ4w1toOiZXeVrWDJ8sKwUTHgcbh9xKkU+dwKHOGm2UKIkn/5nj+N78PPCcew6bBykWjMdVU8etHoRtWFUnmgETThxYo/ThfZ8MY1VmmNKIIzKZIe8FjWl9L8HDJ/Wn2rhVFHvHvRIPIJVa/KpKD9Jid/nlYKOhFOq6WshypVCGBQbDNQ4WD0LQhEfMAyXg2czBQXEdEjFh+zmfcqNUD8A6aQu+yYDlWqQrUK6wiP147Gp4l6BSBEjBmvaoTMvmfSApsF5MjpGw2TiEsk9Bq6qutaeTg4vW6C+DkFm94kcMTV8PGh7Yim3xQIYa7FqlZIu0rJo2nuEoyMB+prDpuVUU3oIfiozSU0ilYIEOY1gOnwCYXeo+hHOyVkN7S8yTDD3M54Frc/CuPNzwnnWjU8PmSLUkdCI/WJTkAdscelOgOHzJH2vjgkKooEsoA5UaJqfe1e6MDM6z51XejiuFYLAIPWSoUctxS8/moa4FujqkEm5chuWW0oU2LrCMK2+/uFYLhLIpEQJDCJQUgUsJJqC3RiMt3QkR0OmNlAQ/vLHbXXiREaF4oD7t/VT4AdsJGeyD3EY/v1dyrQwTeVyMRYbFtWKigKgy4BrzK96HszyFqQS+JFlTEweNk2W1uQGxeKC8X+qt/39WvioGaGsFnAAAACV0RVh0ZGF0ZTpjcmVhdGUAMjAyMy0xMC0xN1QxMzozMDo0NiswMDowMHRhE7sAAAAldEVYdGRhdGU6bW9kaWZ5ADIwMjMtMTAtMTdUMTM6MzA6NDYrMDA6MDAFPKsHAAAAAElFTkSuQmCC;align=center;fontStyle=1;fontSize=11;labelPosition=center;" vertex="1" parent="1">
          <mxGeometry x="203" y="85" width="77" height="77" as="geometry" />
        </mxCell>
        <mxCell id="JKClMGUKZ1o02f39TSCT-7" value="Chroma&#xa;Langchain&#xa;Vector Store" style="shape=image;verticalLabelPosition=bottom;labelBackgroundColor=default;verticalAlign=top;aspect=fixed;imageAspect=0;image=data:image/webp,UklGRmoOAABXRUJQVlA4TF0OAAAvk8AkEOZQ0LaR0/KH/aOLQEQobNsGGTO8gTnyoJvjD8UcDZH+zZN+NOAWWiVD1H9RGW1EB2FH/n9FkqMbiqGyQE3DPNUjZmZmZmZmZmZ1VVYzM2NhKKu68tWrDDFbstgEj9llBk8XYMqQbJYOgBZasiZCYDKDycysoRNM6AJkjVfRXscTnIDlMrYn7ogUy5LHzMv4rJ3oAyxYLZmKdRn+7qK5sRZ5zOjIlW3btK2fsW3beJlt2/Z7uRXatkLbtm3u1SQIAFhG0kusdmwXg7Vt27Zt27ats23bNsaImbZt2g3c+LPZZweSJLXN7B0ch+Rsg5IfILf+f0VWOnZ3d3f3F7m7uyvu7u5uu4v992IdDOnEhFYH8Z5LSvxS4g05FDFtUMHEFEFK/OjhRcS2h3BjGtmM3B0yYhrgEC0V6BBRwKMGbjwxknGRyKUASA4AkJFeU7djc23btnW0bdu2bdu2bTP9778jN5IUybUFqlm68e4DZpjGkyzATiZpsqmwADeZJAtgMkkW4CeTBNOBqjX/oCwMhPm8V/8zm3x/UFalZgbXoHZRKihW/8lsVn4ve1v0MPNk7Hx7c01JaUZBgiSqi9qbBvVN2lh4v+R5+YfM5siZ7WObMdDIpJDij0gfsO4b3q7BLOnPmJ4NGVmvKG1itEg0Kdm6NCdlecLoB5O/zJRsMhZ6Qkkwq355ybGFd1N3O9qywqMcPNSseBZMM7opzYRqQpHELjPGBTOmjdBfP8mnMm/UzJzzzO8AAFx+ZPaMiR4XGWkl+SXESyM7pjvt2pCrYSE82XNny42Nhki5kaiPVHv4JkHBImNRsWh06HQY/CCCeYuUK8GoDNcZfGQiZw3uF8Jt9xFCFENHi1KjHR2keozJxiQj3BDfSBgRjOqCl0Zfc4AxdwJhNwEuceSRNhEAxPpifJf1aVgbcpTmQUlMSUIBI4dhoDgpoOqGaRvbxGBaMBuxCFgkLDIdliDuolRIsiHTQ7sIIehb/U9WfI5brK+MsrfhXzEiGRIYU0o3jEoDf/WJ1luAfhcCk5wC4p4CXGAOBlx0yFyDWdG6HMU4kcMp4FwukYHZYw/7aBFY9X0topqBnEWrk+q0JQDM9KhT1+LJqp9RU7mxHqoqjKUTtylBsTQqpQPNlgFdDgZG2gDEPgEoQBaliV3Xkx5v7O6yytpnt7CXkFhk/lBhkiWap/cGgBONJ30jJ3NiPDVMyByl6282dfGbNbyTgSYLgC6HGIy6Hgh/rDZhdF1PujUijIqEuIdthg+7ie9LxBdXmHiJFul94MxizkVhsrdmDydJbvPC9oGp44CmOr/VxtlhjYQwKlIMhOhyiaKIAE+CEOJHJFyWFMeZqclrufKnsyPCzpKtj3KcdNr8k3cioM6RKzVun/vJbMwnBzKIBUVOKKBIC8KiCOAsRossLwFQJ4wNs89y45xl9REOJrxTDXbbu3zTK8VW9VA99iNyETJogQ7bn1OdYKEFFLf3j56NcjRn6MMUKL2TAHWaVpk+V3gcy6X4bI+L8EKIFlkgV4mmmMjhNYbsbmn00zfENFDz3upcuZJTNrldjsb8wy0o4odoQOaLUknvHaA4felzdZGznAFihEPl39V5/xVfMk351AcTULmiM5C0rOlQfYUziq138XN18Rs9BIOlOue/4otnKF95WJAJGNEpEKnKkxGy6D2Fb+Rd/FRT7CijFqAyb/USC2cpXrtjiOSLToJI5Pvhkuk9BxST15Y4yYhwc8UcueIL5jz++1zRaRBJqhIuDaYV7tSXO0nDZZ46U634nEWKt644dxzHQhKpgNFXOIwf1OcipwdD5W7eaXqVYoDSQ09TvnXB9WLAwVDLSowGJgqO++rf8cuR9joA5sB25duecbsYT4aD+Y8TceBoyKJKNMtMw2FmnyX7aihcViz+yXNvKRkuJhITnQ6RNKz4waS7wtHmkpeaUhuBhgMLdZZKiSVT5D8kmAiTKwCIpGEuTDyDTxwy5sGICV/dI3CZV7b7Tco3LmSE8kUs4FCsNmYKFD1giCLZ7y1gViz5xWtnOQYPE+FETGBI+UFkuKoG3fRc/tlQZStUgx3XqNM1SsxZJP8txvUKpdCwtKbJH8gVT6btBpuxGK5UqPpCdS8QQ0AUDNKGsySaY6aDaAxZ/l5RYMUV4agztIovmJHLBIRwIAUapkKEWgKZ/UFmepAAdhPeaQYVqj5T3gkhwycKCEnDmg5TgikWeoBiStJbVXhcDcc7XafEomnMH4nf5woIokWiYSxUFL33kCqGzL2MczNABQqVhRVLfnA7n0iGZw9RSBT825dIsi2ApP6jzvKsMQmulx55SPHRyZv5goKwiDQsRKnyDaAI7f+ZESq43W6FRTbXY/4L5IvC4sc+TAXylO4apGLKdqgVC6ewfP0bbldjyLAtLzBIwf+XRVqzsdZRSovB+hElJ25TvHfGEMoXGiwSH0YiFTP6DmUvSXbMFcrBKbqumywI5OcKrvh0MH8ZbkNAEe1yTIBTsfITj1PZZFiY/2Ki0JCq+OJJtgeBkRM7IR/PyvS+THU30CmX4ASsrROn38L81JXbibQUTGHJGevkX+wsOJMA8WEmShGDz/gpSjOlGmCAR4otGyaLhJiA20OAfDpUhCwP8dKbEsiCde8Ugzx13j9e22vJMDH/xEThIW3oz06ai/jn/99FwGeRFao/8DhS4JfXCxBSxRdHiiO8o8eElRALSOU6PeJ2OtFOlwgRIiXbxjvwnzoPqUy3Gxq6Gu6U5YWI9OkE0yx0+Bgy6KWpBlRm4HmqB34+Fijxhpmp8NHd5aasBVR62CnKZ55+P5MwidXO5C8+ujpdlSCVHn2M8rUroRKjickvzqTUpF2Kjw5EJmAmeyg1ecefJ0+J1cLkNz4G9LqrokkJVRdce1h8wHASp5eZHN9v9ahpfwMRSUqIOuC6wuAHogHDyDU5fEzaCLNCVS8YgkEwVlXm5Z9Kxrnrw2iuG4TqB10QCD6qfJTiOP6DOh9ZiiA5lOhFZFAUASDYGlLlQM7uBl4VphhTORTVD1WewPBIdsTHp0NFyvQIP08dJPQxjJ7b64FrHtcECFgwfHNJDTMrG33Cz9ChJ3oIiuqE6xhLEGsr4cOHiTjDzLT4mXsW46IHGpGQc+aZZ/aBLgRkEjB820svptiDsl2ZFXWFQ08DMGUJDYsMX09BrWAhMt0DCGppdJITMXLqhWkB1z77YGNJH8Z2NfoNham7IZY6oIAcGUwXWEJYw9eW/p9gFtquuLRgYxJyapckNAQKfO0f1wriLd1NgKJVf23NTrKsAAhTT8u4AkHwrb3kiZtYqKHtRp1+GGErIkYG5QHRG7oAMGxIG543LwBF2kFYX/HpvoCU2g3jmxBsH4Kt/bswiQy+QXNGeTjSzgDBKPmvG0SP6AJA8NXf+ijRKqCIh59XfD3dy2KUVCIwMQKCb+zQMBEmltEvqMejeTLj8JUIV0B6z+h8wQi+Woft1fspIgzp/W0tUGN0SiMEJkCkA8NHrW1/RR04+HQpJYDTIGPu/lFh9H/7wWS4gVIAdBs57aHGIkIOpYRqG9uECFgwfGhZi9fjmxQc4dBNa54BjkhpDN9wyDD6vaFiLAEOSpHsL2IklCTULxqiAcOX+9R6Dp/Yx49bDrVkMQI8iXSNaWIEj8GS1Ew0zULDAnBY/YMHPFQeCnKnhGoL2ziI/gT3fO3eGDVM5ACDlr09dZRaN8rZhy3iGgkJPieVw6W7ACgOW/RYlW8nFrFcfdgijuGREHy9VR7Uew3XyTsL7yty7ERHjElUXuRQogrqj8OgwLiGhM+V5ERZzknWkCQnZ/539pZw1cZ3R1X+/6DeK0ABcNnCh+rCR1qM5eFM0Q3i5tqfx+c6NBEyZXkB7gfAZ4e6OgKNRA2WRylKpF1sV2AcNfyIRKtk8A7ukwsfjJmNsLPksBjcmeUJdY1pTCTYRtcqBUfHG3IU9pMwpV+edZQxwPbB+q87RDN4BkCDb3CtvP07ac4yUwEK+LXio6M93OaguA/Od+REyuLpCNMV2KIqLJKjl9N7CbI5+HLmUVGKn54pTXucoxC+850S3LUt3RACTIKOZaUKkTD87pAqkh9UhHTLmKnZunOCsfO58ed7ZL50velsznb+jlicm7YUGMK6aK+kuyxGraNZFFUIkRxJSDbRPeGSJVlg8AE4WWPm8hN9dHqkE8Z0EzAwLpfLGhTlrC2F/hntEwC4NM150ZoE8sSikCQiSShd2R6MtKQ/TIQUzxq95/SLIBiivF2SGe/uJK2SfDOEYiz7Hf9J2YMJOJdV3DfcpYBzZ6spsXrQZUQHonxkvSaDAphppLkiTo9wSfyI/bjg80TKLiLZfQhLHhPMT4wGKfZ9IIQrNHhG8qHikKGy7BhnR5l3KkGQLn+Td6DiswObYg85nJLE7p4cNC1ej7oNb4+fR7KoAFivyQBqoUOBfpDqlDh9LtvgFyyyJW2T2ddjERRssYUvrmABYtVLsmHTt6yRIK7OkAy8Yvxya3NOdKSDp9pJc+auuRvJBBrNAMpO2+X22YmKlCrIuJHZ2YO9Cvw1J1ln6gxk3gSuCfPaIQBgpFMDbEXvpwD3/z3Dbck2RKsXKlogJ77YWHQsmmtZVCwKFlnNA2tee60OWwBbwUJEKpRgQuGvLwWA0xdR+aEP30cksfxj/s2sk2l7r7+NshEYehUwxFKg7wP39fFz3ACm9BemDWvbeK7QeSDSe3G+SvXXNcAtb7ME2AlygNMtRl/pvZXlqQxXJFm1Tbw+z0WpFqtDvAHx+iVZdkOmu+Yx+OwbwOn+bEsgszigJLLx/MeG/3o/rmGiB5yyZfhF7T3jnJw/bpyTAwDZMsK8LopnNvjLJ06ALkqp3WdOrYJp4mvH7j955pxM0pS7/wybRgEzAAA=;fontSize=11;fontStyle=1" vertex="1" parent="1">
          <mxGeometry x="-2" y="-5.13" width="69.13" height="69.13" as="geometry" />
        </mxCell>
        <mxCell id="JKClMGUKZ1o02f39TSCT-8" value="" style="shape=image;verticalLabelPosition=bottom;labelBackgroundColor=default;verticalAlign=top;aspect=fixed;imageAspect=0;image=data:image/png,iVBORw0KGgoAAAANSUhEUgAAAJUAAAB6CAYAAAC2sBEYAAAKs2lDQ1BJQ0MgUHJvZmlsZQAASImVlwdUE1kXgN9MekgIkNBb6E2QTgApoYcuHUQlJAFCCSEQVOzK4gquKCLSxBVdFVBwVYqsFVGsKChiQRdkUVDXjQUbKv8Ah+Duf/7/P/+d88775s5999435905dwAg09hCYTosB0CGIEcU5utBj4mNo+NGAQRwgAhUAZ3NyRYyQ0MDASKz89/l/V3EGpHb5lO+/v35fxV5Li+bAwAUinAiN5uTgfAJZEg4QlEOAKj9iF5vWY5wii8jTBMhCSI8MMXJMyyZ4sRpRqOnbSLCPBFWAQBPYrNFyQCQ9BE9PZeTjPgheSFsKeDyBQgj98A1IyOTizASFxgjNkKEp/wzEr/zk/w3n4lSn2x2spRn9jIteC9+tjCdveL/fB3/WzLSxbMxDJFBShH5hSEzkhd0Ly0zQMqCxOCQWeZzp+2nOUXsFznLnGzPuFnmsr0CpGvTgwNnOYnvw5L6yWFFzDIv2zt8lkWZYdJYSSJP5iyzRXNxxWmRUn0KjyX1n5cSET3Lufyo4FnOTgsPmLPxlOpF4jBp/jyBr8dcXB/p3jOyv9svnyVdm5MS4SfdO3suf56AOeczO0aaG5fn5T1nEym1F+Z4SGMJ00Ol9rx0X6k+OzdcujYHOZBza0Ol7zCV7R86y8ALeINA5KKDSGANbJFhBfyAdw5v+dQZBZ6ZwhUifnJKDp2JVBmPzhJwLObRrS2tbQGYqtmZI/E2bLoWIaUzc7pMpIYY75E62T6nSywFoLUACf1gTqdfAwAlH4CWDo5YlDujmyongEG+BBRAQ74GWkAPGANzJDd74AzckYz9QQiIALFgCeCAFJABRGAZWAXWgwJQBLaBnaAS7AH7wCFwBBwDreAUOA8ugWvgFugDD8EgGAEvgAS8BxMQBOEgMkSFVCFtyAAyg6whBuQKeUOBUBgUCyVAyZAAEkOroI1QEVQCVUJ7oTroV+gkdB66AvVA96EhaAx6A32GUTAJpsGasCE8H2bATDgAjoAXw8lwFpwH58Nb4XK4Fj4Mt8Dn4WtwHzwIv4DHUQAlg1JC6aDMUQyUJyoEFYdKQolQa1CFqDJULaoR1Y7qQt1GDaJeoj6hsWgqmo42Rzuj/dCRaA46C70GvQVdiT6EbkF3om+jh9AS9DcMGaOBMcM4YViYGEwyZhmmAFOGOYBpxlzE9GFGMO+xWKwS1gjrgPXDxmJTsSuxW7C7sU3Yc9ge7DB2HIfDqeLMcC64EBwbl4MrwFXgDuPO4npxI7iPeBm8Nt4a74OPwwvwG/Bl+Hr8GXwv/hl+giBHMCA4EUIIXMIKQjFhP6GdcJMwQpggyhONiC7ECGIqcT2xnNhIvEgcIL6VkZHRlXGUWSjDl1knUy5zVOayzJDMJ5ICyZTkSYoniUlbSQdJ50j3SW/JZLIh2Z0cR84hbyXXkS+QH5M/ylJlLWRZslzZtbJVsi2yvbKvKASKAYVJWULJo5RRjlNuUl7KEeQM5Tzl2HJr5KrkTsr1y43LU+Wt5EPkM+S3yNfLX5EfVcApGCp4K3AV8hX2KVxQGKaiqHpUTyqHupG6n3qROkLD0oxoLFoqrYh2hNZNkygqKNoqRikuV6xSPK04qIRSMlRiKaUrFSsdU7qr9FlZU5mpzFPerNyo3Kv8QUVdxV2Fp1Ko0qTSp/JZla7qrZqmul21VfWRGlrNVG2h2jK1GrWLai/VaerO6hz1QvVj6g80YA1TjTCNlRr7NK5rjGtqafpqCjUrNC9ovtRS0nLXStUq1TqjNaZN1XbV5muXap/Vfk5XpDPp6fRyeiddoqOh46cj1tmr060zoWukG6m7QbdJ95EeUY+hl6RXqtehJ9HX1g/SX6XfoP/AgGDAMEgx2GXQZfDB0Mgw2nCTYavhqJGKEcsoz6jBaMCYbOxmnGVca3zHBGvCMEkz2W1yyxQ2tTNNMa0yvWkGm9mb8c12m/XMw8xznCeYVzuv35xkzjTPNW8wH7JQsgi02GDRavFqvv78uPnb53fN/2ZpZ5luud/yoZWClb/VBqt2qzfWptYc6yrrOzZkGx+btTZtNq9tzWx5tjW29+yodkF2m+w67L7aO9iL7Bvtxxz0HRIcqh36GTRGKGML47IjxtHDca3jKcdPTvZOOU7HnP5yNndOc653Hl1gtIC3YP+CYRddF7bLXpdBV7prguvProNuOm5st1q3J+567lz3A+7PmCbMVOZh5isPSw+RR7PHB08nz9We57xQXr5ehV7d3grekd6V3o99dH2SfRp8JL52vit9z/lh/AL8tvv1szRZHFYdS+Lv4L/avzOAFBAeUBnwJNA0UBTYHgQH+QftCBoINggWBLeGgBBWyI6QR6FGoVmhvy3ELgxdWLXwaZhV2KqwrnBq+NLw+vD3ER4RxREPI40jxZEdUZSo+Ki6qA/RXtEl0YMx82NWx1yLVYvlx7bF4eKi4g7EjS/yXrRz0Ui8XXxB/N3FRouXL76yRG1J+pLTSylL2UuPJ2ASohPqE76wQ9i17PFEVmJ1ooTjydnFecF155Zyx3guvBLesySXpJKk0WSX5B3JYyluKWUpL/me/Er+61S/1D2pH9JC0g6mTaZHpzdl4DMSMk4KFARpgs5MrczlmT1CM2GBcDDLKWtnlkQUIDqQDWUvzm7LoSHN0XWxsfgH8VCua25V7sdlUcuOL5dfLlh+fYXpis0rnuX55P2yEr2Ss7Jjlc6q9auGVjNX710DrUlc07FWb23+2pF1vusOrSeuT1t/Y4PlhpIN7zZGb2zP18xflz/8g+8PDQWyBaKC/k3Om/b8iP6R/2P3ZpvNFZu/FXILrxZZFpUVfdnC2XL1J6ufyn+a3Jq0tbvYvrhmG3abYNvd7W7bD5XIl+SVDO8I2tFSSi8tLH23c+nOK2W2ZXt2EXeJdw2WB5a3VehXbKv4UplS2VflUdVUrVG9ufrDbu7u3hr3msY9mnuK9nz+mf/zvb2+e1tqDWvL9mH35e57uj9qf9cvjF/qDqgdKDrw9aDg4OChsEOddQ51dfUa9cUNcIO4Yexw/OFbR7yOtDWaN+5tUmoqOgqOio8+/zXh17vHAo51HGccbzxhcKK6mdpc2AK1rGiRtKa0DrbFtvWc9D/Z0e7c3vybxW8HT+mcqjqteLr4DPFM/pnJs3lnx88Jz708n3x+uGNpx8MLMRfudC7s7L4YcPHyJZ9LF7qYXWcvu1w+dcXpysmrjKut1+yvtVy3u958w+5Gc7d9d8tNh5tttxxvtfcs6DnT69Z7/rbX7Ut3WHeu9QX39dyNvHuvP75/8B733uj99PuvH+Q+mHi4bgAzUPhI7lHZY43Htb+b/N40aD94eshr6PqT8CcPhznDL/7I/uPLSP5T8tOyZ9rP6katR0+N+Yzder7o+cgL4YuJlwV/yv9Z/cr41Ym/3P+6LomRjLwWvZ58s+Wt6tuD72zfdYyHjj9+n/F+4kPhR9WPhz4xPnV9jv78bGLZF9yX8q8mX9u/BXwbmMyYnBSyRezpVgCFDDgpCYA3BwEgxwJAvQUAcdFMTz0t0Mx/wDSB/8Qzffe02AOwrx+AiJUABN4AoKISaWkR/5R4AEIpiN4ZwDY20jHb/0736lMidxj5I3liZ+MQPVCTD/4pM338d3n/cwZTXm3BP+d/AV64COUmwKSdAAAAVmVYSWZNTQAqAAAACAABh2kABAAAAAEAAAAaAAAAAAADkoYABwAAABIAAABEoAIABAAAAAEAAACVoAMABAAAAAEAAAB6AAAAAEFTQ0lJAAAAU2NyZWVuc2hvdIhMuXcAAAHWaVRYdFhNTDpjb20uYWRvYmUueG1wAAAAAAA8eDp4bXBtZXRhIHhtbG5zOng9ImFkb2JlOm5zOm1ldGEvIiB4OnhtcHRrPSJYTVAgQ29yZSA2LjAuMCI+CiAgIDxyZGY6UkRGIHhtbG5zOnJkZj0iaHR0cDovL3d3dy53My5vcmcvMTk5OS8wMi8yMi1yZGYtc3ludGF4LW5zIyI+CiAgICAgIDxyZGY6RGVzY3JpcHRpb24gcmRmOmFib3V0PSIiCiAgICAgICAgICAgIHhtbG5zOmV4aWY9Imh0dHA6Ly9ucy5hZG9iZS5jb20vZXhpZi8xLjAvIj4KICAgICAgICAgPGV4aWY6UGl4ZWxZRGltZW5zaW9uPjEyMjwvZXhpZjpQaXhlbFlEaW1lbnNpb24+CiAgICAgICAgIDxleGlmOlBpeGVsWERpbWVuc2lvbj4xNDk8L2V4aWY6UGl4ZWxYRGltZW5zaW9uPgogICAgICAgICA8ZXhpZjpVc2VyQ29tbWVudD5TY3JlZW5zaG90PC9leGlmOlVzZXJDb21tZW50PgogICAgICA8L3JkZjpEZXNjcmlwdGlvbj4KICAgPC9yZGY6UkRGPgo8L3g6eG1wbWV0YT4KTRvTuAAAOohJREFUeAHtnQec1MeV53+dZronBxjCkHMGEYWykFDCsoIRVrKC057Xsr1ne9dpz7d3e3ve+3jt3fVKsiUrW8HKQlYGhARCApGFyDkNYXIOPTN931f/7pmBARQYCWx3wX/+uf5Vr3713qv3XlX7YiQlU5ICXUgBfxfmlcwqSQFHgSSokkDocgokQdXlJE1mmARVEgNdToEkqLqcpMkMk6BKYqDLKZAEVZeTNJlhElRJDHQ5BZKg6nKSJjNMgiqJgS6nQBJUXU7SZIZJUCUx0OUUSIKqy0mazDAJqiQGupwCSVB1OUmTGSZBlcRAl1MgCaouJ2kywySokhjocgokQdXlJE1mmARVEgNdToEkqLqcpMkMk6BKYqDLKZAEVZeTNJlhElRJDHQ5BZKg6nKSJjNMgiqJgS6nQBJUXU7SZIZJUCUx0OUUSIKqy0mazDAJqiQGupwCSVB1OUmTGSZBlcRAl1MgCaouJ2kyw88IVLY4X3KBvs8UXscg8TEufaZFOF7mwePd+PTX41WL+ST+H5m8ezG1Y9k9Ypddir/r8zlI+sjArnjZxO+55+xKp8zdnb/8P0aHVq/6MegYp3NH6tixpY4UShwn7nlPHNn17Z5RvJ26ibcST/Ndl9qfSNzpuG9v3Y5XT+bYSmbftj2b7SxFm6JqrqvlXrN3zlKjjU0xNdTHCWTljLVwv1FNLQ2KqsVlY5ctu1b+xbhqW3uuHP7VJaNGU3yzY6kZOiaav7HFo28TtxpajGYSu7bUzO0EJKC27GnbEset7q69EH8p0YBeTvGn2y5y3jn5unwhWVuX1q1NC+b9XlXdXwNTa4MUtALZFdt3wHSM+7FGLgW4nsbdFLXwSCt//H4/m1UyGidICsf23F9ZcqSz5jdQkWIh/iBsPDK7q3YYNVJx0Mq+sSGmov37dfDQIR0+XKyGRjomkiAjM1M5ebnKzEzXiBGDlUZW1hp1zY3KDAbJ1c7iGXPkJfu2pWPd8+7Y364Xf1YOqxA722L8C9IPfH5AY1usStGSHXCpatU11qmRSvgCMaVGIkpLz1VKajeFwv3k42VfCwIQ9g4N2lICkm0X/goOrM6WHBlM5NHhjLLehRbVNzUrkJLqmtqavb5e2rTloFavXaPd+/apuq5G0ZYW+VNC0DhL/mBETU0VSImNijbUKjMtRYW9uuvMaZM0afxQnqUj0yb2JWs/70N8PeZ15I7twc1Oqcs5VStcqsVnBfG7OhugHLzqDqt650bt271OtU0HlZpBb8lJZ09BU6JqgC/X1weobES5OUOUkz1AObkDpFA2rwdd1Vp8TfJTIx9cyueq3Kk+f5EXjgRVhyr6PBWhEZYU8YdUCQPbtLlIr7w8T1XVdcqFEw0dPlwFPXsoJRKmSXyqN04F/ZoBWbSpQS3NUZUePqiifbtVzH5Qv0JddflM9emVpyDcy2DUDizv2x36uIfrDkWywy4HlUHItB77cArF8dlZZbHm3X+3ti9/Wz16ZWjw9OEaOHaQMnvmU9E6VdXvVlpWWA0NIdXUNFPBQ6osD2jcmC8qv89UQJXhWLlxe+sllnfHinH6F52OABU1bWpoVkrYEzLwftdtK2qa9Myzr2jnjj0aMmSQpk2ZrIH9eyoMU4uidezcXqT9xrVqKlVZXY5qwouoGjFfEDHYXfndClTf0KQtm7aoqqxK48eO1LVXTnH6ln2p2R2hpzU0KhJOg/5eC3Rsh8Rxl4PKRJ5V1Bh0A2w3HAloxVOPaNHzj6lfOiBLaVGPyeP0we7tqqmt0dnnj9ewcZmAilrGUtUcbYFoNSo+FNW2rTGNHjtLg8fOhACp5Ojlbb0nUQF38S/4jwHqaFCZrhQwcsXpsGz9Vr340muKRLJ01ZVf1NCBuWpGl6qtqtbaVav13jtLtHf3Hu3auVOtsaiizXXyhdBTg9DUn6LsvB4q6NFHo0aPU+/e/RUMpmvjhg3q1Stb199wudJBlQ2dwqLTR6sUCWVAf0Plke2QaJMuB5V9KEalG+tRqlvq0ZViuvOndygrVqn8YJ0y8vL08PzlemvFLk2dPAEFcoN+8cvblZHVoHBqSOlpqUpL8aulJaRdexq0aXu1zppxgwoHTFJKoECN5M3tvzpQJYBl9I0ywmuF1fhA1tuLV2n+wkWadtZZumTmVEQP9K+q1bpV7+uJJ57Qls1bEHm0Q2qqwmkRBYJ+tzUh9hoZkbc0I9xa/XTmVgUCKeo/cKgmT5+h/O69dPjQAXSwVN140xccwQP+KEOoELqyjRE7g8rKZqnrFXUq5eN74fQQFgKf5r/6rFZv3aG8lBpNGJQBu63XB1t3KZTu1/otWylcEwp7oxvvBUFLWiSkaG2tUsMBdesZUnZVs+a++oBmfzlLvbtnIf6MY1mfSJA50T+sOn8JqXO9rIYmARIpFAgywJFee/0drVnzoW664UYNGlSgAA9t27hdf3rqUS1/b7GqqqoQa92UlhEGHGnKyEYisPcHAu5ecXGxKiuqAKIfZT2i+rp67d6x0Y0UJ005i04/RQfRsxa8uUSXzzybMgTayuFZEK1Enenf9aCKfyMKbR5/4Tn99u7/VCgaVf/8FJ07qK/GjRusmxme/PI/F6iaHvUPP56qcy8eh/mgVM3NaJpNLQr50+mJwM1fo4yCkAJl1Xrp9ad0w3X94WI9qYjXSxJEdhVLtEXiYue6Ju6cxnurRHtFTCO1M6ut2fSCKT5oxDngefjhpyFVs26/9Ssa0CsdTiMte/NdPXj/77V+84foSTnqUdhPvQsLNWH8BA0fMdxtZkqor69TKJSiHTu2a9my9zXvjXmOo+Xm5tBp/YrWlGr1O2+ormiHZlx6sbZvXastw3ppTP9B6G+M5K2UzmzEAWf2TsfU5eLPiABX1YoPPtDf//zvFUoNKiuUpuxQpb42Z4zGjOymnO499Mb8BdhIMjV56ihMCJVqjlUrij4liNdU1eSUzwN1lSoqr9PuoiZt3VyrOdd8X1PGXQyRQ1TFG94e0VMS7fEXACirVwJUVi3jVIxTVIkp75knX4LDVOjGG7/MSBnOXtesha+/qofuuUd79+5RXu8C9e7fT+eec67OPvscFPch8ofiRCGjluYWRCD041ILNK+tq9Mf//iEHn7oIWXAyXwoba3RJoX48JSzp2vkWVNVXlOla668SvnZuQ7kboBPeSx5oGonetdzKj5SDye6/77fq66mTiP7Dme4i0mAUcPBkhr1rYkoNX2vLr5wKCIuQ/W1Jaqrr2KI20hvi9ET2ZDvTZSxmndq2Fogb0rEr/kLXtToYROUEe7BV45RdDNutfV0q2Ri4/DPOEVt5AMGqgHUs8/NVW19jf72b28WGoIqiusA2RN67rmnne7Uf8RQ9Rs4QLOvu07Tzz7T1bq+pkHBlgAdHFjCVAIpjPrI07iNHWcFM/XNb34TQKXrgfvvw9TQqKyMdFWVl2vZyhUSBtI+A/qpaM9edRsDN3N0PT5Bj9Eyx3/4494pLy/Vju3b1IthajiYoqDZllLStGHLPoxsYZWWlCg7Q8rKynb6V1NTPYo5oxKoF22louGIGrCp1HJeR49p9QWU2y1DB3bu0qIlr2jWRTdQFGO5HYtv/dmob3vjYu09h5M/y2Q1sNpg4FZ1fYteeuV1ahXTbbfeBHeg88LRH33oPj3z9FPQSOo3dJBGjh6l22+5Vfn5mGviKYJOdXTCkoAu5VNDLZ0WMWq61o033aja2mo9+ugfGB2GFM7MUGVNjZYueVdXFxTo4L4ijRk+Eq5nPPP4qWOrHP+pT3DHCHH4YJFaGhvkw+BWXVYJIRBrLVXauW2zRgzthxsA3SA7qOqKOnSnRlgx+gK81jaGeKpFcShtqFdxTTXcqkmN9LJm/IJwXi159yWNGj5aBd2GKB2O1QxzCjp3UKIJrBns+Eg5/wmqcJo8anXAbVKPwRcr5Lvvvqvy8grd8pUbGdLHoGuxHn/wEb32yquM6lLRn3pr2vnn6tbbb1MYQ6jfyGCM25KXVfve7sVTOGIDn1THtYxzff0b39S7770HN6xTPR3apERtZZU+XLVW3XLysB9WKK97N0CdyDSRU/v+M6C8lRirOgWqr67BkFau8pJSlQGu/oPGaMuOUkYUUe3dV609+8tUYw5lFPOYPw10MGJkyFsN+63HC9pET2rFQOfHphIIoQekNLDVav5bz3GtjgrXOkB5X7RKWXX+/AEVwybTFG2kw0kZkRRt375dH6CjzpkzR+BHVaUHdc+dv9aLLz6j8upSDcJ3d+mVV+grt92iVOMiRoLjt7kRqj3Fn/XRMX34WM1MMfu6OQ6PadlZjOLT0bFiKj9UrMNFB1TCiPGjsu5iUHnNm5GBNSMUcMBqwDxQzdA2N7c7I7wIRGhVCcpBJe6CZpTFKMPbSsbHlViJKzEtVMLhKuBS1U1NigIqs/oGySuYEkOhb1Yo0qAde1Zq2ap5boCLwHQiwvsyoHRm14+qdjtNT8VReydoP+pcDrsnlZRX6TVGZ9deOxt1IYgOGtWTDz+oxQtepyNG1WdIX5078wJde/11ysT/l0iJnL1cElfj+ziQ2sDXdu69NeOiGYqkpSuvgDbjlRA6cUVxiUoOHVYZDMIR/KgsO552ufizzLOzc1D6MpxJvxm9yEYqgYD5nXJUHmzE11Stvn3T1B0LegkAysZ+EggBmGg9jvdWNcSCaoCBtRioYLP2bisisoVn/KlY5HOy9NaSudhg+mrswBlU3EaDibp+lBrZsfqf/3Gisb3S2vjOksmpxB2uoUOmhMJOQ1y0ZKmmTJys4f0R9Tw194Xn9drLL6sWXacPo7pLvzBLN8y+wXWtOribZZWKucAlaGe5nkBSec+5v4nv+7DMR9SzRy+V1FYqF90sVlLJQKtJZXCr4gMHOtDaXkwgsj2rLgaVR6JCbCM9e/VSZkaWvv3tb+uuu+/Unj27VV5RruZUwMEoZMueah2qbcC8kCpfaTlumpgycwKKZKQCItgwvSOIhhqKKwfhlLD8WYAHQ119HbK+sk4LFj/nRpCFPcco5AOY7l8XM992Wp30UaLZEhm5BneAMn7AZvFkDgGoAqTVG3aoCs509awpasAn+sarr+rFp5+Ee1Wqb7+BmvWFq3XzTbfwJB0S0R90CjRt4GXMzg7s1GsXd3LMP+0lS3TJgeS/Z8V7uHRaFESahMOpqi4tU2M1MXFtiaePslHZrS4GlWXpVeDCC2do9+7dGjJ0iP7jP/5DBw8eVGlpKRWMav/BHbr73l+rsi6qupJa5fWiZ7WiM8GZfDaMaWmip+J5p8cFUepjEN6U/cSWgg+xoJARYu0BzV/0mC6Zcb36dB/Nc4R0tIaU6g+3kfGjyGkl/ryT19Qepbz2TzSqd9YcrcOkEiZ05UOdOeVMfKHSmhXL9f6SxQyCDtL58jRq/ERdfc1sXCzWsNTS+++q4oXmQbcTVj5RCnsl8f1462FnTIsQ04Zem4nEiZmZp6oGUw832oyex6faZwAqCkYlr776apWUFGN3agYYAXXv3l09evRw98aMHoletFmPPHGvCgflYhdpVdBsVGxRCh7BVROOEBqDqyeNWJ/MrAg1MFCZmAB/cCvzV9UDShsEzFv0gGace72GF1ygqAvyc4+1/0nQ74REbn/88zryimW8IW4CQexZs8awt+3YsRM/aEQF3fOxaG/Worff0qrVa1HgWzVx4njdcNPNxJ7RieAkqZht3Huu4F4lDVCJaneuTzuIvHvt58bdfKgbprbkosY0EK3rj7SqDN2uDh9iizl243Q83gjwMwGVASMD45ltlpyRDRZqqRVWXUdg2HWzr9eqdctUXLEbCy+QsQ1fYQxqmKKfgRjMQ3fKSEPsmVOL2CF721WfZ8ymZdb6zMyIKst8en8NVuZBFRo/5AIEAbYHvIltGOpI3baLVppTmbyCmGhqdaNWT0hZUYOMgLds3YbZpIdqKsu1bu0qbd+2Bct3vbJyu2n6Oedp8NARTvS0Yv1OxPwnqtnapkQdHQl1rPo6ilIKK0ecx6FBVFZW8v0CDJ67cfSHVcYIMAqD8Lr1sfJpv/aZKCCho4xjHRGN5FfAF1JeZg9deMFMnJclTkdqBVBIQMKGg3A3A5BJRCAI2mwz4rmEf8CHnmXW4QAmCD8NkIUuVlAY077ihXp50b+rrPFDmgkR0tpR/nuv21+PjO3nn9eRwci2JkwmHgC8cMMmrkYpsYGjAS5stS8qOkhjphAHtUUb1q0ldGWXuz9wyDBd9aU52O9QHcxPit5peVm+1pgN0C5RPw+mpj6cONU21PGMfd3KgPmgvEY+aDtowAD1L+yL5Z7IOKJBA6gjmTk5ZBYXucfJ9jMB1XG+1XbZb8Y5VMuh9Lbevfo4JymdAE5FcRj5Oa6F+HbX4lzMHKZ2bjHrrabQQno/bDqATyuY0oq5oUnZ3ZsJralBz3pUm/a/iW5lvA2LPE+7Deqa7edUJ+sMiWJUI86sEaieDlQ3aDNBdvc98riqGN1VV1XogzWrGMofxDwTJZIzj6F+hl5+9Q06Y6mzbFfzor1fB0lsS0PVSOTt1dODlnd87L/p4XQ8GYys4wOdFatXEXWbg/ejt3p1L0DFbXb6lUX1Dh429NiZdLj6mYi/Dvkf89DjZDENGzZC+UQdFlfuRJxhNUe3wmbKhqc8SowPDsAonMiBh5hpE6M+XPS+ILFacCufs0kxImS06IKXEYt+bFm5BdL6bfOdotojd4yyIv0Aq5He69Ed9+7iZ/Qn0bjGRbxkVyg1RsaaxhZlpDLaxbBb3hjTwkWLtWLlKsqJCMJtFYHbr1q5XKUH9qsCt1eM8N98QGXvz537kl58+VUNpYEnTZqkS2dMVxraRT3Z0+94IlFPo1E7qBJHifIYV7ISITvgkN5kitKaCm3dukVjR41FSU/Xno2bXbBfEzbEvn2GYMAeCIoTOfDyMdIpAVWiHJEAimhBTx0o3QF3Mmcy4zu2ZgDWYiCLb37Yi4lCF4yPbuYgBLisbjE8oz7PkYXo5BwlNxhpUg4miG173kNs0nh9LA4ri8/CBRGjMDeSEdSgeGICJcr6cffWSLa1J+ORXvNZua257X4qgDLutPDdlXoLQOV0y9cFMy7UhLFjtWzRQr0573U3i6iitMQByob1EYb1pjiPGDoMT4MPl0mVnnzyaW3cuEWXX36FBg7wjJWJNjdh5n3Nvmj19OpqdfbgxKV4CgY8u9jqNRtoh1YX2VCBj/YAdimLUKhhCDpsxAgGUJ65o2N+iTwS+1MAqgTZjdhiRNhL5UsqFQxn4ttLVxO9NoqnoRRTA4ELCvbAGQpQjDMFMC+YWcTXCLDgTmZucKNpm6VjAo7nTGfzQyDzKYYzG7W3eAlBaukamHOOI3EjTek1sRHcxFD7JAqvAaxUnx5oVjsTzl4zGmwRHVzxIJzmRmsUUIeILnj+xReUykDkmmuv0Yhh/d1XD5VU4CPd6sBTWV2JV844NyNo3jFty8wqOdRn/KTJcOigPty4SXv27tOd//VbzZp1pc4/7wylMxi06FDj6jZRxAM1tbIgf7i5Z1oyyFkbeHVNYb9pT7mWLl2vC8+ZRihxvrZu3KhNlGVfebF6DeqvWVdfpSARpPTktvfir3Penk4BqLyPG5mtSgMHDAIcqSivLVjgm+kJKcxVQwS04kjFbBDBLWNgChGgFjQbFv/dPEBGhKZaGfdyzehGh+hZACuGboaK4PKIwdY3bHlb3af2BEKFxHYTHuG+bKT2CGol8o7sr+XXVcnjB/aXwBP31RbE8Lq1W/Xq6/OJvx+ty644T0wsUhH61PwF87Ro4ZuqxhRDoBvO8qiDvIXu5ubkunCUDxBHptsMGjxYk6dNZz+E6Vjb9ebCt/Xin15CyS7Vl665GN0qqFpi/cNwRI9zGVfuAAZXRQOW1wkOE/Hw7LNzNWzocE2cMF7lpdV6l+iEYjhlMx15wpRJGsg3nVLaNrrk5aOz5NIpAZURyYOUXwMGDEYUpAEk8xHWYZsJo0e1Iv7oabF6pVXWOmU8FfNBKjNIQsguiz4MAKZWNmgHIkBXHFQOKjY/zaZ1tdL/qHRTS5GWrp6rs864De89U75o4CNSO7YssyNufdITe9szntibHn+KtiLOGdWa8Fv87nKtW7dRV131RZ0xspAJBdLK9dv05FOPa8Wq5YowN8+4hukwDUTCBm1kUV2vQAZvo2/t2YmqwP7lP81lYmgj5oXzNX7cKLh8HsB6S+8tXapu+Vm6bMZU6JXG4IdoEfNQuNIYN+fA0d/Dg50ZZ3380SeUn5um886dYoyUqIglen/5+wQClOEd6akbbryR65TBEGpAOkE6BaCyWplUt4oyUoEbhYJhQFXjJktELUAPrtWKjuVDX6olwMy4URRQNSH2rOcF4FIhFFwDWDOjQRONVlPTqTwuhLbCJb8JD9i9zXyuqNiP7WeZRg29kGcINItzPXvDStRVyXEDU7bJ0FwYxg0tSNHA8/yf5mnvniIiNm9S7zxCfxDvr7zymh75wwPcbdWAPr1VW12l8uJS6krkJTpUiJGigs2Ao1VZmVnKwXZXWlrsJoYufHOeSnF9ffHaORoxsied72KU+Fq98ebbGjhkkPr1zXdlMAFv/4wUrmDxnUc1APXHV6B/o669+goGAxFt2bBZb7zxurZs2exsjbfccouGMX+wmZBeqvKRyTXDRz7V1Q/QYTxdJqhh/UeqZ0EhnIlREWHHPkwKBrIQIvFA0WFGPlXcI8QY0VhHj60kXj3KlJpWrrUQeiwU+xj7GOetXG/BfhMlMrKprgp/WTUboGwOw5J92l+0Qhu3vAbYKjylHvlpI0qnIpCV7e3co7ztP11yYOJ1a0iCLZhKLj322AvOHnf77beqB4Aqq47pEeKhfvtfv1FBPpM+Bw2QKeVjRo7S9777XXxtuJoMlNDKFGfLrYxIzIsvmal/+9UvAVg64UO7GKlt1MZN61zP6NWnmyZNm8pAJUuPPz0XOx22P6Zg2YQF0x9RIJjbF0WvMw4KB7dyPfGy9u/doxu+PFsDe3fH2V+sRx95WCuWL8NVE9Z5550nc7nF4JhBuOjHSacGVEYiG/67pg5oYL/BdFS/A445iyvKqyFoCId0DtOESpn5UatGwmOMgzndC6BE61GAAVMrin1r2x4OAbhQqxBznpLsY55bK6LUj3hsbi3G77haJVXrYfkHKUU9140jcugwxItOjLqTj0O/Ts8YZ7IWtoa0ZI6EZ556mfL4NedLs5TF4Km0rEH33/s7vYSifs5Z05jJElYFQXff/m9/o5/++Ee6aMaFLnJz3969SkkxFwyKN4Y6i84sLj6s0aNG6L7779WECWOZiVyuDevXcr3aia1RY8dgbR9FUGOK3lm2RrWEGBmYbLhgJUsnKM+LGJF+f9+j2r1rB7Nx5jhglxLz9vt7fudcQkaQsePG6oc//AEuNoLyTOx14HSuUPbHrh2VAv9EOuraZ3va1oAU2yl8hMbUlmrJe4udGLNLrfQKI6ZFKRQxpLXnXKWcPAcsiDzbgvTkADIvZlZks7g7VkM9aUDjEgYY0xhimBVsEmWQ8JlWhpT79u8g9Ka3UoLGGRldmg7Gdy0+ySw9JpZNeH6a5H0REFCc6jrphefnI7IjcIJLnWQuZ5j+m3//tVavXKFJ+PCK9u9WXn62/s///ieNGjkODkrsGJ83XWYtgXlZGQwsqF8U/SmSadOsMrTs/WW65PJLNW36mdqybZt27tqpXn36aGDfnsoK+1RRH3bT29dtWKNpZ04hmNbrvhQJPSyGmaBW9/zuQY5rddttN2hAYb6LeXvkoYdQ1p81UjiTwk9+8hPo1Be7ILSwi4m+ZseJjcOj06ej3NG5fIpzr0zW9AH17zvQ9eQmuFF9PTHTsOcK5qM1cG49vpJwi2LCYyrjHKuZ3tdU34Boq1cz4baMn00bR3WiP8LeU4wHArIgOlkqYGI8qZSWOvkbq5hlW6uGqh1avPBJnoIj+nGSUBjwSVksGiJBuU9RqfgrMEtnhJy3YDG5teqaq893+m1VRZl+/W//ysyg9Zp4xljt2rGN6VNj9fN//Kmyc7Lh1FXkgNkAkXXppZeoe0E3RBRAx3PQhKjehpLejVjxUsTgnXfe6Trdd75zh9LhYJs3riemn6hQSNGP2KvuOKJT8NmZD7GGPKyb1OGS+JBp7b///f2Iz0x95WYA1asbkbiH9du7fqM/Pv6Y49o9e/bUHXfcgR7FYh02bc4aK6EW2PFHpM+XU8XbyzUihfMW24hB0Ay9t+wdiHUQnx7yH+5jvdtieIzlHyDco45pRCnYSDAWYIdBYYfQKWzo684dYxanVDIOwZ1izYyWsCmE4FAhuF4q+xTsNqlMrgiysEAYEVdy8BAtHyS2ewhEy3Rk8kBlh6aNfgzqubeO/AMDpRzSwiUrHRea/aWrXAhw0YFi/esv/oX5dZt0xhlnaM/unbr2GuKhbrvVxSsZlgPYnazxWmjI3LwC6l3kwodC6DJNtqAG9YjgbD9j4iTCYtZq85YtGjlqJFELk+D0S1XYp5965mUpwPikEUW/uLjIicvJE8apjIiOuS/N08tMnpg6aaKun3M1i6Ckac++Pbrnt3frncWLwG5Aebm5+ulPf6qJkyeh+IdcjFbMucWs8bwG7OjLPbL23tnnCyr3zXjhnGiyhkPU+VK0btMarflgBfYo7CqIAANWAPFnYi8Foh6mN4XRPaC4UtBeA4DF5qf5IDZSDXEIZyI3v92jt/shhA8F1647YHGPcECebaWRCa1hILBt60716VGoSJbNPOFtY1dtgPr0oNq8q0jLV6zUrCsuV/fcsOOwv/vtnQ5QkyaeofUfMqv4phuxgl/mrOVWVy/ZNxHbhLK0EFM2fPgIvfXW2zR0HrpTNZMR6lVB9EA6InEsE0Q3bd6s19+YR8djARNoYB2wLyNIJ+bg+BbGXVFWodLiSgYKf9TWbdt15axZTI87VxGQv379Ot1153/p3cXvuIFBAeFJ3/3e9zRt2jQ6t6fLmcz2oNShhMYV2lLHY+/iKQCVfdiK6RHQylcbxRaF3F6y9J14RII5iz1QGaDMV5gCEPbt3wd3AnQMWywaxu/MU4wj2dux2wxoaOo+Axc9z28DAjbTvy0IkFydsm9FCGJxLmIllP69hsIl4Fa4jTxgdSaUR64T/7WR4+GSMr2xYKEuungmHv48J3Yee/wJzX/jDZ191pn6EEDZHLuLLr7Y2ZsCuJPcEC9OD6NLU0ODkzZZWTkYPbO1fPkKDRwwUPv373cFMPEXowOMHDWKx33MBXwO4FZpCgbK7Nx8bF2eU74Gu9/enXs177X5Gj50qL7AEkEXnTcZPdSnhW8u0O/gUNsBmq2z0KtHT/3Dj/5BY8aMYbKD54qxMKVmsyJDDsedjCx23IkMR1455aAyogQASj9Y96q1K7V9x3bam9AWwGSWc5tJG2EeoAX61eL3OsiMjgBDZRtNOWXcjgmbMa7EkMe0fNoIV4yBimccqLgfYHTpbFM8b4uHNKKTRZhMUYFNKJySi7LcB5QBrDau0YlyH3nBQLVy1WqlM5ds8vjhrussWrxUj/3hDyyLNNo5am+84Qadf+EFDM/DcCMz4hp/pdzWu+KbcWjbbD5e/3793TzJ5UR+TkRslRPvX0JYr3Eue34ITuX+/QfijahnxZaeGs309ii0MNeOzemrBVh9excy8rxWQ4f0YzR9SI8/9gc99NADKiMStwU9y6bFf//739fIkSOdodS+bRzKBeRRNhcybGUj2V+je+fUfs3ePnXJGJYlbFMBRN5NN3wNi/MSihxyrpr6hnJuUlg4jOlXvXv2R19J8cBVjpmBqIb6COYC5hDa+kmN9MAgkyNSMy3eildh8Snka85oW3spBUNiJgbEKPqZ2eVjWJu7IzqWLXxO3fP7KXvEANe+x6QZ2R0vVdPAGYikQzTY7j17dMXVc6gB8x+rGhn9PadCGrvoQJHOOutsXXb5FY4LG+gtptz2XlMdlTu0MTUA1qq/+da31Ejoy8K33lKv3r0YAWY7m9V2Rn4G5FQU8jAzaWzCg5ke0qlnNeK/xeKQcXcV9mIiaNE+TBsLtHr1+4jfdczMycR7kaZzzj5H//jTn3kfh9QW52+AsmQ6r61f5cHIA433N9Fw7rFOf04tqBLFATRROMyUCWcDrNt1z4O/UU+GuTaUteC9Onqc9Y5Iaoa69ehNVGI5U7LL1MzECdOB/M3VSofDpNPDwqx/1YiiC53Vmmpx7ohPCGUxQz606MNFxSpncmSUpSG7o6j27p1DZHulli1+QZcMmoglP0N+YpaOlRKk9Ajb/oSZP6xxV61apdGjxyg3A78bt98CBC6uG45jYStf/8Y3HAeyZz9p+i4G0e6M/B548EHH2QtYzaUOHcvWncqysF8s4rWMki0SwjWqRW/g9zTd6bVXntehgwew9zG9Cs4TYRDUs6AHE1Nv0ZVXfiGBoU5FMlXBABX3D8Tvf3TZTz2oKKNJHNN/6gHWN776LZVVHdaLrzyrHHxYZazqlpMFIKwuzBsMRTKUkx5xcVY2u8NXh2kBN0wOrKmRnppFbHsKKxy3wMVazb1BD66rqlGPbt2VDVfKYP2GML7Gg/v2q4wJrS2Vu1GlArgmFmnk+nfUd/QMPmQ9NaE8e7R0n/cO3d+OwDKQWAi1heCeff4M92ZFZRRFeD2ig6nljMT+8Wc/dbphhyw+8eG1iLBRo0frP5lIsnr1atrb71bAq6jE8AlXS4ukO45vGdcR5FeH/S/GwicbNixnj+GTjmXT56ZNO5Nw7tkaMnigzDwThLO51LFS3pVP9fcUgqq9BjXVTUxuSME8QJhxuEA//uHPkPclevOtN9S9R55qbVRmrcorNlMmsyBH+TSWLTRbw+imHsW2ialfTfSsFnSvdDifLQPdFGQYHmpitJfOJMhy1ePyycrKUgqgzMnKQ3ymqqaiBteaATGot197VjePZjlIMWMa/uZjCI+SwTnf59tWBEvtJffOzaViXMrsOxkZEQfJHTt2sNRkNdyhUuefc5Z6wGUaKKc9+0mSfdNCqe1dE1fjibd64P77tXDhQv3xyaf04fqNjAir1advP0RjoVPLWHbB0a8MK30tyzFmsHDZUKIPBg4Yoiu/8EWNwiKfSEEGQGgC7SmuO7XXtv2Wd5SofUdqJK55T5wiRd0+TkGsAvy3gDVw4JLFHqX7s/E5TWcOfzVrUG6iMVlvnWhIM8TZSMUeTUO+2dqT1lurIXg1IaM16CeNjK1bsBq3WOSouX4wjFoorgXm2SC5CYW2CP9WCtwqhSUfqyoYecIBmxuIxgR0+dhp8iC+RWaZTSwGMHz4Is2qH/PYJdc7q6q21sFwnK45iDkzQm7ctJXyl7s8br7xelxOGSjnlD1eT6+2J/7b1mzU0YuWNeMsXJTzgQMG6PLLLtXlV8xikNEdHTKiL151FRyLcvONnYB6Fy6YKkT9V7/6NV3/5es1kxGpuVw6JStTYnM37cRg5f3reNN7zLvf8bp7If7nFHKqDsWIl9HbmdiJ4W7I109++HPYda4eeuJBpWWnoCcFVIPvw6I3WxnhmPJugfi28q7ZsSoYVtuqfHVwrDxGj5k0bgZGrBihNGbMYjyAMhuEO9WroXK/uqXlsjJNITHg5azFBABbavXa04/plqETlImZQcRe+Zx+lSCip8B6vThxzeMkNpJLg5OYvQhXoxNHIb7VG8W6FxzMRq/Wcey+pfa3vfOj/yYA5TobJ97z/OU4hhHXgGVitw+DgEGDBindIhgQ48Z0iksrMV2swyF/gJHdOJ0xYSIGVm80aSNtr/z2Rcv1o0pizx0rHf+9IxWHY737uV/zKhptRDEPddd3/vbH+vnPfqG87ELVEEhWX4uvsLIGp3OlqlkAxHpmHks7d+uGfYZ5ck0Q+jDTv/djMjhYacbCFlVXxuixPsJi/SyN41Nueg/56/2qOlChygNlSrNFanHxhGjBqgP79crD94IKiG8zLXDMGnsxDmGcy7ajyWnrcZlOZYu42WCuEWAbiIyr2oJj3gJjcLoEUj41Tc2J5Nn9bcnqQCDklrb+4IO1mjJ5MkuJ2+iNiadMXFi//kOn4w3m+1YOC6u2md+fHkQfv9CfL6hca/AnLvZcMeMtZLvEZpEIqdhxzPRE7Ke+cNlsHLK3seJIJesnNQCQWrYaiFbFeS3GzEaszIxoenZjmZs81hNlHQeiHMoIlzkMpQ/XtKi4loVBatA1CDlpJC4rFMhgcIDjlaWifXR8PzauDCzZBawjsP6t+dr20tNou6xyb7LEygYiLGzLSUB3pf2PAcr0nnQmChgjsDmJzjGMAtyb6f/OcBhHlIcrA4fHL463b8s9rhe0PQftzI5kk0htQsjid95RD2a89O9T6MKId+7Zr8WL3sKouRWRGdQIRHKAIKiwqQouJbht2xeOc5BoDetQnrj3KHGcxztc/nxBZR92JYsX+DiltF5uYsIVDqJCEg0aOBwnaC5gqob9s9gHviyzGJfDsWzpbDOZ2/Lapp/l53TDpZOlBoB5ABvVftuYvXIYLldSzZ7FaWuYVBFjaedm1r6yCQTmjG5k31rBJEoabt4Tj1IAGgCO0IYkynSsIhunarLAKZJxijTAZUseNrGCTSpi2MEHULUBwx50OcXpcJxjL1jFPez+2PsJSNjs5dUfbCCQbhurEl9M/BmmF1wzS99drJUr3sf42aiZF13EjBib8JH4smXTsQYdr9u9o1MCTkeW9uinjj7//EF1dAmOcW6MzKV4nW1nC3SkM2pLRdltwCJucVdVlXWMcsqZeFmEpCISgdWNzRicit8qbMNruE6URi0HGCWwvUNwwMPstzFi3IduVkqEQwxThM1DjBGr0gIXDBDlkM+3DmNYPLBsMShBBGKh99oCcqF7HZ0yMSRanJPBhqed/ciC2oxDRRlAmJW/LcXrlmjOE+3b3okfGNOyzXLbsnM/qwYv1MyZM5kanws3kj78YI2efeYpZ+gcgp5lirkHqKNz6nDuOKiV4vgp0RzHf+LIO50pdOT9z/XMCu8JBprG5Ix3we1s+ntOdjrA8qJCW+EwdXCrWgyj7i2IY2HFtryz/RqCxbOno8BHAGGUe7WIsTK42CHCGkpTgzqIcfAgFudiuEyDcSNAgFVCAThWPdb6MOdzH7ibRTX3kz/Wd0wLtkykbcZBOoLBlk2qhluWYZA1DmtKsYmeKNzLBhBdlRLf3LXvsF6YO1fnnHOuxowaiqullckUa13E5gF8md0YgX7tq7c7kWcrEbenTwqP9jc/ydFpBaqOBU9U37Blrgyb85bB6MpGbyEs7SFThM0Xg32psMdg2p11wBnLZ6Rnuhk5QcCTRpSjrbVkyxtiQ1AsDfsTdqoW1hqtJa/9uDK2EXq8lXUuD6IXVcEGLPKoGp0tjeOiD1Zp7TOP8Q2mgTOmNOXLzAqJxk3srdymjFuoClJI2Sx5FIFT1hDevGt/Cb/VE3Rg9CGi3aR2y4PnjrVZD7K622Y6nNPjOLZvGYey7dnnn9dknMfT+OUMC7UpLSvVI48QAox/MI3Od8klMzX9rHN5Uq4c7Tkmcna3vD9OLNj1rkunIaiQ4zSCSXPTkW2zEJdcgJDOYrR2Jy8nzKJc2a5HZka66SvXf0f5WYOxnBNGQzCRiQIzhdoyz02EkNhw20wR1XCgksMV2l9coT21LESPoruVufFr8I+tQXzuggsdMoU9k0XbEHP9UiJ64Xd36dCat6A4+akGTsTCbJyZ1HB7juFj6tOvD+Eu7yP+cGTzfVvuJ7fnYG3ZV6UNu8ocgJr55bD6WuK43NxDc34ce0vUu5HVnbEcOGChl2vbrnL9v1/dp7FEEpx39jT3/RKMxHfeRfjKe+86J/wo3ERfwf1y4pQAV3yfOD3qJW+sabX8ZAkN5DRMneoRw7VCeEZBbyIZP1QWPsB0ZsrWYZcaPniUpk+6EJ9eiVtEvqKUSQ8oqTa2x+XG3qf/9T//mVFZmMUu9jATpcyF0JRgbd53aK8qSg4DFcwUjPRaGEEOIaaoiAjTAItW9ICbNZWX6MF7fqU5aa0aNHo6IDdOZUbXdrpZcc19ci9x51/80mx8f7nYjijr9n0KHy7TvIVLNGzglYzWEMkpcEpycEbM9izajqwzmdgMMRI1h7PF3/uZ87h+3Xa9NG8ha6PzSwwTRzqfYkVlhf79179icf3XcRr3IkwmR9/7u79Tr8J+bfkd+6BD4Y/9AFcTXeboBz763dMTVPFyJ7BluhJCTxdddCkjnpVqgOugFuHWSSU+6CKaOE0XnT9Tb775HD6vYriIt0oMzIeRYHdCPwapd/5ATRp1HsItiJECZT9WixuF37yrq2YRjJUE7G3UXCIKfJGgRo4dqep9u9XIpAtC/HC1HNbSt19THT7F0WMvBIJm1feWSTKSW4jI2HHjnYI+d+5zrG53u7rBAUcM7cPsnxLtIKR3wZurWfPgDPIzEXi8BgOrdAIzATifnP2kCvLunXc3YjpYolmXXajJ/GKGvb112049+thjeg8OZTqd2aK+fcd3mFw6rAMK7MmPBkGHF45zmGiJxO0T53kK3TSJAn7UHuu5zYihKQf0HcBiYLv4hafN6D11WJP761t/cwciIhVnaRrmhWKG08uZLJCJO4bfEGQZlAF9hmr2lTdiKG3AtZPtzBM28DdwpfkjcL0sDaMhpp15sSZMn6KHnvmjyhFxk86ZijWf3yPMwYmdn6YeA3rrYFUJ0+iLNKj/MMdraH4Kj5Zk2jm6SSMc8qWX/6SJUybwAwQZrO+Uh/mDCWGlFe7nOsJpmSyr2Js3Eo4e0z6O3GzShq1cF2CgUYmO+MJLb2jtug2ajTN5+OBCNyli29YtevCB+7VgwXwXctMtP19f//o33HSqRswYnoM4AYQTA+CjqH/8+8fP97QBlRkPbQjexIRFz5Xg9bGW1nonKizeyuI2ly5djijYTIz1jfr6176hgb2GI5LgPjia7XfuNgG4Q8wXbMEiX1fdrNtu/oZGDTrDTTrNCGUSx4ezme/YKM5Pg/vdbGYDB64hIi1tOvmDDz0I92lWZvdsDZo0UqmFOYqm8Q7GdVvLqejAfiYX9CcMmkA7ShWGs9QTFTGQYfzjTzyubSxQNmniJOVnZiOS8rBX2UJvjVpMHPnBw+V0hj4AP8w1FCXqZevAW91d/XFum8vn/eVr9PzceZTDry9/+WreyaasMa1Ytkz3MI3K9DdzC9lA5HuEAJ999tmMOFPjgDJ1PpG6ilsl8rO9Aeo0B5UZDg1ItpSjzYrdtGkztiOfi4ky+5MNz/1YyA8yeeDxR5+CcBEmEfySX9XqrUMlhwhpyYFL4HsjQvQcRj2L0GF2bd+vOdfepDnX3QygEGKmwOPWsIVRW9B+TRkOOFBBH9epEbHoML0KCzFT1BMSPJ+hU0A7S/djkefHmPAf+omfb8QMYSsD92S1mqx0Vu5FPMYAph+Q2vsFPQqY/nQPTuwWDR4wjCUOM9WnD1Z1YuJt6cg9hAQvensxEa57ATajQtzczb4U3EdN2owOtvT9lXx7gXbvLdKkydOIKriAUS/P4DR/m8iE+++7Txs3b3AuqUxGsj/4wQ80dcpUz7lu7e1Vxh21nQLYrk0nBtVpoVMZl3qDGO7Fi7EGr0RngoCZmWn8TGsOfr1sRnv5ztC5dctuFqQtZXSWrR/94H8wLRw/H7NifvF/f004cm/oGWA5wUpChAl5qQ1r++ZDhBEzYmQddiN2YxP2J0Z0lsAZidEXiretjmJLEJmjOsL9/37Hj7E5VerVRc9qxIS+aiFaJYSfMYjdKztCxCT2ru0716l/wRgnykzvMfdMKiCZdckV2nDrZj3x6OOqLW3Q7Nlz+P28CZp65ghitYazXsIafg5lj3bs3qsPt73idCGb32j+QuM6BUQRjJl4jiZNGK3uFt1MKfft2u/0vddQyGsIqbYf1LZFyb73d99zocApANZLqArUwa300uVAin/iY+y6/Fe0PsY3Oz0yF0PeMtj6NqzYZh23mKM0ftogylw9i/KsRTEnStaFE2cSB2WkrmLNgXQiLM1ROvmMMwFhNsFoG7SJ5W8sZsqWdNzD6sg2mXLmJTPgDFvQzfilU0Zp1113vXP8OpHrejZiKA4wG5cFaCR+vESPvfCgXkX5TwljwW+o4AcGMuE+/Zge3lP1OKrDwb6adflXiA7oiRgEtp5qxdzFZuby/aNeeOZZzZgxQ2ddcL4uv/oahbOxpQFAC8E5QIBgGSNRW4rSxF4EwObndwNULJ4LQI15FsOZ1zD9/HV+KmQzIUCVhOHkA7rCfoX60Y9+pCGDhuADtDBpy5EaMEnBIhdsgi2ZumsfJariDx1nZ6VwbLzD/RNzKXvwtADV3r173UxYA9TPf/5z50czz3uUaIOpU6do6rQpmjb1TGK9++mZZ57Xq6wnbtZrux9FB0sNRTR27DgiFfKYfVvEqsglbk6cWygMY6BNCrBgOfutu1FMQLj8ssudLcdbrwAdC1eK02lMbzPDEHS0YX+M6TlEaGnd+hWYIXZpM5NA9xVtVf8B2S5qsvhQI/DO1m033cHeAvusYbGok4XNePmXf/5nvfTSy/za50Cmog/VBFa9u+DCGc4BbIuz2giWR93iZ5hnsezbAq7VzBfcp7VrVuv9pUu0Z9dOplpZZCdzIQHeDGbh/PCHP+RpLyWgY2cdw5StPp2fiF/6RLtjgerEGZwWoOpYRAPMuHHj+N26vW7t9Qvo5TmszWScpBQ/3913363p06c7jrZo0SIczYMIQLvBAe0DFlytxHazjSH8bMJlzzrrLLeEYXpaup566ila0Md8u5scaE3JNR3Okg3HrdHaEnQ0cFiytjGTBgHD6GOs4cAPN8WCFUxmxdXDdKzUECI6uw/jQAMV8UxxUHlvS/fff58eevhhd2o+yRwmLQxmMGBRoraGp4kq08XqiLawzlDKdHf7rWP7VVETiRbtYGHKk6dM1q233EKdznHgdWVLfOQ0258WoDJF3XqWRTdab2vvZR61zJhp9yzQP4U4dEt27vQHwFBbU6ubb76ZFeX2oLCGdc+99xIyO8rlk8jPnvWmRKFU807iXe8LHf4CKBNjbclA5QyezNdB1Bi4/IQpm93M+BjOIh41PuOtEmzv2iDAZrVYPWziw86du3TXXXdp0eJFbkqU5R3BeGuc0mKcTJcyPdJCZuydWvyIZhawXwrNy8tnhbwrdNlllxG1WWCvnvbptABVgkqJuCTjIBabZFOfjPAGILtnBDdAGDjsWiJZg9ivTNmiFvYDAOPHj3fPeQ1lgf3m4GVODdp0AmRHAzeRl+2PABUwOvJZY2HmYLGAPfvJOG/vlOP4u+arTADX8jMA22Y63wJGdu+9957jxBXM4TMuaZvFhVnZDGD9+vUjpnyo08emTJmCWO/muKrVw2hj+9M5nVagShDKiPtJ0pGN/knePN6ziLsOZXB61vEe5bqJyoT0TID2BI87sWbRCybibW+izjqR/SpGLjHyvXC52DxC61B/jum0BNWpJaQB2kBlHMkMkqZrIc9OlOyV+CMfB1THysres9XyTBx2fSc51hc/u2tJUHWirSHEAGXJkJLY3IUu+WNM0IL4LNkCJEj1Y6YOzNLdP95zx3z5FF7sMOQ5haX4s/x0Any29wDycath4LD4cgNU4idT7F1bhrGJNRDcr1pYoNSfaUpyqk4Nd3RjHoeNdHoveSFBgdN7GJEo5ee6T4LoZMmdFH8nS8Hk+50okARVJ5IkL5wsBZKgOlkKJt/vRIEkqDqRJHnhZCmQBNXJUjD5ficKJEHViSTJCydLgSSoTpaCyfc7USAJqk4kSV44WQokQXWyFEy+34kCSVB1IknywslSIAmqk6Vg8v1OFEiCqhNJkhdOlgJJUJ0sBZPvd6JAElSdSJK8cLIUSILqZCmYfL8TBZKg6kSS5IWTpUASVCdLweT7nSiQBFUnkiQvnCwFkqA6WQom3+9EgSSoOpEkeeFkKfD/AZoO/jJiCBJzAAAAAElFTkSuQmCC;" vertex="1" parent="1">
          <mxGeometry x="-5.9" y="116" width="76.94" height="63" as="geometry" />
        </mxCell>
      </root>
    </mxGraphModel>
  </diagram>
</mxfile>
